<svg xmlns="http://www.w3.org/2000/svg" width="433" height="53" viewBox="0 0 433 53">
  <g fill="none" fill-rule="evenodd">
    <path fill="#242424" d="M0,44.54 C0,43.4666613 0.40832925,42.3816722 1.225,41.285 C2.04167075,40.1883279 2.9633282,39.64 3.99,39.64 C4.5966697,39.64 5.28499615,39.9199972 6.055,40.48 C6.82500385,41.0400028 7.57166305,41.65833 8.295,42.335 C9.01833695,43.0116701 10.0566599,43.6299972 11.41,44.19 C12.7633401,44.7500028 14.2566585,45.03 15.89,45.03 C18.1300112,45.03 19.9966592,44.5166718 21.49,43.49 C22.9833408,42.4633282 23.73,40.9466767 23.73,38.94 C23.73,37.539993 23.3216708,36.2916722 22.505,35.195 C21.6883293,34.0983279 20.6150067,33.188337 19.285,32.465 C17.9549934,31.7416631 16.4966746,31.0416701 14.91,30.365 C13.3233254,29.68833 11.7250081,28.9300042 10.115,28.09 C8.50499195,27.2499958 7.03500665,26.3050053 5.705,25.255 C4.37499335,24.2049948 3.30167075,22.8050088 2.485,21.055 C1.66832925,19.3049913 1.26,17.3100112 1.26,15.07 C1.26,12.5966543 1.76166165,10.4150094 2.765,8.525 C3.76833835,6.63499055 5.1099916,5.16500525 6.79,4.115 C8.4700084,3.06499475 10.2666571,2.29500245 12.18,1.805 C14.0933429,1.31499755 16.1233226,1.07 18.27,1.07 C19.4833394,1.07 20.7666599,1.15166585 22.12,1.315 C23.4733401,1.47833415 24.9083258,1.7466648 26.425,2.12 C27.9416743,2.4933352 29.1783286,3.0766627 30.135,3.87 C31.0916715,4.6633373 31.57,5.5966613 31.57,6.67 C31.57,7.6966718 31.2433366,8.75832785 30.59,9.855 C29.9366634,10.9516722 29.0500056,11.5 27.93,11.5 C27.5099979,11.5 26.366676,11.0566711 24.5,10.17 C22.633324,9.2833289 20.5566781,8.84 18.27,8.84 C15.7499874,8.84 13.8016736,9.31832855 12.425,10.275 C11.0483265,11.2316715 10.36,12.5499916 10.36,14.23 C10.36,15.5833401 10.9199944,16.7616617 12.04,17.765 C13.1600056,18.7683384 14.5483251,19.5849969 16.205,20.215 C17.861675,20.8450032 19.6583237,21.6383286 21.595,22.595 C23.5316764,23.5516715 25.3283251,24.5899944 26.985,25.71 C28.641675,26.8300056 30.0299944,28.4516561 31.15,30.575 C32.2700056,32.698344 32.83,35.1833191 32.83,38.03 C32.83,42.8833576 31.301682,46.6283202 28.245,49.265 C25.1883181,51.9016799 21.1633583,53.22 16.17,53.22 C11.7366445,53.22 7.9333492,52.3100091 4.76,50.49 C1.5866508,48.6699909 0,46.6866774 0,44.54 Z M41.49,48.81 C41.49,48.7166662 41.5366662,48.4833352 41.63,48.11 L55.14,4.08 C55.4200014,3.0999951 56.1083278,2.34166935 57.205,1.805 C58.3016722,1.26833065 59.549993,1 60.95,1 C62.350007,1 63.6099944,1.26833065 64.73,1.805 C65.8500056,2.34166935 66.5499986,3.0999951 66.83,4.08 L80.34,48.11 C80.4333338,48.4833352 80.48,48.7166662 80.48,48.81 C80.48,49.8366718 79.8500063,50.7233296 78.59,51.47 C77.3299937,52.2166704 76.0466732,52.59 74.74,52.59 C73.0133247,52.59 71.9866683,51.9833394 71.66,50.77 L69,41.46 L52.97,41.46 L50.31,50.77 C49.9833317,51.9833394 48.9566753,52.59 47.23,52.59 C45.8766599,52.59 44.5816729,52.228337 43.345,51.505 C42.1083272,50.7816631 41.49,49.8833387 41.49,48.81 Z M54.86,34.32 L67.04,34.32 L60.95,12.83 L54.86,34.32 Z M91.31,49.72 L91.31,4.22 C91.31,3.286662 91.7533289,2.586669 92.64,2.12 C93.5266711,1.653331 94.5999937,1.42 95.86,1.42 C97.1200063,1.42 98.1933289,1.653331 99.08,2.12 C99.9666711,2.586669 100.41,3.286662 100.41,4.22 L100.41,44.61 L117.49,44.61 C118.330004,44.61 118.994998,45.0066627 119.485,45.8 C119.975002,46.5933373 120.22,47.5266613 120.22,48.6 C120.22,49.6733387 119.975002,50.6066627 119.485,51.4 C118.994998,52.1933373 118.330004,52.59 117.49,52.59 L95.3,52.59 C94.2266613,52.59 93.2933373,52.3333359 92.5,51.82 C91.7066627,51.3066641 91.31,50.6066711 91.31,49.72 Z M121.04,5.48 C121.04,4.4066613 121.284998,3.46167075 121.775,2.645 C122.265002,1.82832925 122.976662,1.42 123.91,1.42 L153.52,1.42 C154.453338,1.42 155.164998,1.82832925 155.655,2.645 C156.145002,3.46167075 156.39,4.4066613 156.39,5.48 C156.39,6.6000056 156.133336,7.56832925 155.62,8.385 C155.106664,9.20167075 154.406671,9.61 153.52,9.61 L143.3,9.61 L143.3,49.72 C143.3,50.6066711 142.845005,51.3066641 141.935,51.82 C141.024995,52.3333359 139.963339,52.59 138.75,52.59 C137.489994,52.59 136.416671,52.3333359 135.53,51.82 C134.643329,51.3066641 134.2,50.6066711 134.2,49.72 L134.2,9.61 L123.91,9.61 C123.023329,9.61 122.323336,9.2133373 121.81,8.42 C121.296664,7.6266627 121.04,6.6466725 121.04,5.48 Z M167.36,49.72 L167.36,4.29 C167.36,3.4033289 167.756663,2.7033359 168.55,2.19 C169.343337,1.6766641 170.276661,1.42 171.35,1.42 L196.27,1.42 C197.203338,1.42 197.914998,1.8166627 198.405,2.61 C198.895002,3.4033373 199.14,4.3133282 199.14,5.34 C199.14,6.4600056 198.883336,7.4166627 198.37,8.21 C197.856664,9.0033373 197.156671,9.4 196.27,9.4 L176.46,9.4 L176.46,23.4 L187.1,23.4 C187.986671,23.4 188.686664,23.7616631 189.2,24.485 C189.713336,25.208337 189.97,26.0599951 189.97,27.04 C189.97,27.9266711 189.725002,28.7316631 189.235,29.455 C188.744998,30.178337 188.033338,30.54 187.1,30.54 L176.46,30.54 L176.46,44.61 L196.27,44.61 C197.156671,44.61 197.856664,45.0066627 198.37,45.8 C198.883336,46.5933373 199.14,47.5499944 199.14,48.67 C199.14,49.6966718 198.895002,50.6066627 198.405,51.4 C197.914998,52.1933373 197.203338,52.59 196.27,52.59 L171.35,52.59 C170.276661,52.59 169.343337,52.3333359 168.55,51.82 C167.756663,51.3066641 167.36,50.6066711 167.36,49.72 Z"/>
    <path fill="#CA5454" d="M213,48.81 C213,48.7166662 213.046666,48.4833352 213.14,48.11 L226.65,4.08 C226.930001,3.0999951 227.618328,2.34166935 228.715,1.805 C229.811672,1.26833065 231.059993,1 232.46,1 C233.860007,1 235.119994,1.26833065 236.24,1.805 C237.360006,2.34166935 238.059999,3.0999951 238.34,4.08 L251.85,48.11 C251.943334,48.4833352 251.99,48.7166662 251.99,48.81 C251.99,49.8366718 251.360006,50.7233296 250.1,51.47 C248.839994,52.2166704 247.556673,52.59 246.25,52.59 C244.523325,52.59 243.496668,51.9833394 243.17,50.77 L240.51,41.46 L224.48,41.46 L221.82,50.77 C221.493332,51.9833394 220.466675,52.59 218.74,52.59 C217.38666,52.59 216.091673,52.228337 214.855,51.505 C213.618327,50.7816631 213,49.8833387 213,48.81 Z M226.37,34.32 L238.55,34.32 L232.46,12.83 L226.37,34.32 Z M262.26,36.98 L262.26,4.22 C262.26,3.286662 262.703329,2.586669 263.59,2.12 C264.476671,1.653331 265.549994,1.42 266.81,1.42 C268.070006,1.42 269.143329,1.653331 270.03,2.12 C270.916671,2.586669 271.36,3.286662 271.36,4.22 L271.36,36.98 C271.36,42.3466935 273.926641,45.03 279.06,45.03 C284.193359,45.03 286.76,42.3466935 286.76,36.98 L286.76,4.22 C286.76,3.286662 287.203329,2.586669 288.09,2.12 C288.976671,1.653331 290.049994,1.42 291.31,1.42 C292.570006,1.42 293.643329,1.653331 294.53,2.12 C295.416671,2.586669 295.86,3.286662 295.86,4.22 L295.86,36.98 C295.86,42.4866942 294.331682,46.5349871 291.275,49.125 C288.218318,51.715013 284.146692,53.01 279.06,53.01 C273.973308,53.01 269.901682,51.7266795 266.845,49.16 C263.788318,46.5933205 262.26,42.5333611 262.26,36.98 Z M306.69,5.48 C306.69,4.4066613 306.934998,3.46167075 307.425,2.645 C307.915002,1.82832925 308.626662,1.42 309.56,1.42 L339.17,1.42 C340.103338,1.42 340.814998,1.82832925 341.305,2.645 C341.795002,3.46167075 342.04,4.4066613 342.04,5.48 C342.04,6.6000056 341.783336,7.56832925 341.27,8.385 C340.756664,9.20167075 340.056671,9.61 339.17,9.61 L328.95,9.61 L328.95,49.72 C328.95,50.6066711 328.495005,51.3066641 327.585,51.82 C326.674995,52.3333359 325.613339,52.59 324.4,52.59 C323.139994,52.59 322.066671,52.3333359 321.18,51.82 C320.293329,51.3066641 319.85,50.6066711 319.85,49.72 L319.85,9.61 L309.56,9.61 C308.673329,9.61 307.973336,9.2133373 307.46,8.42 C306.946664,7.6266627 306.69,6.6466725 306.69,5.48 Z M353.01,49.72 L353.01,4.22 C353.01,3.286662 353.453329,2.586669 354.34,2.12 C355.226671,1.653331 356.299994,1.42 357.56,1.42 C358.820006,1.42 359.893329,1.653331 360.78,2.12 C361.666671,2.586669 362.11,3.286662 362.11,4.22 L362.11,22.49 L377.86,22.49 L377.86,4.22 C377.86,3.286662 378.303329,2.586669 379.19,2.12 C380.076671,1.653331 381.149994,1.42 382.41,1.42 C383.670006,1.42 384.743329,1.653331 385.63,2.12 C386.516671,2.586669 386.96,3.286662 386.96,4.22 L386.96,49.72 C386.96,50.6066711 386.505005,51.3066641 385.595,51.82 C384.684995,52.3333359 383.623339,52.59 382.41,52.59 C381.149994,52.59 380.076671,52.3333359 379.19,51.82 C378.303329,51.3066641 377.86,50.6066711 377.86,49.72 L377.86,29.63 L362.11,29.63 L362.11,49.72 C362.11,50.6066711 361.655005,51.3066641 360.745,51.82 C359.834995,52.3333359 358.773339,52.59 357.56,52.59 C356.299994,52.59 355.226671,52.3333359 354.34,51.82 C353.453329,51.3066641 353.01,50.6066711 353.01,49.72 Z M400.38,36.98 L400.38,17.45 C400.38,11.8966389 401.861652,7.8366795 404.825,5.27 C407.788348,2.7033205 411.766642,1.42 416.76,1.42 C421.753358,1.42 425.743318,2.7033205 428.73,5.27 C431.716682,7.8366795 433.21,11.8966389 433.21,17.45 L433.21,36.98 C433.21,42.5333611 431.716682,46.5933205 428.73,49.16 C425.743318,51.7266795 421.753358,53.01 416.76,53.01 C411.766642,53.01 407.788348,51.7266795 404.825,49.16 C401.861652,46.5933205 400.38,42.5333611 400.38,36.98 Z M409.48,36.98 C409.48,42.3466935 411.906642,45.03 416.76,45.03 C421.660025,45.03 424.11,42.3466935 424.11,36.98 L424.11,17.45 C424.11,12.0833065 421.660025,9.4 416.76,9.4 C411.906642,9.4 409.48,12.0833065 409.48,17.45 L409.48,36.98 Z M414.45,29.63 C413.84333,29.0233303 413.54,28.2300049 413.54,27.25 C413.54,26.2699951 413.831664,25.4883362 414.415,24.905 C414.998336,24.3216638 415.803328,24.03 416.83,24.03 C417.810005,24.03 418.591664,24.3216638 419.175,24.905 C419.758336,25.4883362 420.05,26.2699951 420.05,27.25 C420.05,28.2300049 419.758336,29.0233303 419.175,29.63 C418.591664,30.2366697 417.810005,30.54 416.83,30.54 C415.849995,30.54 415.05667,30.2366697 414.45,29.63 Z"/>
  </g>
</svg>
