<svg xmlns="http://www.w3.org/2000/svg" width="429" height="53" viewBox="0 0 429 53">
  <g fill="none" fill-rule="evenodd">
    <path fill="#242424" fill-rule="nonzero" d="M0,43.3565684 C0,42.2877516 0.408042185,41.2073334 1.2241388,40.1152815 C2.04023541,39.0232296 2.96124491,38.4772118 3.98719494,38.4772118 C4.59343814,38.4772118 5.28128068,38.7560294 6.0507432,39.3136729 C6.82020572,39.8713165 7.56634,40.4870386 8.28916842,41.1608579 C9.01199685,41.8346772 10.0495898,42.4503994 11.4019785,43.0080429 C12.7543672,43.5656864 14.2466357,43.844504 15.878829,43.844504 C18.1172654,43.844504 19.9826011,43.3333384 21.474892,42.310992 C22.967183,41.2886455 23.7133173,39.7783835 23.7133173,37.7801609 C23.7133173,36.386052 23.3052751,35.1429903 22.4891785,34.0509383 C21.6730819,32.9588864 20.6005138,32.0527292 19.2714422,31.3324397 C17.9423706,30.6121501 16.4850771,29.9151061 14.8995179,29.2412869 C13.3139588,28.5674676 11.7167651,27.8123366 10.1078889,26.9758713 C8.49901275,26.139406 7.03006088,25.1983966 5.70098925,24.152815 C4.37191763,23.1072334 3.2993496,21.7131454 2.48325299,19.9705094 C1.66715638,18.2278733 1.25911419,16.241298 1.25911419,14.0107239 C1.25911419,11.5477982 1.76042316,9.37534453 2.76305614,7.49329759 C3.76568912,5.61125064 5.10639916,4.14745831 6.78522647,3.10187668 C8.46405379,2.05629504 10.2594394,1.28954668 12.1714372,0.801608579 C14.083435,0.313670483 16.1119875,0.0697050938 18.2571558,0.0697050938 C19.4696422,0.0697050938 20.7520605,0.15102689 22.1044491,0.313672922 C23.4568378,0.476318954 24.8908146,0.743519142 26.4064226,1.1152815 C27.9220306,1.48704386 29.1578155,2.06791383 30.1138144,2.85790885 C31.0698133,3.64790386 31.5478056,4.57729582 31.5478056,5.6461126 C31.5478056,6.66845909 31.2213718,7.72564244 30.5684945,8.81769437 C29.9156172,9.9097463 29.0295828,10.4557641 27.9103646,10.4557641 C27.4906577,10.4557641 26.3481396,10.0143029 24.4827759,9.13136729 C22.6174123,8.24843169 20.5422263,7.80697051 18.2571558,7.80697051 C15.7389148,7.80697051 13.7919707,8.28328389 12.4162649,9.23592493 C11.0405592,10.188566 10.3527167,11.5013321 10.3527167,13.1742627 C10.3527167,14.5219013 10.9123174,15.6952586 12.0315356,16.69437 C13.1507538,17.6934813 14.5380972,18.5066993 16.1936075,19.1340483 C17.8491178,19.7613972 19.6445034,20.5513804 21.5798182,21.5040214 C23.515133,22.4566625 25.3105187,23.490611 26.9660289,24.6058981 C28.6215392,25.7211852 30.0088826,27.3360037 31.1281008,29.4504021 C32.247319,31.5648006 32.8069198,34.0393066 32.8069198,36.8739946 C32.8069198,41.7069053 31.2796761,45.4360905 28.2251431,48.0616622 C25.1706101,50.6872339 21.14848,52 16.1586321,52 C11.7283934,52 7.92777187,51.0938428 4.75665361,49.2815013 C1.58553535,47.4691598 0,45.4942019 0,43.3565684 Z M41.4608316,47.6085791 C41.4608316,47.5156385 41.507465,47.2832905 41.6007332,46.9115282 L55.1012353,3.06702413 C55.3810399,2.09114794 56.0688824,1.33601697 57.1647836,0.801608579 C58.2606847,0.267200188 59.508128,0 60.9071507,0 C62.3061735,0 63.5652751,0.267200188 64.6844933,0.801608579 C65.8037115,1.33601697 66.5032124,2.09114794 66.783017,3.06702413 L80.2835191,46.9115282 C80.3767873,47.2832905 80.4234207,47.5156385 80.4234207,47.6085791 C80.4234207,48.6309256 79.7938699,49.5138479 78.5347494,50.2573727 C77.2756289,51.0008974 75.9932106,51.3726542 74.6874561,51.3726542 C72.9619947,51.3726542 71.93606,50.7685494 71.6096214,49.5603217 L68.9514914,40.2895442 L52.9327609,40.2895442 L50.2746309,49.5603217 C49.9481923,50.7685494 48.9222576,51.3726542 47.1967962,51.3726542 C45.8444076,51.3726542 44.5503309,51.0125148 43.3145275,50.2922252 C42.078724,49.5719356 41.4608316,48.6773959 41.4608316,47.6085791 Z M54.8214322,33.1796247 L66.9928693,33.1796247 L60.9071507,11.7801609 L54.8214322,33.1796247 Z M91.245807,48.5147453 L91.245807,3.20643432 C91.245807,2.27702842 91.6888242,1.57998445 92.5748719,1.1152815 C93.4609197,0.650578552 94.5334877,0.418230563 95.7926082,0.418230563 C97.0517287,0.418230563 98.1242967,0.650578552 99.0103445,1.1152815 C99.8963922,1.57998445 100.339409,2.27702842 100.339409,3.20643432 L100.339409,43.4262735 L117.407402,43.4262735 C118.246815,43.4262735 118.911341,43.821265 119.400999,44.6112601 C119.890657,45.4012551 120.135483,46.330647 120.135483,47.3994638 C120.135483,48.4682806 119.890657,49.3976725 119.400999,50.1876676 C118.911341,50.9776626 118.246815,51.3726542 117.407402,51.3726542 L95.2330019,51.3726542 C94.1604178,51.3726542 93.2277499,51.1170714 92.4349704,50.6058981 C91.6421908,50.0947249 91.245807,49.3976809 91.245807,48.5147453 Z M120.954906,4.46112601 C120.954906,3.39230922 121.199731,2.45129987 121.689389,1.63806971 C122.179047,0.824839544 122.890207,0.418230563 123.822888,0.418230563 L153.412072,0.418230563 C154.344754,0.418230563 155.055913,0.824839544 155.545571,1.63806971 C156.035229,2.45129987 156.280054,3.39230922 156.280054,4.46112601 C156.280054,5.57641308 156.023571,6.54065724 155.510596,7.3538874 C154.997621,8.16711756 154.29812,8.57372654 153.412072,8.57372654 L143.199257,8.57372654 L143.199257,48.5147453 C143.199257,49.3976809 142.744581,50.0947249 141.835216,50.6058981 C140.925852,51.1170714 139.864942,51.3726542 138.652456,51.3726542 C137.393335,51.3726542 136.320767,51.1170714 135.434719,50.6058981 C134.548672,50.0947249 134.105654,49.3976809 134.105654,48.5147453 L134.105654,8.57372654 L123.822888,8.57372654 C122.936841,8.57372654 122.23734,8.17873496 121.724365,7.38873995 C121.21139,6.59874493 120.954906,5.62288338 120.954906,4.46112601 Z M167.242342,48.5147453 L167.242342,3.27613941 C167.242342,2.39320381 167.638726,1.69615984 168.431505,1.1849866 C169.224285,0.673813351 170.156953,0.418230563 171.229537,0.418230563 L196.132018,0.418230563 C197.0647,0.418230563 197.775859,0.813222145 198.265517,1.60321716 C198.755175,2.39321217 199,3.29936933 199,4.32171582 C199,5.4370029 198.743516,6.38962965 198.230541,7.17962466 C197.717566,7.96961968 197.018065,8.36461126 196.132018,8.36461126 L176.335945,8.36461126 L176.335945,22.30563 L186.968464,22.30563 C187.854512,22.30563 188.554013,22.6657694 189.066988,23.386059 C189.579963,24.1063486 189.836447,24.9544187 189.836447,25.9302949 C189.836447,26.8132305 189.591621,27.6148311 189.101963,28.3351206 C188.612305,29.0554102 187.901146,29.4155496 186.968464,29.4155496 L176.335945,29.4155496 L176.335945,43.4262735 L196.132018,43.4262735 C197.018065,43.4262735 197.717566,43.821265 198.230541,44.6112601 C198.743516,45.4012551 199,46.3538818 199,47.4691689 C199,48.4915154 198.755175,49.3976725 198.265517,50.1876676 C197.775859,50.9776626 197.0647,51.3726542 196.132018,51.3726542 L171.229537,51.3726542 C170.156953,51.3726542 169.224285,51.1170714 168.431505,50.6058981 C167.638726,50.0947249 167.242342,49.3976809 167.242342,48.5147453 Z"/>
    <path fill="#CA5454" fill-rule="nonzero" d="M211,47.8008075 C211,47.7074917 211.046748,47.4742055 211.140244,47.1009421 L224.673835,3.07940781 C224.954325,2.09959133 225.643854,1.34141139 226.742441,0.804845222 C227.841028,0.268279058 229.091529,0 230.49398,0 C231.896432,0 233.15862,0.268279058 234.280581,0.804845222 C235.402542,1.34141139 236.103757,2.09959133 236.384248,3.07940781 L249.917838,47.1009421 C250.011335,47.4742055 250.058083,47.7074917 250.058083,47.8008075 C250.058083,48.8272819 249.426989,49.7137693 248.164783,50.4602961 C246.902576,51.2068229 245.617015,51.5800808 244.30806,51.5800808 C242.57837,51.5800808 241.54992,50.9735368 241.222682,49.7604307 L238.558037,40.4522207 L222.500046,40.4522207 L219.835401,49.7604307 C219.508162,50.9735368 218.479713,51.5800808 216.750023,51.5800808 C215.39432,51.5800808 214.097071,51.2184872 212.858239,50.4952894 C211.619407,49.7720915 211,48.8739399 211,47.8008075 Z M224.393346,33.3135935 L236.594614,33.3135935 L230.49398,11.8277254 L224.393346,33.3135935 Z M257.681371,49.0605653 C257.681371,48.0340909 258.008605,46.9843033 258.663082,45.9111709 L279.489385,8.39838493 L261.748461,8.39838493 C260.860241,8.39838493 260.170713,8.0134628 259.679855,7.243607 C259.188997,6.4737512 258.943571,5.52894234 258.943571,4.40915209 C258.943571,3.33601976 259.17731,2.40287521 259.644794,1.60969044 C260.112278,0.81650568 260.813493,0.419919246 261.748461,0.419919246 L288.394909,0.419919246 C290.218096,0.419919246 291.129676,1.23642073 291.129676,2.86944818 C291.129676,3.89592258 290.779068,4.99236743 290.077842,6.15881561 L269.321662,43.6016151 L289.516864,43.6016151 C290.358335,43.6016151 291.047864,44.0098658 291.58547,44.8263795 C292.123077,45.6428933 292.391876,46.5643735 292.391876,47.5908479 C292.391876,48.6173223 292.123077,49.5388026 291.58547,50.3553163 C291.047864,51.17183 290.358335,51.5800808 289.516864,51.5800808 L260.416138,51.5800808 C258.592951,51.5800808 257.681371,50.7402507 257.681371,49.0605653 Z M303.310909,35.9730821 L303.310909,3.21938089 C303.310909,2.28622234 303.755012,1.58636393 304.643231,1.11978466 C305.531451,0.653205384 306.606647,0.419919246 307.868854,0.419919246 C309.13106,0.419919246 310.206257,0.653205384 311.094477,1.11978466 C311.982696,1.58636393 312.426799,2.28622234 312.426799,3.21938089 L312.426799,35.9730821 C312.426799,41.3387437 314.997922,44.0215343 320.140244,44.0215343 C325.282567,44.0215343 327.85369,41.3387437 327.85369,35.9730821 L327.85369,3.21938089 C327.85369,2.28622234 328.297793,1.58636393 329.186012,1.11978466 C330.074232,0.653205384 331.149428,0.419919246 332.411635,0.419919246 C333.673841,0.419919246 334.749038,0.653205384 335.637258,1.11978466 C336.525477,1.58636393 336.96958,2.28622234 336.96958,3.21938089 L336.96958,35.9730821 C336.96958,41.4787175 335.438593,45.526232 332.376574,48.115747 C329.314554,50.7052619 325.235819,52 320.140244,52 C315.04467,52 310.965934,50.7169262 307.903915,48.1507402 C304.841896,45.5845542 303.310909,41.5253755 303.310909,35.9730821 Z M351.184358,48.7106326 L351.184358,3.21938089 C351.184358,2.47285405 351.464844,1.81965287 352.025825,1.25975774 C352.586805,0.699862611 353.288021,0.419919246 354.129492,0.419919246 L368.013694,0.419919246 C379.093062,0.419919246 384.632662,5.29559952 384.632662,15.0471063 C384.632662,18.8730564 383.802891,21.9524334 382.143323,24.2853297 C380.483755,26.6182261 378.251553,28.2045718 375.44665,29.0444145 L384.632662,46.051144 C384.866404,46.3310916 384.983274,46.7043494 384.983274,47.1709287 C384.983274,48.3373769 384.375554,49.4221574 383.160096,50.4253028 C381.944637,51.4284483 380.659076,51.9300135 379.303373,51.9300135 C377.94767,51.9300135 376.895847,51.2068264 376.147872,49.7604307 L366.190516,30.4441454 L360.300248,30.4441454 L360.300248,48.7106326 C360.300248,49.5971332 359.856145,50.2969916 358.967926,50.8102288 C358.079706,51.323466 357.00451,51.5800808 355.742303,51.5800808 C354.526845,51.5800808 353.463335,51.323466 352.551742,50.8102288 C351.640148,50.2969916 351.184358,49.5971332 351.184358,48.7106326 Z M360.300248,23.3055182 L368.013694,23.3055182 C373.015771,23.3055182 375.516772,20.8326851 375.516772,15.8869448 C375.516772,10.8945466 373.015771,8.39838493 368.013694,8.39838493 L360.300248,8.39838493 L360.300248,23.3055182 Z M397.164507,48.7106326 L397.164507,3.28936743 C397.164507,2.40286681 397.561862,1.7030084 398.356585,1.1897712 C399.151307,0.676533997 400.086261,0.419919246 401.161474,0.419919246 L426.124989,0.419919246 C427.059956,0.419919246 427.772858,0.81650568 428.263717,1.60969044 C428.754575,2.40287521 429,3.31269114 429,4.33916555 C429,5.4589558 428.742888,6.41542896 428.228655,7.20861373 C427.714423,8.00179849 427.013208,8.39838493 426.124989,8.39838493 L406.280397,8.39838493 L406.280397,22.3956931 L416.938976,22.3956931 C417.827196,22.3956931 418.528411,22.7572866 419.042643,23.4804845 C419.556875,24.2036824 419.813988,25.0551768 419.813988,26.0349933 C419.813988,26.9214939 419.568562,27.7263311 419.077704,28.4495289 C418.586846,29.1727268 417.873944,29.5343203 416.938976,29.5343203 L406.280397,29.5343203 L406.280397,43.6016151 L426.124989,43.6016151 C427.013208,43.6016151 427.714423,43.9982015 428.228655,44.7913863 C428.742888,45.584571 429,46.5410442 429,47.6608345 C429,48.6873089 428.754575,49.5971248 428.263717,50.3903096 C427.772858,51.1834943 427.059956,51.5800808 426.124989,51.5800808 L401.161474,51.5800808 C400.086261,51.5800808 399.151307,51.323466 398.356585,50.8102288 C397.561862,50.2969916 397.164507,49.5971332 397.164507,48.7106326 Z"/>
  </g>
</svg>
