<svg xmlns="http://www.w3.org/2000/svg" width="584" height="53" viewBox="0 0 584 53">
  <g fill="none" fill-rule="evenodd">
    <path fill="#242424" fill-rule="nonzero" d="M1,44.3565684 C1,43.2877516 1.40804219,42.2073334 2.2241388,41.1152815 C3.04023541,40.0232296 3.96124491,39.4772118 4.98719494,39.4772118 C5.59343814,39.4772118 6.28128068,39.7560294 7.0507432,40.3136729 C7.82020572,40.8713165 8.56634,41.4870386 9.28916842,42.1608579 C10.0119969,42.8346772 11.0495898,43.4503994 12.4019785,44.0080429 C13.7543672,44.5656864 15.2466357,44.844504 16.878829,44.844504 C19.1172654,44.844504 20.9826011,44.3333384 22.474892,43.310992 C23.967183,42.2886455 24.7133173,40.7783835 24.7133173,38.7801609 C24.7133173,37.386052 24.3052751,36.1429903 23.4891785,35.0509383 C22.6730819,33.9588864 21.6005138,33.0527292 20.2714422,32.3324397 C18.9423706,31.6121501 17.4850771,30.9151061 15.8995179,30.2412869 C14.3139588,29.5674676 12.7167651,28.8123366 11.1078889,27.9758713 C9.49901275,27.139406 8.03006088,26.1983966 6.70098925,25.152815 C5.37191763,24.1072334 4.2993496,22.7131454 3.48325299,20.9705094 C2.66715638,19.2278733 2.25911419,17.241298 2.25911419,15.0107239 C2.25911419,12.5477982 2.76042316,10.3753445 3.76305614,8.49329759 C4.76568912,6.61125064 6.10639916,5.14745831 7.78522647,4.10187668 C9.46405379,3.05629504 11.2594394,2.28954668 13.1714372,1.80160858 C15.083435,1.31367048 17.1119875,1.06970509 19.2571558,1.06970509 C20.4696422,1.06970509 21.7520605,1.15102689 23.1044491,1.31367292 C24.4568378,1.47631895 25.8908146,1.74351914 27.4064226,2.1152815 C28.9220306,2.48704386 30.1578155,3.06791383 31.1138144,3.85790885 C32.0698133,4.64790386 32.5478056,5.57729582 32.5478056,6.6461126 C32.5478056,7.66845909 32.2213718,8.72564244 31.5684945,9.81769437 C30.9156172,10.9097463 30.0295828,11.4557641 28.9103646,11.4557641 C28.4906577,11.4557641 27.3481396,11.0143029 25.4827759,10.1313673 C23.6174123,9.24843169 21.5422263,8.80697051 19.2571558,8.80697051 C16.7389148,8.80697051 14.7919707,9.28328389 13.4162649,10.2359249 C12.0405592,11.188566 11.3527167,12.5013321 11.3527167,14.1742627 C11.3527167,15.5219013 11.9123174,16.6952586 13.0315356,17.69437 C14.1507538,18.6934813 15.5380972,19.5066993 17.1936075,20.1340483 C18.8491178,20.7613972 20.6445034,21.5513804 22.5798182,22.5040214 C24.515133,23.4566625 26.3105187,24.490611 27.9660289,25.6058981 C29.6215392,26.7211852 31.0088826,28.3360037 32.1281008,30.4504021 C33.247319,32.5648006 33.8069198,35.0393066 33.8069198,37.8739946 C33.8069198,42.7069053 32.2796761,46.4360905 29.2251431,49.0616622 C26.1706101,51.6872339 22.14848,53 17.1586321,53 C12.7283934,53 8.92777187,52.0938428 5.75665361,50.2815013 C2.58553535,48.4691598 1,46.4942019 1,44.3565684 Z M42.4608316,48.6085791 C42.4608316,48.5156385 42.507465,48.2832905 42.6007332,47.9115282 L56.1012353,4.06702413 C56.3810399,3.09114794 57.0688824,2.33601697 58.1647836,1.80160858 C59.2606847,1.26720019 60.508128,1 61.9071507,1 C63.3061735,1 64.5652751,1.26720019 65.6844933,1.80160858 C66.8037115,2.33601697 67.5032124,3.09114794 67.783017,4.06702413 L81.2835191,47.9115282 C81.3767873,48.2832905 81.4234207,48.5156385 81.4234207,48.6085791 C81.4234207,49.6309256 80.7938699,50.5138479 79.5347494,51.2573727 C78.2756289,52.0008974 76.9932106,52.3726542 75.6874561,52.3726542 C73.9619947,52.3726542 72.93606,51.7685494 72.6096214,50.5603217 L69.9514914,41.2895442 L53.9327609,41.2895442 L51.2746309,50.5603217 C50.9481923,51.7685494 49.9222576,52.3726542 48.1967962,52.3726542 C46.8444076,52.3726542 45.5503309,52.0125148 44.3145275,51.2922252 C43.078724,50.5719356 42.4608316,49.6773959 42.4608316,48.6085791 Z M55.8214322,34.1796247 L67.9928693,34.1796247 L61.9071507,12.7801609 L55.8214322,34.1796247 Z M92.245807,49.5147453 L92.245807,4.20643432 C92.245807,3.27702842 92.6888242,2.57998445 93.5748719,2.1152815 C94.4609197,1.65057855 95.5334877,1.41823056 96.7926082,1.41823056 C98.0517287,1.41823056 99.1242967,1.65057855 100.010344,2.1152815 C100.896392,2.57998445 101.339409,3.27702842 101.339409,4.20643432 L101.339409,44.4262735 L118.407402,44.4262735 C119.246815,44.4262735 119.911341,44.821265 120.400999,45.6112601 C120.890657,46.4012551 121.135483,47.330647 121.135483,48.3994638 C121.135483,49.4682806 120.890657,50.3976725 120.400999,51.1876676 C119.911341,51.9776626 119.246815,52.3726542 118.407402,52.3726542 L96.2330019,52.3726542 C95.1604178,52.3726542 94.2277499,52.1170714 93.4349704,51.6058981 C92.6421908,51.0947249 92.245807,50.3976809 92.245807,49.5147453 Z M121.954906,5.46112601 C121.954906,4.39230922 122.199731,3.45129987 122.689389,2.63806971 C123.179047,1.82483954 123.890207,1.41823056 124.822888,1.41823056 L154.412072,1.41823056 C155.344754,1.41823056 156.055913,1.82483954 156.545571,2.63806971 C157.035229,3.45129987 157.280054,4.39230922 157.280054,5.46112601 C157.280054,6.57641308 157.023571,7.54065724 156.510596,8.3538874 C155.997621,9.16711756 155.29812,9.57372654 154.412072,9.57372654 L144.199257,9.57372654 L144.199257,49.5147453 C144.199257,50.3976809 143.744581,51.0947249 142.835216,51.6058981 C141.925852,52.1170714 140.864942,52.3726542 139.652456,52.3726542 C138.393335,52.3726542 137.320767,52.1170714 136.434719,51.6058981 C135.548672,51.0947249 135.105654,50.3976809 135.105654,49.5147453 L135.105654,9.57372654 L124.822888,9.57372654 C123.936841,9.57372654 123.23734,9.17873496 122.724365,8.38873995 C122.21139,7.59874493 121.954906,6.62288338 121.954906,5.46112601 Z M168.242342,49.5147453 L168.242342,4.27613941 C168.242342,3.39320381 168.638726,2.69615984 169.431505,2.1849866 C170.224285,1.67381335 171.156953,1.41823056 172.229537,1.41823056 L197.132018,1.41823056 C198.0647,1.41823056 198.775859,1.81322214 199.265517,2.60321716 C199.755175,3.39321217 200,4.29936933 200,5.32171582 C200,6.4370029 199.743516,7.38962965 199.230541,8.17962466 C198.717566,8.96961968 198.018065,9.36461126 197.132018,9.36461126 L177.335945,9.36461126 L177.335945,23.30563 L187.968464,23.30563 C188.854512,23.30563 189.554013,23.6657694 190.066988,24.386059 C190.579963,25.1063486 190.836447,25.9544187 190.836447,26.9302949 C190.836447,27.8132305 190.591621,28.6148311 190.101963,29.3351206 C189.612305,30.0554102 188.901146,30.4155496 187.968464,30.4155496 L177.335945,30.4155496 L177.335945,44.4262735 L197.132018,44.4262735 C198.018065,44.4262735 198.717566,44.821265 199.230541,45.6112601 C199.743516,46.4012551 200,47.3538818 200,48.4691689 C200,49.4915154 199.755175,50.3976725 199.265517,51.1876676 C198.775859,51.9776626 198.0647,52.3726542 197.132018,52.3726542 L172.229537,52.3726542 C171.156953,52.3726542 170.224285,52.1170714 169.431505,51.6058981 C168.638726,51.0947249 168.242342,50.3976809 168.242342,49.5147453 Z"/>
    <path fill="#CA5454" fill-rule="nonzero" d="M215,49.7544098 L215,3.89280868 C215,2.99909096 215.396716,2.29353493 216.190161,1.7761194 C216.983606,1.25870388 217.917057,1 218.990541,1 L232.502372,1 C241.88369,1 246.574278,5.13926209 246.574278,13.4179104 C246.574278,19.156519 244.590696,22.895966 240.623472,24.6363636 C243.003806,25.5771191 244.800699,26.9059163 246.014202,28.6227951 C247.227706,30.3396739 247.834449,32.8443978 247.834449,36.1370421 L247.834449,37.6187246 C247.834449,42.8399176 246.574291,46.6381609 244.053937,49.0135685 C241.533583,51.3889761 238.126488,52.5766621 233.832552,52.5766621 L218.990541,52.5766621 C217.82371,52.5766621 216.866923,52.2944397 216.120152,51.7299864 C215.37338,51.1655331 215,50.5070142 215,49.7544098 Z M224.031224,44.5332429 L231.942296,44.5332429 C236.469598,44.5332429 238.733216,41.9697226 238.733216,36.8426052 L238.733216,35.7137042 C238.733216,33.0795888 238.161477,31.1745875 237.017983,29.9986431 C235.874489,28.8226988 234.18261,28.2347354 231.942296,28.2347354 L224.031224,28.2347354 L224.031224,44.5332429 Z M224.031224,21.0379919 L231.872286,21.0379919 C233.692542,21.0379919 235.08105,20.4970656 236.037851,19.4151967 C236.994652,18.3333279 237.473045,16.8516602 237.473045,14.9701493 C237.473045,13.135676 236.971315,11.6892862 235.967841,10.6309362 C234.964367,9.5725863 233.575859,9.04341927 231.802277,9.04341927 L224.031224,9.04341927 L224.031224,21.0379919 Z M260.346144,49.6838535 L260.346144,3.82225237 C260.346144,2.88149688 260.789533,2.17594084 261.676325,1.70556309 C262.563116,1.23518535 263.636584,1 264.896761,1 C266.156938,1 267.230406,1.23518535 268.117197,1.70556309 C269.003989,2.17594084 269.447378,2.88149688 269.447378,3.82225237 L269.447378,49.6838535 C269.447378,50.5775712 268.992321,51.2831272 268.082193,51.8005427 C267.172065,52.3179583 266.110265,52.5766621 264.896761,52.5766621 C263.636584,52.5766621 262.563116,52.3179583 261.676325,51.8005427 C260.789533,51.2831272 260.346144,50.5775712 260.346144,49.6838535 Z M280.488874,5.09226594 C280.488874,4.01039712 280.733905,3.05789647 281.223973,2.23473541 C281.714042,1.41157436 282.425798,1 283.359263,1 L312.973276,1 C313.90674,1 314.618496,1.41157436 315.108565,2.23473541 C315.598634,3.05789647 315.843664,4.01039712 315.843664,5.09226594 C315.843664,6.22117254 315.586966,7.19719172 315.07356,8.02035278 C314.560155,8.84351384 313.860067,9.2550882 312.973276,9.2550882 L302.751891,9.2550882 L302.751891,49.6838535 C302.751891,50.5775712 302.296833,51.2831272 301.386706,51.8005427 C300.476578,52.3179583 299.414778,52.5766621 298.201274,52.5766621 C296.941097,52.5766621 295.867629,52.3179583 294.980838,51.8005427 C294.094046,51.2831272 293.650657,50.5775712 293.650657,49.6838535 L293.650657,9.2550882 L283.359263,9.2550882 C282.472472,9.2550882 281.772384,8.85527311 281.258978,8.05563094 C280.745573,7.25598877 280.488874,6.26821031 280.488874,5.09226594 Z M326.815151,49.7544098 L326.815151,3.89280868 C326.815151,2.99909096 327.211868,2.29353493 328.005312,1.7761194 C328.798757,1.25870388 329.732208,1 330.805692,1 L344.317523,1 C353.698841,1 358.389429,5.13926209 358.389429,13.4179104 C358.389429,19.156519 356.405847,22.895966 352.438623,24.6363636 C354.818958,25.5771191 356.61585,26.9059163 357.829354,28.6227951 C359.042857,30.3396739 359.6496,32.8443978 359.6496,36.1370421 L359.6496,37.6187246 C359.6496,42.8399176 358.389442,46.6381609 355.869088,49.0135685 C353.348734,51.3889761 349.94164,52.5766621 345.647703,52.5766621 L330.805692,52.5766621 C329.638861,52.5766621 328.682074,52.2944397 327.935303,51.7299864 C327.188531,51.1655331 326.815151,50.5070142 326.815151,49.7544098 Z M335.846375,44.5332429 L343.757447,44.5332429 C348.28475,44.5332429 350.548367,41.9697226 350.548367,36.8426052 L350.548367,35.7137042 C350.548367,33.0795888 349.976629,31.1745875 348.833135,29.9986431 C347.689641,28.8226988 345.997762,28.2347354 343.757447,28.2347354 L335.846375,28.2347354 L335.846375,44.5332429 Z M335.846375,21.0379919 L343.687437,21.0379919 C345.507693,21.0379919 346.896201,20.4970656 347.853002,19.4151967 C348.809803,18.3333279 349.288196,16.8516602 349.288196,14.9701493 C349.288196,13.135676 348.786467,11.6892862 347.782992,10.6309362 C346.779518,9.5725863 345.39101,9.04341927 343.617428,9.04341927 L335.846375,9.04341927 L335.846375,21.0379919 Z M371.951267,36.8426052 L371.951267,3.82225237 C371.951267,2.88149688 372.394656,2.17594084 373.281447,1.70556309 C374.168239,1.23518535 375.241707,1 376.501884,1 C377.762061,1 378.835529,1.23518535 379.72232,1.70556309 C380.609111,2.17594084 381.0525,2.88149688 381.0525,3.82225237 L381.0525,36.8426052 C381.0525,42.2519493 383.619489,44.9565807 388.753544,44.9565807 C393.887599,44.9565807 396.454587,42.2519493 396.454587,36.8426052 L396.454587,3.82225237 C396.454587,2.88149688 396.897976,2.17594084 397.784768,1.70556309 C398.671559,1.23518535 399.745027,1 401.005204,1 C402.265381,1 403.338849,1.23518535 404.22564,1.70556309 C405.112432,2.17594084 405.555821,2.88149688 405.555821,3.82225237 L405.555821,36.8426052 C405.555821,42.3930626 404.027295,46.4735283 400.970199,49.0841248 C397.913103,51.6947213 393.840925,53 388.753544,53 C383.666162,53 379.593985,51.7064806 376.536888,49.119403 C373.479792,46.5323254 371.951267,42.4401004 371.951267,36.8426052 Z M419.257677,36.8426052 L419.257677,17.1573948 C419.257677,11.6069374 420.751198,7.52647167 423.738284,4.91587517 C426.725371,2.30527867 430.622526,1 435.429869,1 C440.330557,1 444.332726,2.2229638 447.436495,4.66892809 C450.540265,7.11489237 452.092126,10.3604501 452.092126,14.4056988 C452.092126,16.1460964 451.742082,17.3337824 451.041984,17.9687924 C450.341886,18.6038024 449.175073,18.9213026 447.54151,18.9213026 C444.554423,18.9213026 443.037566,17.9570427 442.990893,16.0284939 C442.94422,15.4170028 442.885879,14.8878358 442.815869,14.4409769 C442.74586,13.9941181 442.559169,13.4061547 442.255793,12.6770692 C441.952418,11.9479837 441.567369,11.3365018 441.100637,10.8426052 C440.633905,10.3487085 439.933817,9.9253749 439.000352,9.57259159 C438.066888,9.21980828 436.970084,9.04341927 435.709906,9.04341927 C430.809218,9.04341927 428.35891,11.7480507 428.35891,17.1573948 L428.35891,36.8426052 C428.35891,42.2519493 430.85589,44.9565807 435.849925,44.9565807 C437.343469,44.9565807 438.591959,44.7213954 439.595433,44.2510176 C440.598907,43.7806399 441.322331,43.1103617 441.765727,42.2401628 C442.209123,41.369964 442.512494,40.5938523 442.67585,39.9118046 C442.839207,39.2297569 442.94422,38.3948489 442.990893,37.4070556 C443.130913,35.4785069 444.624434,34.5142469 447.4715,34.5142469 C449.105063,34.5142469 450.283544,34.8317472 451.006979,35.4667571 C451.730414,36.1017671 452.092126,37.2894531 452.092126,39.0298507 C452.092126,43.2632505 450.540265,46.6499195 447.436495,49.1899593 C444.332726,51.7299991 440.307221,53 435.359859,53 C430.552517,53 426.667029,51.6947213 423.70328,49.0841248 C420.73953,46.4735283 419.257677,42.3930626 419.257677,36.8426052 Z M464.253774,49.6838535 L464.253774,3.82225237 C464.253774,2.88149688 464.697163,2.17594084 465.583954,1.70556309 C466.470746,1.23518535 467.544214,1 468.804391,1 C470.064568,1 471.138036,1.23518535 472.024827,1.70556309 C472.911618,2.17594084 473.355007,2.88149688 473.355007,3.82225237 L473.355007,23.0841248 L488.477057,2.34056988 C489.130482,1.44685216 489.970587,1 490.997398,1 C492.164229,1 493.331042,1.50564849 494.497872,2.51696065 C495.664703,3.52827281 496.248109,4.59836613 496.248109,5.72727273 C496.248109,6.43283935 496.061419,7.02080271 495.688034,7.49118046 L483.156336,23.2957938 L498.418404,46.7204885 C498.745116,47.1908662 498.90847,47.7317925 498.90847,48.3432836 C498.90847,49.4721902 498.336732,50.518765 497.193238,51.4830393 C496.049744,52.4473137 494.801254,52.9294437 493.44773,52.9294437 C492.047533,52.9294437 490.997402,52.3414803 490.297303,51.165536 L477.13552,31.0569878 L473.355007,35.8548168 L473.355007,49.6838535 C473.355007,50.5775712 472.89995,51.2831272 471.989822,51.8005427 C471.079695,52.3179583 470.017895,52.5766621 468.804391,52.5766621 C467.544214,52.5766621 466.470746,52.3179583 465.583954,51.8005427 C464.697163,51.2831272 464.253774,50.5775712 464.253774,49.6838535 Z M508.899824,49.6838535 L508.899824,3.89280868 C508.899824,2.99909096 509.29654,2.29353493 510.089985,1.7761194 C510.88343,1.25870388 511.81688,1 512.890365,1 L537.813742,1 C538.747206,1 539.458962,1.39981509 539.949031,2.19945726 C540.4391,2.99909943 540.684131,3.91632228 540.684131,4.95115332 C540.684131,6.08005992 540.427432,7.04431984 539.914026,7.84396201 C539.400621,8.64360418 538.700533,9.04341927 537.813742,9.04341927 L518.001057,9.04341927 L518.001057,23.1546811 L528.642499,23.1546811 C529.52929,23.1546811 530.229378,23.5192184 530.742784,24.2483039 C531.256189,24.9773894 531.512888,25.835816 531.512888,26.8236092 C531.512888,27.7173269 531.267857,28.5287164 530.777788,29.2578019 C530.287719,29.9868874 529.575963,30.3514247 528.642499,30.3514247 L518.001057,30.3514247 L518.001057,44.5332429 L537.813742,44.5332429 C538.700533,44.5332429 539.400621,44.933058 539.914026,45.7327001 C540.427432,46.5323423 540.684131,47.4966022 540.684131,48.6255088 C540.684131,49.6603399 540.4391,50.5775627 539.949031,51.3772049 C539.458962,52.1768471 538.747206,52.5766621 537.813742,52.5766621 L512.890365,52.5766621 C511.81688,52.5766621 510.88343,52.3179583 510.089985,51.8005427 C509.29654,51.2831272 508.899824,50.5775712 508.899824,49.6838535 Z M548.645209,5.09226594 C548.645209,4.01039712 548.89024,3.05789647 549.380309,2.23473541 C549.870378,1.41157436 550.582134,1 551.515598,1 L581.129611,1 C582.063076,1 582.774832,1.41157436 583.2649,2.23473541 C583.754969,3.05789647 584,4.01039712 584,5.09226594 C584,6.22117254 583.743301,7.19719172 583.229896,8.02035278 C582.71649,8.84351384 582.016402,9.2550882 581.129611,9.2550882 L570.908226,9.2550882 L570.908226,49.6838535 C570.908226,50.5775712 570.453169,51.2831272 569.543041,51.8005427 C568.632913,52.3179583 567.571113,52.5766621 566.357609,52.5766621 C565.097432,52.5766621 564.023964,52.3179583 563.137173,51.8005427 C562.250382,51.2831272 561.806993,50.5775712 561.806993,49.6838535 L561.806993,9.2550882 L551.515598,9.2550882 C550.628807,9.2550882 549.928719,8.85527311 549.415314,8.05563094 C548.901908,7.25598877 548.645209,6.26821031 548.645209,5.09226594 Z"/>
  </g>
</svg>
