<svg xmlns="http://www.w3.org/2000/svg" width="497" height="53" viewBox="0 0 497 53">
  <g fill="none" fill-rule="evenodd">
    <path fill="#242424" fill-rule="nonzero" d="M0,43.3565684 C0,42.2877516 0.408042185,41.2073334 1.2241388,40.1152815 C2.04023541,39.0232296 2.96124491,38.4772118 3.98719494,38.4772118 C4.59343814,38.4772118 5.28128068,38.7560294 6.0507432,39.3136729 C6.82020572,39.8713165 7.56634,40.4870386 8.28916842,41.1608579 C9.01199685,41.8346772 10.0495898,42.4503994 11.4019785,43.0080429 C12.7543672,43.5656864 14.2466357,43.844504 15.878829,43.844504 C18.1172654,43.844504 19.9826011,43.3333384 21.474892,42.310992 C22.967183,41.2886455 23.7133173,39.7783835 23.7133173,37.7801609 C23.7133173,36.386052 23.3052751,35.1429903 22.4891785,34.0509383 C21.6730819,32.9588864 20.6005138,32.0527292 19.2714422,31.3324397 C17.9423706,30.6121501 16.4850771,29.9151061 14.8995179,29.2412869 C13.3139588,28.5674676 11.7167651,27.8123366 10.1078889,26.9758713 C8.49901275,26.139406 7.03006088,25.1983966 5.70098925,24.152815 C4.37191763,23.1072334 3.2993496,21.7131454 2.48325299,19.9705094 C1.66715638,18.2278733 1.25911419,16.241298 1.25911419,14.0107239 C1.25911419,11.5477982 1.76042316,9.37534453 2.76305614,7.49329759 C3.76568912,5.61125064 5.10639916,4.14745831 6.78522647,3.10187668 C8.46405379,2.05629504 10.2594394,1.28954668 12.1714372,0.801608579 C14.083435,0.313670483 16.1119875,0.0697050938 18.2571558,0.0697050938 C19.4696422,0.0697050938 20.7520605,0.15102689 22.1044491,0.313672922 C23.4568378,0.476318954 24.8908146,0.743519142 26.4064226,1.1152815 C27.9220306,1.48704386 29.1578155,2.06791383 30.1138144,2.85790885 C31.0698133,3.64790386 31.5478056,4.57729582 31.5478056,5.6461126 C31.5478056,6.66845909 31.2213718,7.72564244 30.5684945,8.81769437 C29.9156172,9.9097463 29.0295828,10.4557641 27.9103646,10.4557641 C27.4906577,10.4557641 26.3481396,10.0143029 24.4827759,9.13136729 C22.6174123,8.24843169 20.5422263,7.80697051 18.2571558,7.80697051 C15.7389148,7.80697051 13.7919707,8.28328389 12.4162649,9.23592493 C11.0405592,10.188566 10.3527167,11.5013321 10.3527167,13.1742627 C10.3527167,14.5219013 10.9123174,15.6952586 12.0315356,16.69437 C13.1507538,17.6934813 14.5380972,18.5066993 16.1936075,19.1340483 C17.8491178,19.7613972 19.6445034,20.5513804 21.5798182,21.5040214 C23.515133,22.4566625 25.3105187,23.490611 26.9660289,24.6058981 C28.6215392,25.7211852 30.0088826,27.3360037 31.1281008,29.4504021 C32.247319,31.5648006 32.8069198,34.0393066 32.8069198,36.8739946 C32.8069198,41.7069053 31.2796761,45.4360905 28.2251431,48.0616622 C25.1706101,50.6872339 21.14848,52 16.1586321,52 C11.7283934,52 7.92777187,51.0938428 4.75665361,49.2815013 C1.58553535,47.4691598 0,45.4942019 0,43.3565684 Z M41.4608316,47.6085791 C41.4608316,47.5156385 41.507465,47.2832905 41.6007332,46.9115282 L55.1012353,3.06702413 C55.3810399,2.09114794 56.0688824,1.33601697 57.1647836,0.801608579 C58.2606847,0.267200188 59.508128,0 60.9071507,0 C62.3061735,0 63.5652751,0.267200188 64.6844933,0.801608579 C65.8037115,1.33601697 66.5032124,2.09114794 66.783017,3.06702413 L80.2835191,46.9115282 C80.3767873,47.2832905 80.4234207,47.5156385 80.4234207,47.6085791 C80.4234207,48.6309256 79.7938699,49.5138479 78.5347494,50.2573727 C77.2756289,51.0008974 75.9932106,51.3726542 74.6874561,51.3726542 C72.9619947,51.3726542 71.93606,50.7685494 71.6096214,49.5603217 L68.9514914,40.2895442 L52.9327609,40.2895442 L50.2746309,49.5603217 C49.9481923,50.7685494 48.9222576,51.3726542 47.1967962,51.3726542 C45.8444076,51.3726542 44.5503309,51.0125148 43.3145275,50.2922252 C42.078724,49.5719356 41.4608316,48.6773959 41.4608316,47.6085791 Z M54.8214322,33.1796247 L66.9928693,33.1796247 L60.9071507,11.7801609 L54.8214322,33.1796247 Z M91.245807,48.5147453 L91.245807,3.20643432 C91.245807,2.27702842 91.6888242,1.57998445 92.5748719,1.1152815 C93.4609197,0.650578552 94.5334877,0.418230563 95.7926082,0.418230563 C97.0517287,0.418230563 98.1242967,0.650578552 99.0103445,1.1152815 C99.8963922,1.57998445 100.339409,2.27702842 100.339409,3.20643432 L100.339409,43.4262735 L117.407402,43.4262735 C118.246815,43.4262735 118.911341,43.821265 119.400999,44.6112601 C119.890657,45.4012551 120.135483,46.330647 120.135483,47.3994638 C120.135483,48.4682806 119.890657,49.3976725 119.400999,50.1876676 C118.911341,50.9776626 118.246815,51.3726542 117.407402,51.3726542 L95.2330019,51.3726542 C94.1604178,51.3726542 93.2277499,51.1170714 92.4349704,50.6058981 C91.6421908,50.0947249 91.245807,49.3976809 91.245807,48.5147453 Z M120.954906,4.46112601 C120.954906,3.39230922 121.199731,2.45129987 121.689389,1.63806971 C122.179047,0.824839544 122.890207,0.418230563 123.822888,0.418230563 L153.412072,0.418230563 C154.344754,0.418230563 155.055913,0.824839544 155.545571,1.63806971 C156.035229,2.45129987 156.280054,3.39230922 156.280054,4.46112601 C156.280054,5.57641308 156.023571,6.54065724 155.510596,7.3538874 C154.997621,8.16711756 154.29812,8.57372654 153.412072,8.57372654 L143.199257,8.57372654 L143.199257,48.5147453 C143.199257,49.3976809 142.744581,50.0947249 141.835216,50.6058981 C140.925852,51.1170714 139.864942,51.3726542 138.652456,51.3726542 C137.393335,51.3726542 136.320767,51.1170714 135.434719,50.6058981 C134.548672,50.0947249 134.105654,49.3976809 134.105654,48.5147453 L134.105654,8.57372654 L123.822888,8.57372654 C122.936841,8.57372654 122.23734,8.17873496 121.724365,7.38873995 C121.21139,6.59874493 120.954906,5.62288338 120.954906,4.46112601 Z M167.242342,48.5147453 L167.242342,3.27613941 C167.242342,2.39320381 167.638726,1.69615984 168.431505,1.1849866 C169.224285,0.673813351 170.156953,0.418230563 171.229537,0.418230563 L196.132018,0.418230563 C197.0647,0.418230563 197.775859,0.813222145 198.265517,1.60321716 C198.755175,2.39321217 199,3.29936933 199,4.32171582 C199,5.4370029 198.743516,6.38962965 198.230541,7.17962466 C197.717566,7.96961968 197.018065,8.36461126 196.132018,8.36461126 L176.335945,8.36461126 L176.335945,22.30563 L186.968464,22.30563 C187.854512,22.30563 188.554013,22.6657694 189.066988,23.386059 C189.579963,24.1063486 189.836447,24.9544187 189.836447,25.9302949 C189.836447,26.8132305 189.591621,27.6148311 189.101963,28.3351206 C188.612305,29.0554102 187.901146,29.4155496 186.968464,29.4155496 L176.335945,29.4155496 L176.335945,43.4262735 L196.132018,43.4262735 C197.018065,43.4262735 197.717566,43.821265 198.230541,44.6112601 C198.743516,45.4012551 199,46.3538818 199,47.4691689 C199,48.4915154 198.755175,49.3976725 198.265517,50.1876676 C197.775859,50.9776626 197.0647,51.3726542 196.132018,51.3726542 L171.229537,51.3726542 C170.156953,51.3726542 169.224285,51.1170714 168.431505,50.6058981 C167.638726,50.0947249 167.242342,49.3976809 167.242342,48.5147453 Z"/>
    <path fill="#CA5454" fill-rule="nonzero" d="M214,35.8426052 L214,16.1573948 C214,10.6069374 215.494639,6.52647167 218.483961,3.91587517 C221.473283,1.30527867 225.373356,0 230.184297,0 C235.088654,0 239.093819,1.2229638 242.199912,3.66892809 C245.306004,6.11489237 246.859027,9.36045015 246.859027,13.4056988 C246.859027,15.1460964 246.508721,16.3337824 245.808099,16.9687924 C245.107477,17.6038024 243.93979,17.9213026 242.305004,17.9213026 C239.315682,17.9213026 237.79769,16.9570427 237.750981,15.0284939 C237.704273,14.4170028 237.645889,13.8878358 237.575827,13.4409769 C237.505764,12.9941181 237.318935,12.4061547 237.015332,11.6770692 C236.711729,10.9479837 236.326392,10.3365018 235.85931,9.84260516 C235.392229,9.34870852 234.691617,8.9253749 233.757454,8.57259159 C232.82329,8.21980828 231.725665,8.04341927 230.464545,8.04341927 C225.560188,8.04341927 223.108046,10.7480507 223.108046,16.1573948 L223.108046,35.8426052 C223.108046,41.2519493 225.606895,43.9565807 230.604668,43.9565807 C232.09933,43.9565807 233.348754,43.7213954 234.35298,43.2510176 C235.357205,42.7806399 236.081171,42.1103617 236.524898,41.2401628 C236.968626,40.369964 237.272224,39.5938523 237.435703,38.9118046 C237.599181,38.2297569 237.704273,37.3948489 237.750981,36.4070556 C237.891106,34.4785069 239.385745,33.5142469 242.234943,33.5142469 C243.869728,33.5142469 245.049092,33.8317472 245.773068,34.4667571 C246.497045,35.1017671 246.859027,36.2894531 246.859027,38.0298507 C246.859027,42.2632505 245.306004,45.6499195 242.199912,48.1899593 C239.093819,50.7299991 235.0653,52 230.114235,52 C225.303295,52 221.414898,50.6947213 218.44893,48.0841248 C215.482962,45.4735283 214,41.3930626 214,35.8426052 Z M258.469284,35.8426052 L258.469284,16.1573948 C258.469284,10.5598996 259.952246,6.46767463 262.918214,3.88059701 C265.884182,1.2935194 269.865993,0 274.863767,0 C279.86154,0 283.855028,1.2935194 286.84435,3.88059701 C289.833672,6.46767463 291.328311,10.5598996 291.328311,16.1573948 L291.328311,35.8426052 C291.328311,41.4401004 289.833672,45.5323254 286.84435,48.119403 C283.855028,50.7064806 279.86154,52 274.863767,52 C269.865993,52 265.884182,50.7064806 262.918214,48.119403 C259.952246,45.5323254 258.469284,41.4401004 258.469284,35.8426052 Z M267.57733,35.8426052 C267.57733,41.2519493 270.006118,43.9565807 274.863767,43.9565807 C279.768124,43.9565807 282.220265,41.2519493 282.220265,35.8426052 L282.220265,16.1573948 C282.220265,10.7480507 279.768124,8.04341927 274.863767,8.04341927 C270.006118,8.04341927 267.57733,10.7480507 267.57733,16.1573948 L267.57733,35.8426052 Z M304.549991,35.8426052 L304.549991,16.1573948 C304.549991,10.6069374 306.032953,6.52647167 308.998921,3.91587517 C311.96489,1.30527867 315.853286,0 320.664226,0 C325.615291,0 329.64381,1.2229638 332.749903,3.66892809 C335.855995,6.11489237 337.409019,9.40748722 337.409019,13.5468114 C337.409019,15.2401713 337.047036,16.3925795 336.323059,17.0040706 C335.599083,17.6155616 334.443073,17.9213026 332.854996,17.9213026 C329.865673,17.9213026 328.347681,16.9570427 328.300973,15.0284939 C328.160848,12.9588318 327.577005,11.2772566 326.549425,9.98371777 C325.521846,8.69017897 323.676901,8.04341927 321.014536,8.04341927 C316.110179,8.04341927 313.658037,10.7480507 313.658037,16.1573948 L313.658037,35.8426052 C313.658037,41.2519493 316.086825,43.9565807 320.944474,43.9565807 C323.279882,43.9565807 325.089796,43.2745432 326.374271,41.9104478 C327.658745,40.5463523 328.300973,38.5237583 328.300973,35.8426052 L328.300973,31.6797829 L322.625959,31.6797829 C321.738504,31.6797829 321.049569,31.3270049 320.559134,30.6214383 C320.068698,29.9158716 319.823484,29.0692044 319.823484,28.0814111 C319.823484,27.1406556 320.080375,26.3057477 320.594164,25.5766621 C321.107954,24.8475766 321.785212,24.4830393 322.625959,24.4830393 L334.536481,24.4830393 C335.423936,24.4830393 336.124548,24.777021 336.638338,25.3649932 C337.152128,25.9529654 337.409019,26.6467622 337.409019,27.4464043 L337.409019,35.8426052 C337.409019,41.4401004 335.91438,45.5323254 332.925057,48.119403 C329.935735,50.7064806 325.942247,52 320.944474,52 C315.946701,52 311.96489,50.7064806 308.998921,48.119403 C306.032953,45.5323254 304.549991,41.4401004 304.549991,35.8426052 Z M350.630698,48.6838535 L350.630698,2.89280868 C350.630698,1.95205319 351.074419,1.23473788 351.961874,0.740841248 C352.84933,0.246944613 353.923601,0 355.184721,0 C356.866215,0 358.15067,0.30574095 359.038126,0.917232022 C359.925581,1.52872309 360.906437,2.84576103 361.980725,4.86838535 L375.50267,31.1858887 L375.50267,2.82225237 C375.50267,1.88149688 375.946391,1.17594084 376.833846,0.705563094 C377.721301,0.235185346 378.795573,0 380.056693,0 C381.317814,0 382.392085,0.235185346 383.27954,0.705563094 C384.166995,1.17594084 384.610716,1.88149688 384.610716,2.82225237 L384.610716,48.6838535 C384.610716,49.5775712 384.155318,50.2831272 383.244509,50.8005427 C382.3337,51.3179583 381.271105,51.5766621 380.056693,51.5766621 C377.581161,51.5766621 375.829631,50.6124022 374.802051,48.6838535 L359.738744,20.3202171 L359.738744,48.6838535 C359.738744,49.5775712 359.283347,50.2831272 358.372538,50.8005427 C357.461728,51.3179583 356.399134,51.5766621 355.184721,51.5766621 C353.923601,51.5766621 352.84933,51.3179583 351.961874,50.8005427 C351.074419,50.2831272 350.630698,49.5775712 350.630698,48.6838535 Z M399.023448,48.6838535 L399.023448,2.82225237 C399.023448,1.88149688 399.467169,1.17594084 400.354624,0.705563094 C401.242079,0.235185346 402.316351,0 403.577471,0 C404.838592,0 405.912863,0.235185346 406.800318,0.705563094 C407.687773,1.17594084 408.131494,1.88149688 408.131494,2.82225237 L408.131494,48.6838535 C408.131494,49.5775712 407.676097,50.2831272 406.765287,50.8005427 C405.854478,51.3179583 404.791883,51.5766621 403.577471,51.5766621 C402.316351,51.5766621 401.242079,51.3179583 400.354624,50.8005427 C399.467169,50.2831272 399.023448,49.5775712 399.023448,48.6838535 Z M419.181256,4.09226594 C419.181256,3.01039712 419.42647,2.05789647 419.916905,1.23473541 C420.407341,0.411574355 421.11963,0 422.053793,0 L451.689973,0 C452.624137,0 453.336425,0.411574355 453.826861,1.23473541 C454.317297,2.05789647 454.562511,3.01039712 454.562511,4.09226594 C454.562511,5.22117254 454.30562,6.19719172 453.79183,7.02035278 C453.27804,7.84351384 452.577429,8.2550882 451.689973,8.2550882 L441.460937,8.2550882 L441.460937,48.6838535 C441.460937,49.5775712 441.005539,50.2831272 440.09473,50.8005427 C439.183921,51.3179583 438.121326,51.5766621 436.906914,51.5766621 C435.645794,51.5766621 434.571522,51.3179583 433.684067,50.8005427 C432.796612,50.2831272 432.352891,49.5775712 432.352891,48.6838535 L432.352891,8.2550882 L422.053793,8.2550882 C421.166338,8.2550882 420.465726,7.85527311 419.951936,7.05563094 C419.438147,6.25598877 419.181256,5.26821031 419.181256,4.09226594 Z M464.140973,35.8426052 L464.140973,16.1573948 C464.140973,10.5598996 465.623934,6.46767463 468.589903,3.88059701 C471.555871,1.2935194 475.537682,0 480.535455,0 C485.533229,0 489.526717,1.2935194 492.516039,3.88059701 C495.505361,6.46767463 497,10.5598996 497,16.1573948 L497,35.8426052 C497,41.4401004 495.505361,45.5323254 492.516039,48.119403 C489.526717,50.7064806 485.533229,52 480.535455,52 C475.537682,52 471.555871,50.7064806 468.589903,48.119403 C465.623934,45.5323254 464.140973,41.4401004 464.140973,35.8426052 Z M473.249019,35.8426052 C473.249019,41.2519493 475.677807,43.9565807 480.535455,43.9565807 C485.439812,43.9565807 487.891954,41.2519493 487.891954,35.8426052 L487.891954,16.1573948 C487.891954,10.7480507 485.439812,8.04341927 480.535455,8.04341927 C475.677807,8.04341927 473.249019,10.7480507 473.249019,16.1573948 L473.249019,35.8426052 Z"/>
  </g>
</svg>
