<svg xmlns="http://www.w3.org/2000/svg" width="497" height="53" viewBox="0 0 497 53">
  <g fill="none" fill-rule="evenodd">
    <path fill="#242424" fill-rule="nonzero" d="M17.1586321,53 C22.148455,53 26.1706254,51.6872207 29.2251431,49.0616622 C32.2796609,46.4361037 33.8069198,42.7068811 33.8069198,37.8739946 C33.8069198,35.0393208 33.2473134,32.56479 32.1281008,30.4504021 C31.0088882,28.3360143 29.6215309,26.7211796 27.9660289,25.6058981 C26.3105269,24.4906166 24.5151234,23.4566577 22.5798182,22.5040214 C20.6445131,21.5513852 18.8491095,20.7613941 17.1936075,20.1340483 C15.5381055,19.5067024 14.1507482,18.6934763 13.0315356,17.69437 C11.912323,16.6952636 11.3527167,15.5218945 11.3527167,14.1742627 C11.3527167,12.5013405 12.0405661,11.1885612 13.4162649,10.2359249 C14.7919638,9.28328865 16.7389274,8.80697051 19.2571558,8.80697051 C21.5422149,8.80697051 23.6174216,9.2484361 25.4827759,10.1313673 C27.3481303,11.0142985 28.4906598,11.4557641 28.9103646,11.4557641 C30.0295772,11.4557641 30.9156205,10.9097408 31.5684945,9.81769437 C32.2213686,8.7256479 32.5478056,7.66845398 32.5478056,6.6461126 C32.5478056,5.57730116 32.0698085,4.64789991 31.1138144,3.85790885 C30.1578203,3.06791778 28.922023,2.487042 27.4064226,2.1152815 C25.8908222,1.743521 24.456831,1.47631814 23.1044491,1.31367292 C21.7520672,1.1510277 20.4696361,1.06970509 19.2571558,1.06970509 C17.1119983,1.06970509 15.0834254,1.31367292 13.1714372,1.80160858 C11.259449,2.28954424 9.4640454,3.05630027 7.78522647,4.10187668 C6.10640755,5.14745308 4.76568411,6.61126005 3.76305614,8.49329759 C2.76042817,10.3753351 2.25911419,12.5478105 2.25911419,15.0107239 C2.25911419,17.2412869 2.66716046,19.227882 3.48325299,20.9705094 C4.29934552,22.7131367 5.37192427,24.1072386 6.70098925,25.152815 C8.03005423,26.1983914 9.49902079,27.1394102 11.1078889,27.9758713 C12.7167571,28.8123324 14.3139667,29.567471 15.8995179,30.2412869 C17.4850691,30.9151028 18.9423772,31.6121537 20.2714422,32.3324397 C21.6005072,33.0527256 22.6730859,33.9588919 23.4891785,35.0509383 C24.305271,36.1429848 24.7133173,37.386059 24.7133173,38.7801609 C24.7133173,40.7783735 23.9671755,42.2886506 22.474892,43.310992 C20.9826086,44.3333333 19.1172542,44.844504 16.878829,44.844504 C15.2466439,44.844504 13.7543604,44.5656836 12.4019785,44.0080429 C11.0495966,43.4504021 10.0119932,42.8346738 9.28916842,42.1608579 C8.56634361,41.487042 7.82020187,40.8713137 7.0507432,40.3136729 C6.28128452,39.7560322 5.5934351,39.4772118 4.98719494,39.4772118 C3.96125004,39.4772118 3.04023133,40.023235 2.2241388,41.1152815 C1.40804627,42.207328 1,43.2877569 1,44.3565684 C1,46.4941912 2.5855512,48.4691689 5.75665361,50.2815013 C8.92775602,52.0938338 12.7284155,53 17.1586321,53 Z M75.6874561,52.3726542 C76.9932041,52.3726542 78.2756352,52.0008937 79.5347494,51.2573727 C80.7938636,50.5138517 81.4234207,49.6309205 81.4234207,48.6085791 C81.4234207,48.515639 81.3767869,48.2832887 81.2835191,47.9115282 L81.2835191,47.9115282 L67.783017,4.06702413 C67.5032138,3.09115282 66.8037059,2.3360143 65.6844933,1.80160858 C64.5652807,1.26720286 63.3061665,1 61.9071507,1 C60.508135,1 59.2606793,1.26720286 58.1647836,1.80160858 C57.0688879,2.3360143 56.3810385,3.09115282 56.1012353,4.06702413 L56.1012353,4.06702413 L42.6007332,47.9115282 C42.5074654,48.2832887 42.4608316,48.515639 42.4608316,48.6085791 C42.4608316,49.6773905 43.0787302,50.5719392 44.3145275,51.2922252 C45.5503247,52.0125112 46.8444143,52.3726542 48.1967962,52.3726542 C49.922249,52.3726542 50.9481939,51.7685433 51.2746309,50.5603217 L51.2746309,50.5603217 L53.9327609,41.2895442 L69.9514914,41.2895442 L72.6096214,50.5603217 C72.9360584,51.7685433 73.9620033,52.3726542 75.6874561,52.3726542 Z M67.9928693,34.1796247 L55.8214322,34.1796247 L61.9071507,12.7801609 L67.9928693,34.1796247 Z M118.407402,52.3726542 C119.246811,52.3726542 119.911344,51.9776586 120.400999,51.1876676 C120.890655,50.3976765 121.135483,49.4682752 121.135483,48.3994638 C121.135483,47.3306524 120.890655,46.4012511 120.400999,45.6112601 C119.911344,44.821269 119.246811,44.4262735 118.407402,44.4262735 L118.407402,44.4262735 L101.339409,44.4262735 L101.339409,4.20643432 C101.339409,3.27703307 100.896388,2.57998213 100.010344,2.1152815 C99.1243012,1.65058088 98.0517224,1.41823056 96.7926082,1.41823056 C95.533494,1.41823056 94.4609153,1.65058088 93.5748719,2.1152815 C92.6888286,2.57998213 92.245807,3.27703307 92.245807,4.20643432 L92.245807,4.20643432 L92.245807,49.5147453 C92.245807,50.3976765 92.6421948,51.0947274 93.4349704,51.6058981 C94.227746,52.1170688 95.1604232,52.3726542 96.2330019,52.3726542 L96.2330019,52.3726542 L118.407402,52.3726542 Z M139.652456,52.3726542 C140.864936,52.3726542 141.925856,52.1170688 142.835216,51.6058981 C143.744577,51.0947274 144.199257,50.3976765 144.199257,49.5147453 L144.199257,49.5147453 L144.199257,9.57372654 L154.412072,9.57372654 C155.298115,9.57372654 155.997623,9.16711349 156.510596,8.3538874 C157.023568,7.5406613 157.280054,6.57640751 157.280054,5.46112601 C157.280054,4.39231457 157.035226,3.4512958 156.545571,2.63806971 C156.055915,1.82484361 155.344749,1.41823056 154.412072,1.41823056 L154.412072,1.41823056 L124.822888,1.41823056 C123.890211,1.41823056 123.179045,1.82484361 122.689389,2.63806971 C122.199734,3.4512958 121.954906,4.39231457 121.954906,5.46112601 C121.954906,6.62287757 122.211392,7.59874888 122.724365,8.38873995 C123.237337,9.17873101 123.936845,9.57372654 124.822888,9.57372654 L124.822888,9.57372654 L135.105654,9.57372654 L135.105654,49.5147453 C135.105654,50.3976765 135.548676,51.0947274 136.434719,51.6058981 C137.320763,52.1170688 138.393341,52.3726542 139.652456,52.3726542 Z M197.132018,52.3726542 C198.064695,52.3726542 198.775861,51.9776586 199.265517,51.1876676 C199.755172,50.3976765 200,49.4915103 200,48.4691689 C200,47.3538874 199.743514,46.4012511 199.230541,45.6112601 C198.717569,44.821269 198.018061,44.4262735 197.132018,44.4262735 L197.132018,44.4262735 L177.335945,44.4262735 L177.335945,30.4155496 L187.968464,30.4155496 C188.901142,30.4155496 189.612308,30.0554066 190.101963,29.3351206 C190.591619,28.6148347 190.836447,27.8132261 190.836447,26.9302949 C190.836447,25.9544236 190.57996,25.106345 190.066988,24.386059 C189.554016,23.665773 188.854508,23.30563 187.968464,23.30563 L187.968464,23.30563 L177.335945,23.30563 L177.335945,9.36461126 L197.132018,9.36461126 C198.018061,9.36461126 198.717569,8.96961573 199.230541,8.17962466 C199.743514,7.3896336 200,6.43699732 200,5.32171582 C200,4.29937444 199.755172,3.39320822 199.265517,2.60321716 C198.775861,1.81322609 198.064695,1.41823056 197.132018,1.41823056 L197.132018,1.41823056 L172.229537,1.41823056 C171.156958,1.41823056 170.224281,1.67381591 169.431505,2.1849866 C168.63873,2.69615728 168.242342,3.39320822 168.242342,4.27613941 L168.242342,4.27613941 L168.242342,49.5147453 C168.242342,50.3976765 168.63873,51.0947274 169.431505,51.6058981 C170.224281,52.1170688 171.156958,52.3726542 172.229537,52.3726542 L172.229537,52.3726542 L197.132018,52.3726542 Z"/>
    <path fill="#CA5454" fill-rule="nonzero" d="M231.385229,52.3718121 C236.380157,52.3718121 240.371431,51.09217 243.359051,48.5328859 C246.346671,45.9736018 247.840481,41.9252796 247.840481,36.3879195 L247.840481,36.3879195 L247.840481,17.3328859 C247.840481,11.7955257 246.346671,7.74720358 243.359051,5.18791946 C240.371431,2.62863535 236.380157,1.34899329 231.385229,1.34899329 L231.385229,1.34899329 L218.991274,1.34899329 C217.824235,1.34899329 216.867263,1.62818792 216.120358,2.18657718 C215.373453,2.74496644 215,3.39642058 215,4.1409396 L215,4.1409396 L215,49.5798658 C215,50.3243848 215.373453,50.9758389 216.120358,51.5342282 C216.867263,52.0926174 217.824235,52.3718121 218.991274,52.3718121 L218.991274,52.3718121 L231.385229,52.3718121 Z M231.385229,44.4147651 L224.102905,44.4147651 L224.102905,9.30604027 L231.385229,9.30604027 C236.286794,9.30604027 238.737576,11.9816555 238.737576,17.3328859 L238.737576,17.3328859 L238.737576,36.3879195 C238.737576,41.7391499 236.286794,44.4147651 231.385229,44.4147651 L231.385229,44.4147651 Z M266.16633,52.3718121 C267.38005,52.3718121 268.442056,52.1158837 269.352346,51.6040268 C270.262637,51.09217 270.717782,50.3941834 270.717782,49.5100671 L270.717782,49.5100671 L270.717782,4.1409396 C270.717782,3.21029083 270.274307,2.51230425 269.387358,2.04697987 C268.500408,1.58165548 267.426732,1.34899329 266.16633,1.34899329 C264.905927,1.34899329 263.832251,1.58165548 262.945302,2.04697987 C262.058352,2.51230425 261.614877,3.21029083 261.614877,4.1409396 L261.614877,4.1409396 L261.614877,49.5100671 C261.614877,50.3941834 262.058352,51.09217 262.945302,51.6040268 C263.832251,52.1158837 264.905927,52.3718121 266.16633,52.3718121 Z M298.776737,53 C303.771665,53 307.79795,51.6854586 310.855592,49.0563758 C313.913235,46.4272931 315.442056,42.6930649 315.442056,37.8536913 C315.442056,35.0152125 314.881877,32.5373602 313.76152,30.4201342 C312.641162,28.3029083 311.252386,26.685906 309.59519,25.5691275 C307.937994,24.452349 306.140754,23.4170022 304.203469,22.4630872 C302.266184,21.5091723 300.468944,20.7181208 298.811748,20.0899329 C297.154553,19.461745 295.765776,18.6474273 294.645419,17.6469799 C293.525061,16.6465324 292.964882,15.4715884 292.964882,14.1221477 C292.964882,12.4469799 293.653435,11.1324385 295.030542,10.1785235 C296.407648,9.2246085 298.356603,8.74765101 300.877408,8.74765101 C303.164804,8.74765101 305.242134,9.18970917 307.109397,10.0738255 C308.976659,10.9579418 310.120358,11.4 310.540492,11.4 C311.660849,11.4 312.547799,10.8532438 313.201341,9.75973154 C313.854883,8.66621924 314.181654,7.60760626 314.181654,6.58389262 C314.181654,5.51364653 313.703168,4.58299776 312.746196,3.79194631 C311.789224,3.00089485 310.552162,2.41923937 309.035011,2.04697987 C307.51786,1.67472036 306.082402,1.40715884 304.728637,1.2442953 C303.374871,1.08143177 302.091128,1 300.877408,1 C298.730056,1 296.699408,1.2442953 294.785463,1.73288591 C292.871519,2.22147651 291.074279,2.98926174 289.393743,4.03624161 C287.713206,5.08322148 286.371111,6.54899329 285.367458,8.43355705 C284.363804,10.3181208 283.861977,12.4935123 283.861977,14.9597315 C283.861977,17.1932886 284.270441,19.1825503 285.087368,20.9275168 C285.904296,22.6724832 286.977972,24.0684564 288.308396,25.1154362 C289.638821,26.1624161 291.10929,27.104698 292.719804,27.9422819 C294.330318,28.7798658 295.929162,29.5360179 297.516335,30.2107383 C299.103508,30.8854586 300.562307,31.5834452 301.892732,32.304698 C303.223156,33.0259508 304.296832,33.9333333 305.11376,35.0268456 C305.930687,36.1203579 306.339151,37.3651007 306.339151,38.7610738 C306.339151,40.7619687 305.592246,42.2742729 304.098436,43.2979866 C302.604626,44.3217002 300.737363,44.833557 298.496648,44.833557 C296.862793,44.833557 295.368983,44.5543624 294.015218,43.9959732 C292.661452,43.4375839 291.622787,42.8210291 290.899223,42.1463087 C290.175659,41.4715884 289.428754,40.8550336 288.658508,40.2966443 C287.888262,39.738255 287.199709,39.4590604 286.592849,39.4590604 C285.565854,39.4590604 284.643893,40.0058166 283.826966,41.0993289 C283.010039,42.1928412 282.601575,43.2747204 282.601575,44.3449664 C282.601575,46.4854586 284.188748,48.4630872 287.363095,50.2778523 C290.537441,52.0926174 294.341989,53 298.776737,53 Z M343.290944,52.790604 C348.23919,52.790604 352.265475,51.5342282 355.369799,49.0214765 C358.474123,46.5087248 360.026285,43.1583893 360.026285,38.9704698 C360.026285,37.2487696 359.664503,36.0738255 358.940939,35.4456376 C358.217374,34.8174497 357.038665,34.5033557 355.40481,34.5033557 C352.557235,34.5033557 351.063424,35.4572707 350.92338,37.3651007 C350.876698,38.3422819 350.771665,39.1682327 350.608279,39.842953 C350.444894,40.5176734 350.141464,41.2854586 349.697989,42.1463087 C349.254514,43.0071588 348.53095,43.6702461 347.527296,44.1355705 C346.523642,44.6008949 345.27491,44.833557 343.7811,44.833557 C338.786173,44.833557 336.288709,42.1579418 336.288709,36.8067114 L336.288709,36.8067114 L336.288709,17.3328859 C336.288709,11.9816555 338.739491,9.30604027 343.641056,9.30604027 C344.901458,9.30604027 345.998475,9.48053691 346.932106,9.8295302 C347.865737,10.1785235 348.565961,10.5973154 349.032776,11.085906 C349.499592,11.5744966 349.884715,12.1794183 350.188145,12.9006711 C350.491575,13.6219239 350.678302,14.2035794 350.748324,14.6456376 C350.818346,15.0876957 350.876698,15.6111857 350.92338,16.2161074 C350.970061,18.1239374 352.487212,19.0778523 355.474832,19.0778523 C357.108687,19.0778523 358.275726,18.7637584 358.97595,18.1355705 C359.676173,17.5073826 360.026285,16.3324385 360.026285,14.6107383 C360.026285,10.6089485 358.474123,7.39821029 355.369799,4.97852349 C352.265475,2.55883669 348.262531,1.34899329 343.360966,1.34899329 C338.552765,1.34899329 334.654854,2.64026846 331.667234,5.22281879 C328.679614,7.80536913 327.185804,11.8420582 327.185804,17.3328859 L327.185804,17.3328859 L327.185804,36.8067114 C327.185804,42.2975391 328.667944,46.3342282 331.632223,48.9167785 C334.596502,51.4993289 338.482743,52.790604 343.290944,52.790604 Z M388.015218,52.790604 C393.010145,52.790604 397.001419,51.510962 399.989039,48.9516779 C402.976659,46.3923937 404.470469,42.3440716 404.470469,36.8067114 L404.470469,36.8067114 L404.470469,17.3328859 C404.470469,11.7955257 402.976659,7.74720358 399.989039,5.18791946 C397.001419,2.62863535 393.010145,1.34899329 388.015218,1.34899329 C383.02029,1.34899329 379.040687,2.62863535 376.076407,5.18791946 C373.112128,7.74720358 371.629988,11.7955257 371.629988,17.3328859 L371.629988,17.3328859 L371.629988,36.8067114 C371.629988,42.3440716 373.112128,46.3923937 376.076407,48.9516779 C379.040687,51.510962 383.02029,52.790604 388.015218,52.790604 Z M388.015218,44.833557 C383.160335,44.833557 380.732893,42.1579418 380.732893,36.8067114 L380.732893,36.8067114 L380.732893,17.3328859 C380.732893,11.9816555 383.160335,9.30604027 388.015218,9.30604027 C392.916782,9.30604027 395.367564,11.9816555 395.367564,17.3328859 L395.367564,17.3328859 L395.367564,36.8067114 C395.367564,42.1579418 392.916782,44.833557 388.015218,44.833557 Z M446.323827,52.7208054 C447.677592,52.7208054 448.961335,52.2205817 450.175056,51.2201342 C451.388777,50.2196868 451.995637,49.1378076 451.995637,47.9744966 C451.995637,47.5091723 451.878933,47.1369128 451.645525,46.8577181 L451.645525,46.8577181 L442.472598,29.8966443 C445.273492,29.0590604 447.502536,27.4769575 449.159732,25.1503356 C450.816927,22.8237136 451.645525,19.7525727 451.645525,15.9369128 C451.645525,6.21163311 446.11376,1.34899329 435.050229,1.34899329 L435.050229,1.34899329 L421.185804,1.34899329 C420.345536,1.34899329 419.645312,1.62818792 419.085134,2.18657718 C418.524955,2.74496644 418.244865,3.39642058 418.244865,4.1409396 L418.244865,4.1409396 L418.244865,49.5100671 C418.244865,50.3941834 418.700011,51.09217 419.610301,51.6040268 C420.520592,52.1158837 421.582597,52.3718121 422.796318,52.3718121 C424.05672,52.3718121 425.130396,52.1158837 426.017346,51.6040268 C426.904296,51.09217 427.347771,50.3941834 427.347771,49.5100671 L427.347771,49.5100671 L427.347771,31.2926174 L433.229648,31.2926174 L443.172821,50.557047 C443.919726,51.9995526 444.970061,52.7208054 446.323827,52.7208054 Z M435.050229,24.1731544 L427.347771,24.1731544 L427.347771,9.30604027 L435.050229,9.30604027 C440.045156,9.30604027 442.54262,11.7955257 442.54262,16.7744966 C442.54262,21.7069351 440.045156,24.1731544 435.050229,24.1731544 L435.050229,24.1731544 Z M480.544748,52.3718121 C485.539676,52.3718121 489.53095,51.09217 492.51857,48.5328859 C495.50619,45.9736018 497,41.9252796 497,36.3879195 L497,36.3879195 L497,17.3328859 C497,11.7955257 495.50619,7.74720358 492.51857,5.18791946 C489.53095,2.62863535 485.539676,1.34899329 480.544748,1.34899329 L480.544748,1.34899329 L468.150793,1.34899329 C466.983754,1.34899329 466.026782,1.62818792 465.279877,2.18657718 C464.532972,2.74496644 464.159519,3.39642058 464.159519,4.1409396 L464.159519,4.1409396 L464.159519,49.5798658 C464.159519,50.3243848 464.532972,50.9758389 465.279877,51.5342282 C466.026782,52.0926174 466.983754,52.3718121 468.150793,52.3718121 L468.150793,52.3718121 L480.544748,52.3718121 Z M480.544748,44.4147651 L473.262424,44.4147651 L473.262424,9.30604027 L480.544748,9.30604027 C485.446313,9.30604027 487.897095,11.9816555 487.897095,17.3328859 L487.897095,17.3328859 L487.897095,36.3879195 C487.897095,41.7391499 485.446313,44.4147651 480.544748,44.4147651 L480.544748,44.4147651 Z"/>
  </g>
</svg>
