<svg xmlns="http://www.w3.org/2000/svg" width="563" height="53" viewBox="0 0 563 53">
  <g fill="none" fill-rule="evenodd">
    <path fill="#242424" fill-rule="nonzero" d="M17.1586321,53 C22.148455,53 26.1706254,51.6872207 29.2251431,49.0616622 C32.2796609,46.4361037 33.8069198,42.7068811 33.8069198,37.8739946 C33.8069198,35.0393208 33.2473134,32.56479 32.1281008,30.4504021 C31.0088882,28.3360143 29.6215309,26.7211796 27.9660289,25.6058981 C26.3105269,24.4906166 24.5151234,23.4566577 22.5798182,22.5040214 C20.6445131,21.5513852 18.8491095,20.7613941 17.1936075,20.1340483 C15.5381055,19.5067024 14.1507482,18.6934763 13.0315356,17.69437 C11.912323,16.6952636 11.3527167,15.5218945 11.3527167,14.1742627 C11.3527167,12.5013405 12.0405661,11.1885612 13.4162649,10.2359249 C14.7919638,9.28328865 16.7389274,8.80697051 19.2571558,8.80697051 C21.5422149,8.80697051 23.6174216,9.2484361 25.4827759,10.1313673 C27.3481303,11.0142985 28.4906598,11.4557641 28.9103646,11.4557641 C30.0295772,11.4557641 30.9156205,10.9097408 31.5684945,9.81769437 C32.2213686,8.7256479 32.5478056,7.66845398 32.5478056,6.6461126 C32.5478056,5.57730116 32.0698085,4.64789991 31.1138144,3.85790885 C30.1578203,3.06791778 28.922023,2.487042 27.4064226,2.1152815 C25.8908222,1.743521 24.456831,1.47631814 23.1044491,1.31367292 C21.7520672,1.1510277 20.4696361,1.06970509 19.2571558,1.06970509 C17.1119983,1.06970509 15.0834254,1.31367292 13.1714372,1.80160858 C11.259449,2.28954424 9.4640454,3.05630027 7.78522647,4.10187668 C6.10640755,5.14745308 4.76568411,6.61126005 3.76305614,8.49329759 C2.76042817,10.3753351 2.25911419,12.5478105 2.25911419,15.0107239 C2.25911419,17.2412869 2.66716046,19.227882 3.48325299,20.9705094 C4.29934552,22.7131367 5.37192427,24.1072386 6.70098925,25.152815 C8.03005423,26.1983914 9.49902079,27.1394102 11.1078889,27.9758713 C12.7167571,28.8123324 14.3139667,29.567471 15.8995179,30.2412869 C17.4850691,30.9151028 18.9423772,31.6121537 20.2714422,32.3324397 C21.6005072,33.0527256 22.6730859,33.9588919 23.4891785,35.0509383 C24.305271,36.1429848 24.7133173,37.386059 24.7133173,38.7801609 C24.7133173,40.7783735 23.9671755,42.2886506 22.474892,43.310992 C20.9826086,44.3333333 19.1172542,44.844504 16.878829,44.844504 C15.2466439,44.844504 13.7543604,44.5656836 12.4019785,44.0080429 C11.0495966,43.4504021 10.0119932,42.8346738 9.28916842,42.1608579 C8.56634361,41.487042 7.82020187,40.8713137 7.0507432,40.3136729 C6.28128452,39.7560322 5.5934351,39.4772118 4.98719494,39.4772118 C3.96125004,39.4772118 3.04023133,40.023235 2.2241388,41.1152815 C1.40804627,42.207328 1,43.2877569 1,44.3565684 C1,46.4941912 2.5855512,48.4691689 5.75665361,50.2815013 C8.92775602,52.0938338 12.7284155,53 17.1586321,53 Z M75.6874561,52.3726542 C76.9932041,52.3726542 78.2756352,52.0008937 79.5347494,51.2573727 C80.7938636,50.5138517 81.4234207,49.6309205 81.4234207,48.6085791 C81.4234207,48.515639 81.3767869,48.2832887 81.2835191,47.9115282 L81.2835191,47.9115282 L67.783017,4.06702413 C67.5032138,3.09115282 66.8037059,2.3360143 65.6844933,1.80160858 C64.5652807,1.26720286 63.3061665,1 61.9071507,1 C60.508135,1 59.2606793,1.26720286 58.1647836,1.80160858 C57.0688879,2.3360143 56.3810385,3.09115282 56.1012353,4.06702413 L56.1012353,4.06702413 L42.6007332,47.9115282 C42.5074654,48.2832887 42.4608316,48.515639 42.4608316,48.6085791 C42.4608316,49.6773905 43.0787302,50.5719392 44.3145275,51.2922252 C45.5503247,52.0125112 46.8444143,52.3726542 48.1967962,52.3726542 C49.922249,52.3726542 50.9481939,51.7685433 51.2746309,50.5603217 L51.2746309,50.5603217 L53.9327609,41.2895442 L69.9514914,41.2895442 L72.6096214,50.5603217 C72.9360584,51.7685433 73.9620033,52.3726542 75.6874561,52.3726542 Z M67.9928693,34.1796247 L55.8214322,34.1796247 L61.9071507,12.7801609 L67.9928693,34.1796247 Z M118.407402,52.3726542 C119.246811,52.3726542 119.911344,51.9776586 120.400999,51.1876676 C120.890655,50.3976765 121.135483,49.4682752 121.135483,48.3994638 C121.135483,47.3306524 120.890655,46.4012511 120.400999,45.6112601 C119.911344,44.821269 119.246811,44.4262735 118.407402,44.4262735 L118.407402,44.4262735 L101.339409,44.4262735 L101.339409,4.20643432 C101.339409,3.27703307 100.896388,2.57998213 100.010344,2.1152815 C99.1243012,1.65058088 98.0517224,1.41823056 96.7926082,1.41823056 C95.533494,1.41823056 94.4609153,1.65058088 93.5748719,2.1152815 C92.6888286,2.57998213 92.245807,3.27703307 92.245807,4.20643432 L92.245807,4.20643432 L92.245807,49.5147453 C92.245807,50.3976765 92.6421948,51.0947274 93.4349704,51.6058981 C94.227746,52.1170688 95.1604232,52.3726542 96.2330019,52.3726542 L96.2330019,52.3726542 L118.407402,52.3726542 Z M139.652456,52.3726542 C140.864936,52.3726542 141.925856,52.1170688 142.835216,51.6058981 C143.744577,51.0947274 144.199257,50.3976765 144.199257,49.5147453 L144.199257,49.5147453 L144.199257,9.57372654 L154.412072,9.57372654 C155.298115,9.57372654 155.997623,9.16711349 156.510596,8.3538874 C157.023568,7.5406613 157.280054,6.57640751 157.280054,5.46112601 C157.280054,4.39231457 157.035226,3.4512958 156.545571,2.63806971 C156.055915,1.82484361 155.344749,1.41823056 154.412072,1.41823056 L154.412072,1.41823056 L124.822888,1.41823056 C123.890211,1.41823056 123.179045,1.82484361 122.689389,2.63806971 C122.199734,3.4512958 121.954906,4.39231457 121.954906,5.46112601 C121.954906,6.62287757 122.211392,7.59874888 122.724365,8.38873995 C123.237337,9.17873101 123.936845,9.57372654 124.822888,9.57372654 L124.822888,9.57372654 L135.105654,9.57372654 L135.105654,49.5147453 C135.105654,50.3976765 135.548676,51.0947274 136.434719,51.6058981 C137.320763,52.1170688 138.393341,52.3726542 139.652456,52.3726542 Z M197.132018,52.3726542 C198.064695,52.3726542 198.775861,51.9776586 199.265517,51.1876676 C199.755172,50.3976765 200,49.4915103 200,48.4691689 C200,47.3538874 199.743514,46.4012511 199.230541,45.6112601 C198.717569,44.821269 198.018061,44.4262735 197.132018,44.4262735 L197.132018,44.4262735 L177.335945,44.4262735 L177.335945,30.4155496 L187.968464,30.4155496 C188.901142,30.4155496 189.612308,30.0554066 190.101963,29.3351206 C190.591619,28.6148347 190.836447,27.8132261 190.836447,26.9302949 C190.836447,25.9544236 190.57996,25.106345 190.066988,24.386059 C189.554016,23.665773 188.854508,23.30563 187.968464,23.30563 L187.968464,23.30563 L177.335945,23.30563 L177.335945,9.36461126 L197.132018,9.36461126 C198.018061,9.36461126 198.717569,8.96961573 199.230541,8.17962466 C199.743514,7.3896336 200,6.43699732 200,5.32171582 C200,4.29937444 199.755172,3.39320822 199.265517,2.60321716 C198.775861,1.81322609 198.064695,1.41823056 197.132018,1.41823056 L197.132018,1.41823056 L172.229537,1.41823056 C171.156958,1.41823056 170.224281,1.67381591 169.431505,2.1849866 C168.63873,2.69615728 168.242342,3.39320822 168.242342,4.27613941 L168.242342,4.27613941 L168.242342,49.5147453 C168.242342,50.3976765 168.63873,51.0947274 169.431505,51.6058981 C170.224281,52.1170688 171.156958,52.3726542 172.229537,52.3726542 L172.229537,52.3726542 L197.132018,52.3726542 Z"/>
    <path fill="#CA5454" fill-rule="nonzero" d="M243.92413,52.3726542 C244.857919,52.3726542 245.569934,51.9776586 246.060173,51.1876676 C246.550413,50.3976765 246.795532,49.4915103 246.795532,48.4691689 C246.795532,47.3538874 246.53874,46.4012511 246.025156,45.6112601 C245.511572,44.821269 244.81123,44.4262735 243.92413,44.4262735 L243.92413,44.4262735 L224.104448,44.4262735 L224.104448,30.4155496 L234.749648,30.4155496 C235.683437,30.4155496 236.395452,30.0554066 236.885691,29.3351206 C237.375931,28.6148347 237.621051,27.8132261 237.621051,26.9302949 C237.621051,25.9544236 237.364258,25.106345 236.850674,24.386059 C236.33709,23.665773 235.636748,23.30563 234.749648,23.30563 L234.749648,23.30563 L224.104448,23.30563 L224.104448,9.36461126 L243.92413,9.36461126 C244.81123,9.36461126 245.511572,8.96961573 246.025156,8.17962466 C246.53874,7.3896336 246.795532,6.43699732 246.795532,5.32171582 C246.795532,4.29937444 246.550413,3.39320822 246.060173,2.60321716 C245.569934,1.81322609 244.857919,1.41823056 243.92413,1.41823056 L243.92413,1.41823056 L218.99195,1.41823056 C217.918092,1.41823056 216.984303,1.67381591 216.190582,2.1849866 C215.396861,2.69615728 215,3.39320822 215,4.27613941 L215,4.27613941 L215,49.5147453 C215,50.3976765 215.396861,51.0947274 216.190582,51.6058981 C216.984303,52.1170688 217.918092,52.3726542 218.99195,52.3726542 L218.99195,52.3726542 L243.92413,52.3726542 Z M286.274818,52.7211796 C287.628813,52.7211796 288.959463,52.2680965 290.266768,51.3619303 C291.574074,50.4557641 292.227726,49.3985702 292.227726,48.1903485 C292.227726,47.6791778 292.064313,47.1215371 291.737487,46.5174263 L291.737487,46.5174263 L279.621568,26.8605898 L291.317281,7.27345845 C291.737487,6.57640751 291.947589,5.92582663 291.947589,5.32171582 C291.947589,4.15996425 291.328954,3.16085791 290.091683,2.32439678 C288.854412,1.48793566 287.535434,1.06970509 286.13475,1.06970509 C284.827444,1.06970509 283.800276,1.72028597 283.053244,3.02144772 L283.053244,3.02144772 L273.528592,20.0991957 L264.003939,3.02144772 C263.303597,1.72028597 262.299773,1.06970509 260.992468,1.06970509 C259.591783,1.06970509 258.272806,1.48793566 257.035535,2.32439678 C255.798264,3.16085791 255.179628,4.15996425 255.179628,5.32171582 C255.179628,5.92582663 255.389731,6.57640751 255.809936,7.27345845 L255.809936,7.27345845 L267.505649,26.8605898 L255.389731,46.5174263 C255.016215,47.1680071 254.829457,47.7256479 254.829457,48.1903485 C254.829457,49.3985702 255.494782,50.4557641 256.825432,51.3619303 C258.156082,52.2680965 259.47506,52.7211796 260.782365,52.7211796 C261.902912,52.7211796 262.743323,52.233244 263.303597,51.2573727 L263.303597,51.2573727 L273.528592,33.3431635 L283.823621,51.2573727 C284.337205,52.233244 285.154271,52.7211796 286.274818,52.7211796 Z M333.107696,52.3726542 C334.415002,52.3726542 335.698962,52.0008937 336.959578,51.2573727 C338.220194,50.5138517 338.850502,49.6309205 338.850502,48.6085791 C338.850502,48.515639 338.803812,48.2832887 338.710433,47.9115282 L338.710433,47.9115282 L325.19383,4.06702413 C324.913693,3.09115282 324.213351,2.3360143 323.092804,1.80160858 C321.972257,1.26720286 320.711641,1 319.310957,1 C317.910272,1 316.661329,1.26720286 315.564126,1.80160858 C314.466923,2.3360143 313.778254,3.09115282 313.498117,4.06702413 L313.498117,4.06702413 L299.981514,47.9115282 C299.888135,48.2832887 299.841446,48.515639 299.841446,48.6085791 C299.841446,49.6773905 300.460081,50.5719392 301.697352,51.2922252 C302.934623,52.0125112 304.230256,52.3726542 305.584251,52.3726542 C307.311761,52.3726542 308.33893,51.7685433 308.665756,50.5603217 L308.665756,50.5603217 L311.327056,41.2895442 L327.364891,41.2895442 L330.026191,50.5603217 C330.353017,51.7685433 331.380186,52.3726542 333.107696,52.3726542 Z M325.403933,34.1796247 L313.21798,34.1796247 L319.310957,12.7801609 L325.403933,34.1796247 Z M385.68338,52.3726542 C386.897306,52.3726542 387.959492,52.1170688 388.869936,51.6058981 C389.780381,51.0947274 390.235604,50.3976765 390.235604,49.5147453 L390.235604,49.5147453 L390.235604,5.94906166 C390.235604,4.4155496 389.803726,3.27703307 388.939971,2.53351206 C388.076215,1.78999106 386.990685,1.41823056 385.68338,1.41823056 C383.955869,1.41823056 382.613547,1.72028597 381.656413,2.32439678 C380.699278,2.9285076 379.660438,4.22966935 378.53989,6.22788204 L378.53989,6.22788204 L369.925682,21.8418231 L361.311474,6.22788204 C360.190927,4.22966935 359.163758,2.9285076 358.229969,2.32439678 C357.296179,1.72028597 355.965529,1.41823056 354.238019,1.41823056 C352.930713,1.41823056 351.845183,1.78999106 350.981428,2.53351206 C350.117672,3.27703307 349.685795,4.4155496 349.685795,5.94906166 L349.685795,5.94906166 L349.685795,49.5147453 C349.685795,50.3976765 350.129345,51.0947274 351.016445,51.6058981 C351.903545,52.1170688 352.977403,52.3726542 354.238019,52.3726542 C355.451945,52.3726542 356.51413,52.1170688 357.424575,51.6058981 C358.33502,51.0947274 358.790242,50.3976765 358.790242,49.5147453 L358.790242,49.5147453 L358.790242,18.9839142 L366.844177,34.0402145 C367.497829,35.2484361 368.501653,35.8525469 369.855648,35.8525469 C371.256332,35.8525469 372.283501,35.2484361 372.937153,34.0402145 L372.937153,34.0402145 L381.131156,19.541555 L381.131156,49.5147453 C381.131156,50.3976765 381.574706,51.0947274 382.461806,51.6058981 C383.348906,52.1170688 384.422764,52.3726542 385.68338,52.3726542 Z M409.194865,52.3726542 C410.408792,52.3726542 411.470977,52.1170688 412.381422,51.6058981 C413.291867,51.0947274 413.747089,50.3976765 413.747089,49.5147453 L413.747089,49.5147453 L413.747089,33.3431635 L421.590921,33.3431635 C426.540005,33.3431635 430.520283,32.0652368 433.531754,29.5093834 C436.543225,26.9535299 438.048961,22.9571046 438.048961,17.5201072 L438.048961,17.5201072 L438.048961,17.1018767 C438.048961,11.7113494 436.601587,7.74977659 433.70684,5.21715818 C430.812092,2.68453977 426.96021,1.41823056 422.151195,1.41823056 L422.151195,1.41823056 L408.074318,1.41823056 C407.047149,1.41823056 406.218411,1.69705094 405.588103,2.25469169 C404.957795,2.81233244 404.642642,3.46291332 404.642642,4.20643432 L404.642642,4.20643432 L404.642642,49.5147453 C404.642642,50.3976765 405.086192,51.0947274 405.973292,51.6058981 C406.860392,52.1170688 407.934249,52.3726542 409.194865,52.3726542 Z M421.590921,26.233244 L413.747089,26.233244 L413.747089,9.36461126 L421.590921,9.36461126 C423.925395,9.36461126 425.734612,10.0384272 427.018572,11.386059 C428.302533,12.7336908 428.944513,14.7319035 428.944513,17.3806971 L428.944513,17.3806971 L428.944513,18.2171582 C428.944513,20.8659517 428.302533,22.8641644 427.018572,24.2117962 C425.734612,25.5594281 423.925395,26.233244 421.590921,26.233244 L421.590921,26.233244 Z M475.847425,52.3726542 C476.687836,52.3726542 477.353161,51.9776586 477.843401,51.1876676 C478.33364,50.3976765 478.57876,49.4682752 478.57876,48.3994638 C478.57876,47.3306524 478.33364,46.4012511 477.843401,45.6112601 C477.353161,44.821269 476.687836,44.4262735 475.847425,44.4262735 L475.847425,44.4262735 L458.759078,44.4262735 L458.759078,4.20643432 C458.759078,3.27703307 458.315528,2.57998213 457.428428,2.1152815 C456.541328,1.65058088 455.46747,1.41823056 454.206854,1.41823056 C452.946238,1.41823056 451.87238,1.65058088 450.98528,2.1152815 C450.09818,2.57998213 449.65463,3.27703307 449.65463,4.20643432 L449.65463,4.20643432 L449.65463,49.5147453 C449.65463,50.3976765 450.051491,51.0947274 450.845212,51.6058981 C451.638933,52.1170688 452.572722,52.3726542 453.64658,52.3726542 L453.64658,52.3726542 L475.847425,52.3726542 Z M518.478251,52.3726542 C519.41204,52.3726542 520.124055,51.9776586 520.614294,51.1876676 C521.104534,50.3976765 521.349654,49.4915103 521.349654,48.4691689 C521.349654,47.3538874 521.092861,46.4012511 520.579277,45.6112601 C520.065693,44.821269 519.365351,44.4262735 518.478251,44.4262735 L518.478251,44.4262735 L498.658569,44.4262735 L498.658569,30.4155496 L509.303769,30.4155496 C510.237559,30.4155496 510.949573,30.0554066 511.439813,29.3351206 C511.930052,28.6148347 512.175172,27.8132261 512.175172,26.9302949 C512.175172,25.9544236 511.91838,25.106345 511.404795,24.386059 C510.891211,23.665773 510.190869,23.30563 509.303769,23.30563 L509.303769,23.30563 L498.658569,23.30563 L498.658569,9.36461126 L518.478251,9.36461126 C519.365351,9.36461126 520.065693,8.96961573 520.579277,8.17962466 C521.092861,7.3896336 521.349654,6.43699732 521.349654,5.32171582 C521.349654,4.29937444 521.104534,3.39320822 520.614294,2.60321716 C520.124055,1.81322609 519.41204,1.41823056 518.478251,1.41823056 L518.478251,1.41823056 L493.546071,1.41823056 C492.472213,1.41823056 491.538424,1.67381591 490.744703,2.1849866 C489.950982,2.69615728 489.554121,3.39320822 489.554121,4.27613941 L489.554121,4.27613941 L489.554121,49.5147453 C489.554121,50.3976765 489.950982,51.0947274 490.744703,51.6058981 C491.538424,52.1170688 492.472213,52.3726542 493.546071,52.3726542 L493.546071,52.3726542 L518.478251,52.3726542 Z M546.331858,53 C551.327631,53 555.354599,51.6872207 558.412759,49.0616622 C561.47092,46.4361037 563,42.7068811 563,37.8739946 C563,35.0393208 562.439726,32.56479 561.319179,30.4504021 C560.198632,28.3360143 558.80962,26.7211796 557.152143,25.6058981 C555.494667,24.4906166 553.697122,23.4566577 551.759509,22.5040214 C549.821896,21.5513852 548.024351,20.7613941 546.366875,20.1340483 C544.709398,19.5067024 543.320386,18.6934763 542.199839,17.69437 C541.079292,16.6952636 540.519018,15.5218945 540.519018,14.1742627 C540.519018,12.5013405 541.207688,11.1885612 542.585027,10.2359249 C543.962367,9.28328865 545.911652,8.80697051 548.432884,8.80697051 C550.720668,8.80697051 552.79835,9.2484361 554.665929,10.1313673 C556.533508,11.0142985 557.6774,11.4557641 558.097605,11.4557641 C559.218153,11.4557641 560.105253,10.9097408 560.758905,9.81769437 C561.412558,8.7256479 561.739384,7.66845398 561.739384,6.6461126 C561.739384,5.57730116 561.260817,4.64789991 560.303683,3.85790885 C559.346549,3.06791778 558.109278,2.487042 556.59187,2.1152815 C555.074462,1.743521 553.63876,1.47631814 552.284766,1.31367292 C550.930771,1.1510277 549.64681,1.06970509 548.432884,1.06970509 C546.285168,1.06970509 544.254176,1.31367292 542.339907,1.80160858 C540.425639,2.28954424 538.628094,3.05630027 536.947273,4.10187668 C535.266452,5.14745308 533.92413,6.61126005 532.920306,8.49329759 C531.916482,10.3753351 531.41457,12.5478105 531.41457,15.0107239 C531.41457,17.2412869 531.823103,19.227882 532.640169,20.9705094 C533.457235,22.7131367 534.531093,24.1072386 535.861743,25.152815 C537.192393,26.1983914 538.663111,27.1394102 540.273898,27.9758713 C541.884685,28.8123324 543.4838,29.567471 545.071242,30.2412869 C546.658684,30.9151028 548.11773,31.6121537 549.44838,32.3324397 C550.77903,33.0527256 551.852888,33.9588919 552.669954,35.0509383 C553.48702,36.1429848 553.895552,37.386059 553.895552,38.7801609 C553.895552,40.7783735 553.148521,42.2886506 551.654458,43.310992 C550.160394,44.3333333 548.292815,44.844504 546.051721,44.844504 C544.417589,44.844504 542.923526,44.5656836 541.569531,44.0080429 C540.215536,43.4504021 539.176696,42.8346738 538.453009,42.1608579 C537.729322,41.487042 536.98229,40.8713137 536.211914,40.3136729 C535.441538,39.7560322 534.752868,39.4772118 534.145905,39.4772118 C533.118736,39.4772118 532.196619,40.023235 531.379553,41.1152815 C530.562487,42.207328 530.153955,43.2877569 530.153955,44.3565684 C530.153955,46.4941912 531.741397,48.4691689 534.916281,50.2815013 C538.091165,52.0938338 541.896357,53 546.331858,53 Z"/>
  </g>
</svg>
