<svg xmlns="http://www.w3.org/2000/svg" width="557" height="53" viewBox="0 0 557 53">
  <g fill="none" fill-rule="evenodd">
    <path fill="#242424" fill-rule="nonzero" d="M17.1586321,53 C22.148455,53 26.1706254,51.6872207 29.2251431,49.0616622 C32.2796609,46.4361037 33.8069198,42.7068811 33.8069198,37.8739946 C33.8069198,35.0393208 33.2473134,32.56479 32.1281008,30.4504021 C31.0088882,28.3360143 29.6215309,26.7211796 27.9660289,25.6058981 C26.3105269,24.4906166 24.5151234,23.4566577 22.5798182,22.5040214 C20.6445131,21.5513852 18.8491095,20.7613941 17.1936075,20.1340483 C15.5381055,19.5067024 14.1507482,18.6934763 13.0315356,17.69437 C11.912323,16.6952636 11.3527167,15.5218945 11.3527167,14.1742627 C11.3527167,12.5013405 12.0405661,11.1885612 13.4162649,10.2359249 C14.7919638,9.28328865 16.7389274,8.80697051 19.2571558,8.80697051 C21.5422149,8.80697051 23.6174216,9.2484361 25.4827759,10.1313673 C27.3481303,11.0142985 28.4906598,11.4557641 28.9103646,11.4557641 C30.0295772,11.4557641 30.9156205,10.9097408 31.5684945,9.81769437 C32.2213686,8.7256479 32.5478056,7.66845398 32.5478056,6.6461126 C32.5478056,5.57730116 32.0698085,4.64789991 31.1138144,3.85790885 C30.1578203,3.06791778 28.922023,2.487042 27.4064226,2.1152815 C25.8908222,1.743521 24.456831,1.47631814 23.1044491,1.31367292 C21.7520672,1.1510277 20.4696361,1.06970509 19.2571558,1.06970509 C17.1119983,1.06970509 15.0834254,1.31367292 13.1714372,1.80160858 C11.259449,2.28954424 9.4640454,3.05630027 7.78522647,4.10187668 C6.10640755,5.14745308 4.76568411,6.61126005 3.76305614,8.49329759 C2.76042817,10.3753351 2.25911419,12.5478105 2.25911419,15.0107239 C2.25911419,17.2412869 2.66716046,19.227882 3.48325299,20.9705094 C4.29934552,22.7131367 5.37192427,24.1072386 6.70098925,25.152815 C8.03005423,26.1983914 9.49902079,27.1394102 11.1078889,27.9758713 C12.7167571,28.8123324 14.3139667,29.567471 15.8995179,30.2412869 C17.4850691,30.9151028 18.9423772,31.6121537 20.2714422,32.3324397 C21.6005072,33.0527256 22.6730859,33.9588919 23.4891785,35.0509383 C24.305271,36.1429848 24.7133173,37.386059 24.7133173,38.7801609 C24.7133173,40.7783735 23.9671755,42.2886506 22.474892,43.310992 C20.9826086,44.3333333 19.1172542,44.844504 16.878829,44.844504 C15.2466439,44.844504 13.7543604,44.5656836 12.4019785,44.0080429 C11.0495966,43.4504021 10.0119932,42.8346738 9.28916842,42.1608579 C8.56634361,41.487042 7.82020187,40.8713137 7.0507432,40.3136729 C6.28128452,39.7560322 5.5934351,39.4772118 4.98719494,39.4772118 C3.96125004,39.4772118 3.04023133,40.023235 2.2241388,41.1152815 C1.40804627,42.207328 1,43.2877569 1,44.3565684 C1,46.4941912 2.5855512,48.4691689 5.75665361,50.2815013 C8.92775602,52.0938338 12.7284155,53 17.1586321,53 Z M75.6874561,52.3726542 C76.9932041,52.3726542 78.2756352,52.0008937 79.5347494,51.2573727 C80.7938636,50.5138517 81.4234207,49.6309205 81.4234207,48.6085791 C81.4234207,48.515639 81.3767869,48.2832887 81.2835191,47.9115282 L81.2835191,47.9115282 L67.783017,4.06702413 C67.5032138,3.09115282 66.8037059,2.3360143 65.6844933,1.80160858 C64.5652807,1.26720286 63.3061665,1 61.9071507,1 C60.508135,1 59.2606793,1.26720286 58.1647836,1.80160858 C57.0688879,2.3360143 56.3810385,3.09115282 56.1012353,4.06702413 L56.1012353,4.06702413 L42.6007332,47.9115282 C42.5074654,48.2832887 42.4608316,48.515639 42.4608316,48.6085791 C42.4608316,49.6773905 43.0787302,50.5719392 44.3145275,51.2922252 C45.5503247,52.0125112 46.8444143,52.3726542 48.1967962,52.3726542 C49.922249,52.3726542 50.9481939,51.7685433 51.2746309,50.5603217 L51.2746309,50.5603217 L53.9327609,41.2895442 L69.9514914,41.2895442 L72.6096214,50.5603217 C72.9360584,51.7685433 73.9620033,52.3726542 75.6874561,52.3726542 Z M67.9928693,34.1796247 L55.8214322,34.1796247 L61.9071507,12.7801609 L67.9928693,34.1796247 Z M118.407402,52.3726542 C119.246811,52.3726542 119.911344,51.9776586 120.400999,51.1876676 C120.890655,50.3976765 121.135483,49.4682752 121.135483,48.3994638 C121.135483,47.3306524 120.890655,46.4012511 120.400999,45.6112601 C119.911344,44.821269 119.246811,44.4262735 118.407402,44.4262735 L118.407402,44.4262735 L101.339409,44.4262735 L101.339409,4.20643432 C101.339409,3.27703307 100.896388,2.57998213 100.010344,2.1152815 C99.1243012,1.65058088 98.0517224,1.41823056 96.7926082,1.41823056 C95.533494,1.41823056 94.4609153,1.65058088 93.5748719,2.1152815 C92.6888286,2.57998213 92.245807,3.27703307 92.245807,4.20643432 L92.245807,4.20643432 L92.245807,49.5147453 C92.245807,50.3976765 92.6421948,51.0947274 93.4349704,51.6058981 C94.227746,52.1170688 95.1604232,52.3726542 96.2330019,52.3726542 L96.2330019,52.3726542 L118.407402,52.3726542 Z M139.652456,52.3726542 C140.864936,52.3726542 141.925856,52.1170688 142.835216,51.6058981 C143.744577,51.0947274 144.199257,50.3976765 144.199257,49.5147453 L144.199257,49.5147453 L144.199257,9.57372654 L154.412072,9.57372654 C155.298115,9.57372654 155.997623,9.16711349 156.510596,8.3538874 C157.023568,7.5406613 157.280054,6.57640751 157.280054,5.46112601 C157.280054,4.39231457 157.035226,3.4512958 156.545571,2.63806971 C156.055915,1.82484361 155.344749,1.41823056 154.412072,1.41823056 L154.412072,1.41823056 L124.822888,1.41823056 C123.890211,1.41823056 123.179045,1.82484361 122.689389,2.63806971 C122.199734,3.4512958 121.954906,4.39231457 121.954906,5.46112601 C121.954906,6.62287757 122.211392,7.59874888 122.724365,8.38873995 C123.237337,9.17873101 123.936845,9.57372654 124.822888,9.57372654 L124.822888,9.57372654 L135.105654,9.57372654 L135.105654,49.5147453 C135.105654,50.3976765 135.548676,51.0947274 136.434719,51.6058981 C137.320763,52.1170688 138.393341,52.3726542 139.652456,52.3726542 Z M197.132018,52.3726542 C198.064695,52.3726542 198.775861,51.9776586 199.265517,51.1876676 C199.755172,50.3976765 200,49.4915103 200,48.4691689 C200,47.3538874 199.743514,46.4012511 199.230541,45.6112601 C198.717569,44.821269 198.018061,44.4262735 197.132018,44.4262735 L197.132018,44.4262735 L177.335945,44.4262735 L177.335945,30.4155496 L187.968464,30.4155496 C188.901142,30.4155496 189.612308,30.0554066 190.101963,29.3351206 C190.591619,28.6148347 190.836447,27.8132261 190.836447,26.9302949 C190.836447,25.9544236 190.57996,25.106345 190.066988,24.386059 C189.554016,23.665773 188.854508,23.30563 187.968464,23.30563 L187.968464,23.30563 L177.335945,23.30563 L177.335945,9.36461126 L197.132018,9.36461126 C198.018061,9.36461126 198.717569,8.96961573 199.230541,8.17962466 C199.743514,7.3896336 200,6.43699732 200,5.32171582 C200,4.29937444 199.755172,3.39320822 199.265517,2.60321716 C198.775861,1.81322609 198.064695,1.41823056 197.132018,1.41823056 L197.132018,1.41823056 L172.229537,1.41823056 C171.156958,1.41823056 170.224281,1.67381591 169.431505,2.1849866 C168.63873,2.69615728 168.242342,3.39320822 168.242342,4.27613941 L168.242342,4.27613941 L168.242342,49.5147453 C168.242342,50.3976765 168.63873,51.0947274 169.431505,51.6058981 C170.224281,52.1170688 171.156958,52.3726542 172.229537,52.3726542 L172.229537,52.3726542 L197.132018,52.3726542 Z"/>
    <path fill="#CA5454" fill-rule="nonzero" d="M219.555328,51.5800808 C220.770082,51.5800808 221.832992,51.3234634 222.744057,50.8102288 C223.655123,50.2969942 224.110656,49.5971288 224.110656,48.7106326 L224.110656,48.7106326 L224.110656,29.5343203 L234.833197,29.5343203 C235.720902,29.5343203 236.410041,29.1843876 236.900615,28.4845222 C237.391189,27.7846568 237.636475,26.9681472 237.636475,26.0349933 C237.636475,25.008524 237.391189,24.1453567 236.900615,23.4454913 C236.410041,22.7456258 235.720902,22.3956931 234.833197,22.3956931 L234.833197,22.3956931 L224.110656,22.3956931 L224.110656,8.39838493 L243.453279,8.39838493 C244.340984,8.39838493 245.030123,8.00179453 245.520697,7.20861373 C246.01127,6.41543293 246.256557,5.4589502 246.256557,4.33916555 C246.256557,3.26603858 246.022951,2.34454913 245.555738,1.57469717 C245.088525,0.804845222 244.387705,0.419919246 243.453279,0.419919246 L243.453279,0.419919246 L218.994672,0.419919246 C217.920082,0.419919246 216.985656,0.676536563 216.191393,1.1897712 C215.397131,1.70300583 215,2.40287124 215,3.28936743 L215,3.28936743 L215,48.7106326 C215,49.5971288 215.443852,50.2969942 216.331557,50.8102288 C217.219262,51.3234634 218.293852,51.5800808 219.555328,51.5800808 Z M280.436534,51.5800808 C281.744731,51.5800808 283.029567,51.2068192 284.291042,50.4602961 C285.552518,49.713773 286.183255,48.8272768 286.183255,47.8008075 C286.183255,47.7074921 286.136534,47.4742037 286.043091,47.1009421 L286.043091,47.1009421 L272.517272,3.07940781 C272.236944,2.09959623 271.536124,1.3414087 270.414813,0.804845222 C269.293501,0.268281741 268.032026,0 266.630386,0 C265.228747,0 263.978952,0.268281741 262.881001,0.804845222 C261.78305,1.3414087 261.093911,2.09959623 260.813583,3.07940781 L260.813583,3.07940781 L247.287763,47.1009421 C247.194321,47.4742037 247.1476,47.7074921 247.1476,47.8008075 C247.1476,48.8739345 247.766657,49.7720951 249.004772,50.4952894 C250.242886,51.2184836 251.539403,51.5800808 252.894321,51.5800808 C254.623009,51.5800808 255.650878,50.9735307 255.977927,49.7604307 L255.977927,49.7604307 L258.641042,40.4522207 L274.689813,40.4522207 L277.352927,49.7604307 C277.679977,50.9735307 278.707845,51.5800808 280.436534,51.5800808 Z M272.727518,33.3135935 L260.533255,33.3135935 L266.630386,11.8277254 L272.727518,33.3135935 Z M312.654215,52 C317.606674,52 321.636388,50.7402423 324.743355,48.2207268 C327.850322,45.7012113 329.403806,42.3418573 329.403806,38.1426649 C329.403806,36.4163302 329.041715,35.2382234 328.317535,34.6083445 C327.593355,33.9784657 326.413642,33.6635262 324.778396,33.6635262 C321.928396,33.6635262 320.433314,34.620009 320.29315,36.5329744 C320.246429,37.512786 320.141306,38.3409601 319.977781,39.0174966 C319.814256,39.6940332 319.510568,40.4638852 319.066715,41.3270525 C318.622863,42.1902198 317.898683,42.855092 316.894174,43.3216689 C315.889666,43.7882459 314.639871,44.0215343 313.144789,44.0215343 C308.145609,44.0215343 305.646019,41.3387169 305.646019,35.9730821 L305.646019,35.9730821 L305.646019,16.4468371 C305.646019,11.0812023 308.098888,8.39838493 313.004625,8.39838493 C314.266101,8.39838493 315.364052,8.57335128 316.298478,8.92328398 C317.232904,9.27321669 317.933724,9.69313594 318.400937,10.1830417 C318.86815,10.6729475 319.253601,11.2794975 319.557289,12.0026918 C319.860978,12.725886 320.047863,13.3091072 320.117945,13.7523553 C320.188027,14.1956034 320.246429,14.7205025 320.29315,15.3270525 C320.339871,17.2400179 321.858314,18.1965007 324.848478,18.1965007 C326.483724,18.1965007 327.651756,17.8815612 328.352576,17.2516824 C329.053396,16.6218035 329.403806,15.4436967 329.403806,13.717362 C329.403806,9.70480036 327.850322,6.48541947 324.743355,4.05921938 C321.636388,1.63301929 317.630035,0.419919246 312.724297,0.419919246 C307.912002,0.419919246 304.010773,1.71467026 301.020609,4.30417227 C298.030445,6.89367429 296.535363,10.9412293 296.535363,16.4468371 L296.535363,16.4468371 L296.535363,35.9730821 C296.535363,41.47869 298.018765,45.526245 300.985568,48.115747 C303.952371,50.705249 307.84192,52 312.654215,52 Z M370.521897,51.5800808 C371.456323,51.5800808 372.168823,51.1834904 372.659397,50.3903096 C373.149971,49.5971288 373.395258,48.6873037 373.395258,47.6608345 C373.395258,46.5410498 373.13829,45.5845671 372.624356,44.7913863 C372.110422,43.9982055 371.409602,43.6016151 370.521897,43.6016151 L370.521897,43.6016151 L350.6887,43.6016151 L350.6887,29.5343203 L361.341159,29.5343203 C362.275585,29.5343203 362.988085,29.1727232 363.478659,28.4495289 C363.969233,27.7263347 364.21452,26.9214895 364.21452,26.0349933 C364.21452,25.0551817 363.957553,24.2036788 363.443618,23.4804845 C362.929684,22.7572903 362.228864,22.3956931 361.341159,22.3956931 L361.341159,22.3956931 L350.6887,22.3956931 L350.6887,8.39838493 L370.521897,8.39838493 C371.409602,8.39838493 372.110422,8.00179453 372.624356,7.20861373 C373.13829,6.41543293 373.395258,5.4589502 373.395258,4.33916555 C373.395258,3.31269628 373.149971,2.40287124 372.659397,1.60969044 C372.168823,0.816509646 371.456323,0.419919246 370.521897,0.419919246 L370.521897,0.419919246 L345.572717,0.419919246 C344.498126,0.419919246 343.5637,0.676536563 342.769438,1.1897712 C341.975176,1.70300583 341.578044,2.40287124 341.578044,3.28936743 L341.578044,3.28936743 L341.578044,48.7106326 C341.578044,49.5971288 341.975176,50.2969942 342.769438,50.8102288 C343.5637,51.3234634 344.498126,51.5800808 345.572717,51.5800808 L345.572717,51.5800808 L370.521897,51.5800808 Z M403.580562,51.5800808 C407.878923,51.5800808 411.289578,50.401974 413.812529,48.0457604 C416.33548,45.6895469 417.596956,41.9219381 417.596956,36.7429341 L417.596956,36.7429341 L417.596956,35.2732167 C417.596956,32.0071781 416.989578,29.5226559 415.774824,27.8196501 C414.56007,26.1166442 412.7613,24.7985644 410.378513,23.8654105 C414.349824,22.1390758 416.33548,18.4297891 416.33548,12.7375505 C416.33548,4.52579632 411.639988,0.419919246 402.249005,0.419919246 L402.249005,0.419919246 L388.723185,0.419919246 C387.648595,0.419919246 386.714169,0.676536563 385.919906,1.1897712 C385.125644,1.70300583 384.728513,2.40287124 384.728513,3.28936743 L384.728513,3.28936743 L384.728513,48.7806191 C384.728513,49.5271422 385.102283,50.1803499 385.849824,50.7402423 C386.597365,51.3001346 387.555152,51.5800808 388.723185,51.5800808 L388.723185,51.5800808 L403.580562,51.5800808 Z M401.618267,20.2960969 L393.769087,20.2960969 L393.769087,8.39838493 L401.548185,8.39838493 C403.323595,8.39838493 404.713554,8.92328398 405.718062,9.9730821 C406.72257,11.0228802 407.224824,12.4576043 407.224824,14.2772544 C407.224824,16.1435621 406.745931,17.6132795 405.788144,18.6864065 C404.830357,19.7595334 403.440398,20.2960969 401.618267,20.2960969 L401.618267,20.2960969 Z M401.688349,43.6016151 L393.769087,43.6016151 L393.769087,27.4347241 L401.688349,27.4347241 C403.930972,27.4347241 405.624619,28.0179453 406.769292,29.1843876 C407.913964,30.35083 408.4863,32.2404666 408.4863,34.8532974 L408.4863,34.8532974 L408.4863,35.9730821 C408.4863,41.0587707 406.220316,43.6016151 401.688349,43.6016151 L401.688349,43.6016151 Z M445.960129,52 C450.959309,52 454.953981,50.7169134 457.944145,48.1507402 C460.934309,45.5845671 462.429391,41.5253477 462.429391,35.9730821 L462.429391,35.9730821 L462.429391,16.4468371 C462.429391,10.8945716 460.934309,6.83535218 457.944145,4.269179 C454.953981,1.70300583 450.959309,0.419919246 445.960129,0.419919246 C440.960948,0.419919246 436.977957,1.70300583 434.011153,4.269179 C431.04435,6.83535218 429.560948,10.8945716 429.560948,16.4468371 L429.560948,16.4468371 L429.560948,35.9730821 C429.560948,41.5253477 431.04435,45.5845671 434.011153,48.1507402 C436.977957,50.7169134 440.960948,52 445.960129,52 Z M445.960129,44.0215343 C441.101112,44.0215343 438.671604,41.3387169 438.671604,35.9730821 L438.671604,35.9730821 L438.671604,16.4468371 C438.671604,11.0812023 441.101112,8.39838493 445.960129,8.39838493 C450.865867,8.39838493 453.318735,11.0812023 453.318735,16.4468371 L453.318735,16.4468371 L453.318735,35.9730821 C453.318735,41.3387169 450.865867,44.0215343 445.960129,44.0215343 Z M492.05404,52 C497.05322,52 501.047892,50.7169134 504.038056,48.1507402 C507.02822,45.5845671 508.523302,41.5253477 508.523302,35.9730821 L508.523302,35.9730821 L508.523302,16.4468371 C508.523302,10.8945716 507.02822,6.83535218 504.038056,4.269179 C501.047892,1.70300583 497.05322,0.419919246 492.05404,0.419919246 C487.054859,0.419919246 483.071868,1.70300583 480.105064,4.269179 C477.138261,6.83535218 475.654859,10.8945716 475.654859,16.4468371 L475.654859,16.4468371 L475.654859,35.9730821 C475.654859,41.5253477 477.138261,45.5845671 480.105064,48.1507402 C483.071868,50.7169134 487.054859,52 492.05404,52 Z M492.05404,44.0215343 C487.195023,44.0215343 484.765515,41.3387169 484.765515,35.9730821 L484.765515,35.9730821 L484.765515,16.4468371 C484.765515,11.0812023 487.195023,8.39838493 492.05404,8.39838493 C496.959778,8.39838493 499.412646,11.0812023 499.412646,16.4468371 L499.412646,16.4468371 L499.412646,35.9730821 C499.412646,41.3387169 496.959778,44.0215343 492.05404,44.0215343 Z M551.533607,51.9300135 C552.888525,51.9300135 554.13832,51.4517721 555.282992,50.4952894 C556.427664,49.5388066 557,48.5006729 557,47.3808883 C557,46.7743383 556.836475,46.2377748 556.509426,45.7711978 L556.509426,45.7711978 L541.231557,22.5356662 L553.77623,6.85868102 C554.15,6.39210408 554.336885,5.80888291 554.336885,5.1090175 C554.336885,3.98923284 553.752869,2.9277703 552.584836,1.92462988 C551.416803,0.921489457 550.24877,0.419919246 549.080738,0.419919246 C548.052869,0.419919246 547.211885,0.86316734 546.557787,1.74966353 L546.557787,1.74966353 L531.420082,22.3257066 L531.420082,3.21938089 C531.420082,2.28622701 530.97623,1.5863616 530.088525,1.11978466 C529.20082,0.653207716 528.12623,0.419919246 526.864754,0.419919246 C525.603279,0.419919246 524.528689,0.653207716 523.640984,1.11978466 C522.753279,1.5863616 522.309426,2.28622701 522.309426,3.21938089 L522.309426,3.21938089 L522.309426,48.7106326 C522.309426,49.5971288 522.753279,50.2969942 523.640984,50.8102288 C524.528689,51.3234634 525.603279,51.5800808 526.864754,51.5800808 C528.079508,51.5800808 529.142418,51.3234634 530.053484,50.8102288 C530.964549,50.2969942 531.420082,49.5971288 531.420082,48.7106326 L531.420082,48.7106326 L531.420082,34.9932705 L535.204508,30.2341857 L548.379918,50.1803499 C549.080738,51.3467923 550.131967,51.9300135 551.533607,51.9300135 Z"/>
  </g>
</svg>
