<svg xmlns="http://www.w3.org/2000/svg" width="556" height="53" viewBox="0 0 556 53">
  <g fill="none" fill-rule="evenodd">
    <path fill="#242424" fill-rule="nonzero" d="M0,43.3565684 C0,42.2877516 0.408042185,41.2073334 1.2241388,40.1152815 C2.04023541,39.0232296 2.96124491,38.4772118 3.98719494,38.4772118 C4.59343814,38.4772118 5.28128068,38.7560294 6.0507432,39.3136729 C6.82020572,39.8713165 7.56634,40.4870386 8.28916842,41.1608579 C9.01199685,41.8346772 10.0495898,42.4503994 11.4019785,43.0080429 C12.7543672,43.5656864 14.2466357,43.844504 15.878829,43.844504 C18.1172654,43.844504 19.9826011,43.3333384 21.474892,42.310992 C22.967183,41.2886455 23.7133173,39.7783835 23.7133173,37.7801609 C23.7133173,36.386052 23.3052751,35.1429903 22.4891785,34.0509383 C21.6730819,32.9588864 20.6005138,32.0527292 19.2714422,31.3324397 C17.9423706,30.6121501 16.4850771,29.9151061 14.8995179,29.2412869 C13.3139588,28.5674676 11.7167651,27.8123366 10.1078889,26.9758713 C8.49901275,26.139406 7.03006088,25.1983966 5.70098925,24.152815 C4.37191763,23.1072334 3.2993496,21.7131454 2.48325299,19.9705094 C1.66715638,18.2278733 1.25911419,16.241298 1.25911419,14.0107239 C1.25911419,11.5477982 1.76042316,9.37534453 2.76305614,7.49329759 C3.76568912,5.61125064 5.10639916,4.14745831 6.78522647,3.10187668 C8.46405379,2.05629504 10.2594394,1.28954668 12.1714372,0.801608579 C14.083435,0.313670483 16.1119875,0.0697050938 18.2571558,0.0697050938 C19.4696422,0.0697050938 20.7520605,0.15102689 22.1044491,0.313672922 C23.4568378,0.476318954 24.8908146,0.743519142 26.4064226,1.1152815 C27.9220306,1.48704386 29.1578155,2.06791383 30.1138144,2.85790885 C31.0698133,3.64790386 31.5478056,4.57729582 31.5478056,5.6461126 C31.5478056,6.66845909 31.2213718,7.72564244 30.5684945,8.81769437 C29.9156172,9.9097463 29.0295828,10.4557641 27.9103646,10.4557641 C27.4906577,10.4557641 26.3481396,10.0143029 24.4827759,9.13136729 C22.6174123,8.24843169 20.5422263,7.80697051 18.2571558,7.80697051 C15.7389148,7.80697051 13.7919707,8.28328389 12.4162649,9.23592493 C11.0405592,10.188566 10.3527167,11.5013321 10.3527167,13.1742627 C10.3527167,14.5219013 10.9123174,15.6952586 12.0315356,16.69437 C13.1507538,17.6934813 14.5380972,18.5066993 16.1936075,19.1340483 C17.8491178,19.7613972 19.6445034,20.5513804 21.5798182,21.5040214 C23.515133,22.4566625 25.3105187,23.490611 26.9660289,24.6058981 C28.6215392,25.7211852 30.0088826,27.3360037 31.1281008,29.4504021 C32.247319,31.5648006 32.8069198,34.0393066 32.8069198,36.8739946 C32.8069198,41.7069053 31.2796761,45.4360905 28.2251431,48.0616622 C25.1706101,50.6872339 21.14848,52 16.1586321,52 C11.7283934,52 7.92777187,51.0938428 4.75665361,49.2815013 C1.58553535,47.4691598 0,45.4942019 0,43.3565684 Z M41.4608316,47.6085791 C41.4608316,47.5156385 41.507465,47.2832905 41.6007332,46.9115282 L55.1012353,3.06702413 C55.3810399,2.09114794 56.0688824,1.33601697 57.1647836,0.801608579 C58.2606847,0.267200188 59.508128,0 60.9071507,0 C62.3061735,0 63.5652751,0.267200188 64.6844933,0.801608579 C65.8037115,1.33601697 66.5032124,2.09114794 66.783017,3.06702413 L80.2835191,46.9115282 C80.3767873,47.2832905 80.4234207,47.5156385 80.4234207,47.6085791 C80.4234207,48.6309256 79.7938699,49.5138479 78.5347494,50.2573727 C77.2756289,51.0008974 75.9932106,51.3726542 74.6874561,51.3726542 C72.9619947,51.3726542 71.93606,50.7685494 71.6096214,49.5603217 L68.9514914,40.2895442 L52.9327609,40.2895442 L50.2746309,49.5603217 C49.9481923,50.7685494 48.9222576,51.3726542 47.1967962,51.3726542 C45.8444076,51.3726542 44.5503309,51.0125148 43.3145275,50.2922252 C42.078724,49.5719356 41.4608316,48.6773959 41.4608316,47.6085791 Z M54.8214322,33.1796247 L66.9928693,33.1796247 L60.9071507,11.7801609 L54.8214322,33.1796247 Z M91.245807,48.5147453 L91.245807,3.20643432 C91.245807,2.27702842 91.6888242,1.57998445 92.5748719,1.1152815 C93.4609197,0.650578552 94.5334877,0.418230563 95.7926082,0.418230563 C97.0517287,0.418230563 98.1242967,0.650578552 99.0103445,1.1152815 C99.8963922,1.57998445 100.339409,2.27702842 100.339409,3.20643432 L100.339409,43.4262735 L117.407402,43.4262735 C118.246815,43.4262735 118.911341,43.821265 119.400999,44.6112601 C119.890657,45.4012551 120.135483,46.330647 120.135483,47.3994638 C120.135483,48.4682806 119.890657,49.3976725 119.400999,50.1876676 C118.911341,50.9776626 118.246815,51.3726542 117.407402,51.3726542 L95.2330019,51.3726542 C94.1604178,51.3726542 93.2277499,51.1170714 92.4349704,50.6058981 C91.6421908,50.0947249 91.245807,49.3976809 91.245807,48.5147453 Z M120.954906,4.46112601 C120.954906,3.39230922 121.199731,2.45129987 121.689389,1.63806971 C122.179047,0.824839544 122.890207,0.418230563 123.822888,0.418230563 L153.412072,0.418230563 C154.344754,0.418230563 155.055913,0.824839544 155.545571,1.63806971 C156.035229,2.45129987 156.280054,3.39230922 156.280054,4.46112601 C156.280054,5.57641308 156.023571,6.54065724 155.510596,7.3538874 C154.997621,8.16711756 154.29812,8.57372654 153.412072,8.57372654 L143.199257,8.57372654 L143.199257,48.5147453 C143.199257,49.3976809 142.744581,50.0947249 141.835216,50.6058981 C140.925852,51.1170714 139.864942,51.3726542 138.652456,51.3726542 C137.393335,51.3726542 136.320767,51.1170714 135.434719,50.6058981 C134.548672,50.0947249 134.105654,49.3976809 134.105654,48.5147453 L134.105654,8.57372654 L123.822888,8.57372654 C122.936841,8.57372654 122.23734,8.17873496 121.724365,7.38873995 C121.21139,6.59874493 120.954906,5.62288338 120.954906,4.46112601 Z M167.242342,48.5147453 L167.242342,3.27613941 C167.242342,2.39320381 167.638726,1.69615984 168.431505,1.1849866 C169.224285,0.673813351 170.156953,0.418230563 171.229537,0.418230563 L196.132018,0.418230563 C197.0647,0.418230563 197.775859,0.813222145 198.265517,1.60321716 C198.755175,2.39321217 199,3.29936933 199,4.32171582 C199,5.4370029 198.743516,6.38962965 198.230541,7.17962466 C197.717566,7.96961968 197.018065,8.36461126 196.132018,8.36461126 L176.335945,8.36461126 L176.335945,22.30563 L186.968464,22.30563 C187.854512,22.30563 188.554013,22.6657694 189.066988,23.386059 C189.579963,24.1063486 189.836447,24.9544187 189.836447,25.9302949 C189.836447,26.8132305 189.591621,27.6148311 189.101963,28.3351206 C188.612305,29.0554102 187.901146,29.4155496 186.968464,29.4155496 L176.335945,29.4155496 L176.335945,43.4262735 L196.132018,43.4262735 C197.018065,43.4262735 197.717566,43.821265 198.230541,44.6112601 C198.743516,45.4012551 199,46.3538818 199,47.4691689 C199,48.4915154 198.755175,49.3976725 198.265517,50.1876676 C197.775859,50.9776626 197.0647,51.3726542 196.132018,51.3726542 L171.229537,51.3726542 C170.156953,51.3726542 169.224285,51.1170714 168.431505,50.6058981 C167.638726,50.0947249 167.242342,49.3976809 167.242342,48.5147453 Z"/>
    <path fill="#CA5454" fill-rule="nonzero" d="M214,48.7106326 L214,3.28936743 C214,2.40286681 214.397127,1.7030084 215.191393,1.1897712 C215.98566,0.676533997 216.920077,0.419919246 217.994672,0.419919246 L242.453279,0.419919246 C243.38771,0.419919246 244.088522,0.804841373 244.555738,1.57469717 C245.022953,2.34455297 245.256557,3.26603322 245.256557,4.33916555 C245.256557,5.4589558 245.011273,6.41542896 244.520697,7.20861373 C244.03012,8.00179849 243.340988,8.39838493 242.453279,8.39838493 L223.110656,8.39838493 L223.110656,22.3956931 L233.833197,22.3956931 C234.720906,22.3956931 235.410039,22.7456223 235.900615,23.4454913 C236.391191,24.1453602 236.636475,25.0085189 236.636475,26.0349933 C236.636475,26.9681518 236.391191,27.7846533 235.900615,28.4845222 C235.410039,29.1843911 234.720906,29.5343203 233.833197,29.5343203 L223.110656,29.5343203 L223.110656,48.7106326 C223.110656,49.5971332 222.655128,50.2969916 221.744057,50.8102288 C220.832987,51.323466 219.770088,51.5800808 218.555328,51.5800808 C217.293846,51.5800808 216.219267,51.323466 215.331557,50.8102288 C214.443848,50.2969916 214,49.5971332 214,48.7106326 Z M246.1476,47.8008075 C246.1476,47.7074917 246.19432,47.4742055 246.287763,47.1009421 L259.813583,3.07940781 C260.093912,2.09959133 260.783045,1.34141139 261.881001,0.804845222 C262.978957,0.268279058 264.22874,0 265.630386,0 C267.032033,0 268.293496,0.268279058 269.414813,0.804845222 C270.53613,1.34141139 271.236942,2.09959133 271.517272,3.07940781 L285.043091,47.1009421 C285.136534,47.4742055 285.183255,47.7074917 285.183255,47.8008075 C285.183255,48.8272819 284.552524,49.7137693 283.291042,50.4602961 C282.02956,51.2068229 280.744737,51.5800808 279.436534,51.5800808 C277.707837,51.5800808 276.679978,50.9735368 276.352927,49.7604307 L273.689813,40.4522207 L257.641042,40.4522207 L254.977927,49.7604307 C254.650877,50.9735368 253.623018,51.5800808 251.894321,51.5800808 C250.539396,51.5800808 249.242893,51.2184872 248.004772,50.4952894 C246.766651,49.7720915 246.1476,48.8739399 246.1476,47.8008075 Z M259.533255,33.3135935 L271.727518,33.3135935 L265.630386,11.8277254 L259.533255,33.3135935 Z M295.535363,35.9730821 L295.535363,16.4468371 C295.535363,10.9412017 297.03043,6.89368724 300.020609,4.30417227 C303.010788,1.71465731 306.911978,0.419919246 311.724297,0.419919246 C316.63006,0.419919246 320.636372,1.63300716 323.743355,4.05921938 C326.850338,6.4854316 328.403806,9.7047803 328.403806,13.717362 C328.403806,15.4437054 328.053399,16.6218003 327.352576,17.2516824 C326.651753,17.8815644 325.483732,18.1965007 323.848478,18.1965007 C320.858299,18.1965007 319.339871,17.2400275 319.29315,15.3270525 C319.246428,14.7204994 319.188027,14.1956056 319.117945,13.7523553 C319.047863,13.309105 318.860979,12.7258897 318.557289,12.0026918 C318.253599,11.2794939 317.868152,10.67295 317.400937,10.1830417 C316.933721,9.69313349 316.232909,9.27321844 315.298478,8.92328398 C314.364047,8.57334953 313.266107,8.39838493 312.004625,8.39838493 C307.098863,8.39838493 304.646019,11.0811755 304.646019,16.4468371 L304.646019,35.9730821 C304.646019,41.3387437 307.145584,44.0215343 312.144789,44.0215343 C313.639879,44.0215343 314.889661,43.7882482 315.894174,43.3216689 C316.898688,42.8550896 317.622861,42.1902241 318.066715,41.3270525 C318.51057,40.4638808 318.814256,39.6940366 318.977781,39.0174966 C319.141306,38.3409567 319.246428,37.5127909 319.29315,36.5329744 C319.433315,34.6199994 320.928382,33.6635262 323.778396,33.6635262 C325.41365,33.6635262 326.593351,33.9784625 327.317535,34.6083445 C328.041719,35.2382266 328.403806,36.4163216 328.403806,38.1426649 C328.403806,42.3418783 326.850338,45.7011987 323.743355,48.2207268 C320.636372,50.7402549 316.606699,52 311.654215,52 C306.841896,52 302.952386,50.7052619 299.985568,48.115747 C297.01875,45.526232 295.535363,41.4787175 295.535363,35.9730821 Z M340.578044,48.7106326 L340.578044,3.28936743 C340.578044,2.40286681 340.975172,1.7030084 341.769438,1.1897712 C342.563704,0.676533997 343.498121,0.419919246 344.572717,0.419919246 L369.521897,0.419919246 C370.456328,0.419919246 371.168821,0.81650568 371.659397,1.60969044 C372.149973,2.40287521 372.395258,3.31269114 372.395258,4.33916555 C372.395258,5.4589558 372.138293,6.41542896 371.624356,7.20861373 C371.110419,8.00179849 370.409606,8.39838493 369.521897,8.39838493 L349.6887,8.39838493 L349.6887,22.3956931 L360.341159,22.3956931 C361.228869,22.3956931 361.929681,22.7572866 362.443618,23.4804845 C362.957555,24.2036824 363.21452,25.0551768 363.21452,26.0349933 C363.21452,26.9214939 362.969235,27.7263311 362.478659,28.4495289 C361.988083,29.1727268 361.27559,29.5343203 360.341159,29.5343203 L349.6887,29.5343203 L349.6887,43.6016151 L369.521897,43.6016151 C370.409606,43.6016151 371.110419,43.9982015 371.624356,44.7913863 C372.138293,45.584571 372.395258,46.5410442 372.395258,47.6608345 C372.395258,48.6873089 372.149973,49.5971248 371.659397,50.3903096 C371.168821,51.1834943 370.456328,51.5800808 369.521897,51.5800808 L344.572717,51.5800808 C343.498121,51.5800808 342.563704,51.323466 341.769438,50.8102288 C340.975172,50.2969916 340.578044,49.5971332 340.578044,48.7106326 Z M383.728513,48.7806191 L383.728513,3.28936743 C383.728513,2.40286681 384.12564,1.7030084 384.919906,1.1897712 C385.714173,0.676533997 386.648589,0.419919246 387.723185,0.419919246 L401.249005,0.419919246 C410.640035,0.419919246 415.33548,4.52575526 415.33548,12.7375505 C415.33548,18.4298176 413.349844,22.1390672 409.378513,23.8654105 C411.761312,24.798569 413.560064,26.1166357 414.774824,27.8196501 C415.989585,29.5226644 416.596956,32.0071618 416.596956,35.2732167 L416.596956,36.7429341 C416.596956,41.921964 415.335493,45.6895351 412.812529,48.0457604 C410.289566,50.4019858 406.878944,51.5800808 402.580562,51.5800808 L387.723185,51.5800808 C386.555146,51.5800808 385.597369,51.3001374 384.849824,50.7402423 C384.10228,50.1803471 383.728513,49.5271459 383.728513,48.7806191 Z M392.769087,43.6016151 L400.688349,43.6016151 C405.220339,43.6016151 407.4863,41.0587962 407.4863,35.9730821 L407.4863,34.8532974 C407.4863,32.2404535 406.913969,30.3508358 405.769292,29.1843876 C404.624614,28.0179394 402.930983,27.4347241 400.688349,27.4347241 L392.769087,27.4347241 L392.769087,43.6016151 Z M392.769087,20.2960969 L400.618267,20.2960969 C402.440407,20.2960969 403.830352,19.7595388 404.788144,18.6864065 C405.745936,17.6132741 406.224824,16.1435715 406.224824,14.2772544 C406.224824,12.4575952 405.722575,11.0228855 404.718062,9.9730821 C403.713549,8.92327873 402.323604,8.39838493 400.548185,8.39838493 L392.769087,8.39838493 L392.769087,20.2960969 Z M428.560948,35.9730821 L428.560948,16.4468371 C428.560948,10.8945438 430.044335,6.83536501 433.011153,4.269179 C435.977972,1.702993 439.960923,0.419919246 444.960129,0.419919246 C449.959334,0.419919246 453.953966,1.702993 456.944145,4.269179 C459.934324,6.83536501 461.429391,10.8945438 461.429391,16.4468371 L461.429391,35.9730821 C461.429391,41.5253755 459.934324,45.5845542 456.944145,48.1507402 C453.953966,50.7169262 449.959334,52 444.960129,52 C439.960923,52 435.977972,50.7169262 433.011153,48.1507402 C430.044335,45.5845542 428.560948,41.5253755 428.560948,35.9730821 Z M437.671604,35.9730821 C437.671604,41.3387437 440.101088,44.0215343 444.960129,44.0215343 C449.865891,44.0215343 452.318735,41.3387437 452.318735,35.9730821 L452.318735,16.4468371 C452.318735,11.0811755 449.865891,8.39838493 444.960129,8.39838493 C440.101088,8.39838493 437.671604,11.0811755 437.671604,16.4468371 L437.671604,35.9730821 Z M474.654859,35.9730821 L474.654859,16.4468371 C474.654859,10.8945438 476.138246,6.83536501 479.105064,4.269179 C482.071883,1.702993 486.054834,0.419919246 491.05404,0.419919246 C496.053245,0.419919246 500.047877,1.702993 503.038056,4.269179 C506.028235,6.83536501 507.523302,10.8945438 507.523302,16.4468371 L507.523302,35.9730821 C507.523302,41.5253755 506.028235,45.5845542 503.038056,48.1507402 C500.047877,50.7169262 496.053245,52 491.05404,52 C486.054834,52 482.071883,50.7169262 479.105064,48.1507402 C476.138246,45.5845542 474.654859,41.5253755 474.654859,35.9730821 Z M483.765515,35.9730821 C483.765515,41.3387437 486.194999,44.0215343 491.05404,44.0215343 C495.959802,44.0215343 498.412646,41.3387437 498.412646,35.9730821 L498.412646,16.4468371 C498.412646,11.0811755 495.959802,8.39838493 491.05404,8.39838493 C486.194999,8.39838493 483.765515,11.0811755 483.765515,16.4468371 L483.765515,35.9730821 Z M521.309426,48.7106326 L521.309426,3.21938089 C521.309426,2.28622234 521.753274,1.58636393 522.640984,1.11978466 C523.528693,0.653205384 524.603272,0.419919246 525.864754,0.419919246 C527.126236,0.419919246 528.200815,0.653205384 529.088525,1.11978466 C529.976234,1.58636393 530.420082,2.28622234 530.420082,3.21938089 L530.420082,22.3257066 L545.557787,1.74966353 C546.211889,0.863162907 547.052864,0.419919246 548.080738,0.419919246 C549.248776,0.419919246 550.416797,0.921484441 551.584836,1.92462988 C552.752875,2.92777532 553.336885,3.98922724 553.336885,5.1090175 C553.336885,5.80888641 553.150002,6.39210175 552.77623,6.85868102 L540.231557,22.5356662 L555.509426,45.7711978 C555.836477,46.2377771 556,46.7743352 556,47.3808883 C556,48.5006785 555.42767,49.5388019 554.282992,50.4952894 C553.138314,51.4517769 551.888531,51.9300135 550.533607,51.9300135 C549.13196,51.9300135 548.080741,51.3467981 547.379918,50.1803499 L534.204508,30.2341857 L530.420082,34.9932705 L530.420082,48.7106326 C530.420082,49.5971332 529.964554,50.2969916 529.053484,50.8102288 C528.142413,51.323466 527.079514,51.5800808 525.864754,51.5800808 C524.603272,51.5800808 523.528693,51.323466 522.640984,50.8102288 C521.753274,50.2969916 521.309426,49.5971332 521.309426,48.7106326 Z"/>
  </g>
</svg>
