<svg xmlns="http://www.w3.org/2000/svg" width="456" height="53" viewBox="0 0 456 53">
  <g fill="none" fill-rule="evenodd">
    <path fill="#242424" d="M0,44.54 C0,43.4666613 0.40832925,42.3816722 1.225,41.285 C2.04167075,40.1883279 2.9633282,39.64 3.99,39.64 C4.5966697,39.64 5.28499615,39.9199972 6.055,40.48 C6.82500385,41.0400028 7.57166305,41.65833 8.295,42.335 C9.01833695,43.0116701 10.0566599,43.6299972 11.41,44.19 C12.7633401,44.7500028 14.2566585,45.03 15.89,45.03 C18.1300112,45.03 19.9966592,44.5166718 21.49,43.49 C22.9833408,42.4633282 23.73,40.9466767 23.73,38.94 C23.73,37.539993 23.3216708,36.2916722 22.505,35.195 C21.6883293,34.0983279 20.6150067,33.188337 19.285,32.465 C17.9549934,31.7416631 16.4966746,31.0416701 14.91,30.365 C13.3233254,29.68833 11.7250081,28.9300042 10.115,28.09 C8.50499195,27.2499958 7.03500665,26.3050053 5.705,25.255 C4.37499335,24.2049948 3.30167075,22.8050088 2.485,21.055 C1.66832925,19.3049913 1.26,17.3100112 1.26,15.07 C1.26,12.5966543 1.76166165,10.4150094 2.765,8.525 C3.76833835,6.63499055 5.1099916,5.16500525 6.79,4.115 C8.4700084,3.06499475 10.2666571,2.29500245 12.18,1.805 C14.0933429,1.31499755 16.1233226,1.07 18.27,1.07 C19.4833394,1.07 20.7666599,1.15166585 22.12,1.315 C23.4733401,1.47833415 24.9083258,1.7466648 26.425,2.12 C27.9416743,2.4933352 29.1783286,3.0766627 30.135,3.87 C31.0916715,4.6633373 31.57,5.5966613 31.57,6.67 C31.57,7.6966718 31.2433366,8.75832785 30.59,9.855 C29.9366634,10.9516722 29.0500056,11.5 27.93,11.5 C27.5099979,11.5 26.366676,11.0566711 24.5,10.17 C22.633324,9.2833289 20.5566781,8.84 18.27,8.84 C15.7499874,8.84 13.8016736,9.31832855 12.425,10.275 C11.0483265,11.2316715 10.36,12.5499916 10.36,14.23 C10.36,15.5833401 10.9199944,16.7616617 12.04,17.765 C13.1600056,18.7683384 14.5483251,19.5849969 16.205,20.215 C17.861675,20.8450032 19.6583237,21.6383286 21.595,22.595 C23.5316764,23.5516715 25.3283251,24.5899944 26.985,25.71 C28.641675,26.8300056 30.0299944,28.4516561 31.15,30.575 C32.2700056,32.698344 32.83,35.1833191 32.83,38.03 C32.83,42.8833576 31.301682,46.6283202 28.245,49.265 C25.1883181,51.9016799 21.1633583,53.22 16.17,53.22 C11.7366445,53.22 7.9333492,52.3100091 4.76,50.49 C1.5866508,48.6699909 0,46.6866774 0,44.54 Z M41.49,48.81 C41.49,48.7166662 41.5366662,48.4833352 41.63,48.11 L55.14,4.08 C55.4200014,3.0999951 56.1083279,2.34166935 57.205,1.805 C58.3016722,1.26833065 59.549993,1 60.95,1 C62.350007,1 63.6099944,1.26833065 64.73,1.805 C65.8500056,2.34166935 66.5499986,3.0999951 66.83,4.08 L80.34,48.11 C80.4333338,48.4833352 80.48,48.7166662 80.48,48.81 C80.48,49.8366718 79.8500063,50.7233296 78.59,51.47 C77.3299937,52.2166704 76.0466732,52.59 74.74,52.59 C73.0133247,52.59 71.9866683,51.9833394 71.66,50.77 L69,41.46 L52.97,41.46 L50.31,50.77 C49.9833317,51.9833394 48.9566753,52.59 47.23,52.59 C45.8766599,52.59 44.5816729,52.228337 43.345,51.505 C42.1083272,50.7816631 41.49,49.8833387 41.49,48.81 Z M54.86,34.32 L67.04,34.32 L60.95,12.83 L54.86,34.32 Z M91.31,49.72 L91.31,4.22 C91.31,3.286662 91.7533289,2.586669 92.64,2.12 C93.5266711,1.653331 94.5999937,1.42 95.86,1.42 C97.1200063,1.42 98.1933289,1.653331 99.08,2.12 C99.9666711,2.586669 100.41,3.286662 100.41,4.22 L100.41,44.61 L117.49,44.61 C118.330004,44.61 118.994998,45.0066627 119.485,45.8 C119.975002,46.5933373 120.22,47.5266613 120.22,48.6 C120.22,49.6733387 119.975002,50.6066627 119.485,51.4 C118.994998,52.1933373 118.330004,52.59 117.49,52.59 L95.3,52.59 C94.2266613,52.59 93.2933373,52.3333359 92.5,51.82 C91.7066627,51.3066641 91.31,50.6066711 91.31,49.72 Z M121.04,5.48 C121.04,4.4066613 121.284998,3.46167075 121.775,2.645 C122.265002,1.82832925 122.976662,1.42 123.91,1.42 L153.52,1.42 C154.453338,1.42 155.164998,1.82832925 155.655,2.645 C156.145002,3.46167075 156.39,4.4066613 156.39,5.48 C156.39,6.6000056 156.133336,7.56832925 155.62,8.385 C155.106664,9.20167075 154.406671,9.61 153.52,9.61 L143.3,9.61 L143.3,49.72 C143.3,50.6066711 142.845005,51.3066641 141.935,51.82 C141.024995,52.3333359 139.963339,52.59 138.75,52.59 C137.489994,52.59 136.416671,52.3333359 135.53,51.82 C134.643329,51.3066641 134.2,50.6066711 134.2,49.72 L134.2,9.61 L123.91,9.61 C123.023329,9.61 122.323336,9.2133373 121.81,8.42 C121.296664,7.6266627 121.04,6.6466725 121.04,5.48 Z M167.36,49.72 L167.36,4.29 C167.36,3.4033289 167.756663,2.7033359 168.55,2.19 C169.343337,1.6766641 170.276661,1.42 171.35,1.42 L196.27,1.42 C197.203338,1.42 197.914998,1.8166627 198.405,2.61 C198.895002,3.4033373 199.14,4.3133282 199.14,5.34 C199.14,6.4600056 198.883336,7.4166627 198.37,8.21 C197.856664,9.0033373 197.156671,9.4 196.27,9.4 L176.46,9.4 L176.46,23.4 L187.1,23.4 C187.986671,23.4 188.686664,23.7616631 189.2,24.485 C189.713336,25.208337 189.97,26.0599951 189.97,27.04 C189.97,27.9266711 189.725002,28.7316631 189.235,29.455 C188.744998,30.178337 188.033338,30.54 187.1,30.54 L176.46,30.54 L176.46,44.61 L196.27,44.61 C197.156671,44.61 197.856664,45.0066627 198.37,45.8 C198.883336,46.5933373 199.14,47.5499944 199.14,48.67 C199.14,49.6966718 198.895002,50.6066627 198.405,51.4 C197.914998,52.1933373 197.203338,52.59 196.27,52.59 L171.35,52.59 C170.276661,52.59 169.343337,52.3333359 168.55,51.82 C167.756663,51.3066641 167.36,50.6066711 167.36,49.72 Z"/>
    <path fill="#812525" d="M215,36.56 L215,17.03 C215,11.5233058 216.481652,7.47501295 219.445,4.885 C222.408348,2.29498705 226.293309,1 231.1,1 C236.046691,1 240.071651,2.2133212 243.175,4.64 C246.278349,7.0666788 247.83,10.3333128 247.83,14.44 C247.83,16.1200084 247.468337,17.2633303 246.745,17.87 C246.021663,18.4766697 244.866675,18.78 243.28,18.78 C240.293318,18.78 238.776667,17.8233429 238.73,15.91 C238.589999,13.8566564 238.006672,12.1883397 236.98,10.905 C235.953328,9.62166025 234.110013,8.98 231.45,8.98 C226.549976,8.98 224.1,11.6633065 224.1,17.03 L224.1,36.56 C224.1,41.9266935 226.526642,44.61 231.38,44.61 C233.713345,44.61 235.52166,43.9333401 236.805,42.58 C238.08834,41.2266599 238.73,39.2200133 238.73,36.56 L238.73,32.43 L233.06,32.43 C232.173329,32.43 231.485002,32.0800035 230.995,31.38 C230.504998,30.6799965 230.26,29.8400049 230.26,28.86 C230.26,27.926662 230.516664,27.098337 231.03,26.375 C231.543336,25.651663 232.219996,25.29 233.06,25.29 L244.96,25.29 C245.846671,25.29 246.546664,25.5816638 247.06,26.165 C247.573336,26.7483363 247.83,27.4366627 247.83,28.23 L247.83,36.56 C247.83,42.1133611 246.336682,46.1733205 243.35,48.74 C240.363318,51.3066795 236.373358,52.59 231.38,52.59 C226.386642,52.59 222.408348,51.3066795 219.445,48.74 C216.481652,46.1733205 215,42.1133611 215,36.56 Z M261.04,49.3 L261.04,3.8 C261.04,2.866662 261.483329,2.166669 262.37,1.7 C263.256671,1.233331 264.329994,1 265.59,1 C266.850006,1 267.923329,1.233331 268.81,1.7 C269.696671,2.166669 270.14,2.866662 270.14,3.8 L270.14,49.3 C270.14,50.1866711 269.685005,50.8866641 268.775,51.4 C267.864995,51.9133359 266.803339,52.17 265.59,52.17 C264.329994,52.17 263.256671,51.9133359 262.37,51.4 C261.483329,50.8866641 261.04,50.1866711 261.04,49.3 Z M281.18,5.06 C281.18,3.9866613 281.424998,3.04167075 281.915,2.225 C282.405002,1.40832925 283.116662,1 284.05,1 L313.66,1 C314.593338,1 315.304998,1.40832925 315.795,2.225 C316.285002,3.04167075 316.53,3.9866613 316.53,5.06 C316.53,6.1800056 316.273336,7.14832925 315.76,7.965 C315.246664,8.78167075 314.546671,9.19 313.66,9.19 L303.44,9.19 L303.44,49.3 C303.44,50.1866711 302.985005,50.8866641 302.075,51.4 C301.164995,51.9133359 300.103339,52.17 298.89,52.17 C297.629994,52.17 296.556671,51.9133359 295.67,51.4 C294.783329,50.8866641 294.34,50.1866711 294.34,49.3 L294.34,9.19 L284.05,9.19 C283.163329,9.19 282.463336,8.7933373 281.95,8 C281.436664,7.2066627 281.18,6.2266725 281.18,5.06 Z M327.5,49.3 L327.5,3.8 C327.5,2.866662 327.943329,2.166669 328.83,1.7 C329.716671,1.233331 330.789994,1 332.05,1 C333.310006,1 334.383329,1.233331 335.27,1.7 C336.156671,2.166669 336.6,2.866662 336.6,3.8 L336.6,22.07 L352.35,22.07 L352.35,3.8 C352.35,2.866662 352.793329,2.166669 353.68,1.7 C354.566671,1.233331 355.639994,1 356.9,1 C358.160006,1 359.233329,1.233331 360.12,1.7 C361.006671,2.166669 361.45,2.866662 361.45,3.8 L361.45,49.3 C361.45,50.1866711 360.995005,50.8866641 360.085,51.4 C359.174995,51.9133359 358.113339,52.17 356.9,52.17 C355.639994,52.17 354.566671,51.9133359 353.68,51.4 C352.793329,50.8866641 352.35,50.1866711 352.35,49.3 L352.35,29.21 L336.6,29.21 L336.6,49.3 C336.6,50.1866711 336.145005,50.8866641 335.235,51.4 C334.324995,51.9133359 333.263339,52.17 332.05,52.17 C330.789994,52.17 329.716671,51.9133359 328.83,51.4 C327.943329,50.8866641 327.5,50.1866711 327.5,49.3 Z M375.64,36.56 L375.64,3.8 C375.64,2.866662 376.083329,2.166669 376.97,1.7 C377.856671,1.233331 378.929994,1 380.19,1 C381.450006,1 382.523329,1.233331 383.41,1.7 C384.296671,2.166669 384.74,2.866662 384.74,3.8 L384.74,36.56 C384.74,41.9266935 387.306641,44.61 392.44,44.61 C397.573359,44.61 400.14,41.9266935 400.14,36.56 L400.14,3.8 C400.14,2.866662 400.583329,2.166669 401.47,1.7 C402.356671,1.233331 403.429994,1 404.69,1 C405.950006,1 407.023329,1.233331 407.91,1.7 C408.796671,2.166669 409.24,2.866662 409.24,3.8 L409.24,36.56 C409.24,42.0666942 407.711682,46.1149871 404.655,48.705 C401.598318,51.295013 397.526692,52.59 392.44,52.59 C387.353308,52.59 383.281682,51.3066795 380.225,48.74 C377.168318,46.1733205 375.64,42.1133611 375.64,36.56 Z M423.43,49.37 L423.43,3.87 C423.43,2.9833289 423.826663,2.2833359 424.62,1.77 C425.413337,1.2566641 426.346661,1 427.42,1 L440.93,1 C450.310047,1 455,5.1066256 455,13.32 C455,19.0133618 453.016686,22.7233247 449.05,24.45 C451.430012,25.383338 453.226661,26.7016581 454.44,28.405 C455.653339,30.1083419 456.26,32.593317 456.26,35.86 L456.26,37.33 C456.26,42.5100259 455.000013,46.2783216 452.48,48.635 C449.959987,50.9916785 446.553355,52.17 442.26,52.17 L427.42,52.17 C426.253328,52.17 425.29667,51.8900028 424.55,51.33 C423.80333,50.7699972 423.43,50.1166704 423.43,49.37 Z M432.46,44.19 L440.37,44.19 C444.896689,44.19 447.16,41.6466921 447.16,36.56 L447.16,35.44 C447.16,32.8266536 446.588339,30.9366725 445.445,29.77 C444.301661,28.6033275 442.610011,28.02 440.37,28.02 L432.46,28.02 L432.46,44.19 Z M432.46,20.88 L440.3,20.88 C442.120009,20.88 443.508329,20.3433387 444.465,19.27 C445.421671,18.1966613 445.9,16.726676 445.9,14.86 C445.9,13.0399909 445.398338,11.6050052 444.395,10.555 C443.391662,9.50499475 442.003342,8.98 440.23,8.98 L432.46,8.98 L432.46,20.88 Z"/>
  </g>
</svg>
