<svg xmlns="http://www.w3.org/2000/svg" width="445" height="53" viewBox="0 0 445 53">
  <g fill="none" fill-rule="evenodd">
    <path fill="#242424" fill-rule="nonzero" d="M0,43.3565684 C0,42.2877516 0.408042185,41.2073334 1.2241388,40.1152815 C2.04023541,39.0232296 2.96124491,38.4772118 3.98719494,38.4772118 C4.59343814,38.4772118 5.28128068,38.7560294 6.0507432,39.3136729 C6.82020572,39.8713165 7.56634,40.4870386 8.28916842,41.1608579 C9.01199685,41.8346772 10.0495898,42.4503994 11.4019785,43.0080429 C12.7543672,43.5656864 14.2466357,43.844504 15.878829,43.844504 C18.1172654,43.844504 19.9826011,43.3333384 21.474892,42.310992 C22.967183,41.2886455 23.7133173,39.7783835 23.7133173,37.7801609 C23.7133173,36.386052 23.3052751,35.1429903 22.4891785,34.0509383 C21.6730819,32.9588864 20.6005138,32.0527292 19.2714422,31.3324397 C17.9423706,30.6121501 16.4850771,29.9151061 14.8995179,29.2412869 C13.3139588,28.5674676 11.7167651,27.8123366 10.1078889,26.9758713 C8.49901275,26.139406 7.03006088,25.1983966 5.70098925,24.152815 C4.37191763,23.1072334 3.2993496,21.7131454 2.48325299,19.9705094 C1.66715638,18.2278733 1.25911419,16.241298 1.25911419,14.0107239 C1.25911419,11.5477982 1.76042316,9.37534453 2.76305614,7.49329759 C3.76568912,5.61125064 5.10639916,4.14745831 6.78522647,3.10187668 C8.46405379,2.05629504 10.2594394,1.28954668 12.1714372,0.801608579 C14.083435,0.313670483 16.1119875,0.0697050938 18.2571558,0.0697050938 C19.4696422,0.0697050938 20.7520605,0.15102689 22.1044491,0.313672922 C23.4568378,0.476318954 24.8908146,0.743519142 26.4064226,1.1152815 C27.9220306,1.48704386 29.1578155,2.06791383 30.1138144,2.85790885 C31.0698133,3.64790386 31.5478056,4.57729582 31.5478056,5.6461126 C31.5478056,6.66845909 31.2213718,7.72564244 30.5684945,8.81769437 C29.9156172,9.9097463 29.0295828,10.4557641 27.9103646,10.4557641 C27.4906577,10.4557641 26.3481396,10.0143029 24.4827759,9.13136729 C22.6174123,8.24843169 20.5422263,7.80697051 18.2571558,7.80697051 C15.7389148,7.80697051 13.7919707,8.28328389 12.4162649,9.23592493 C11.0405592,10.188566 10.3527167,11.5013321 10.3527167,13.1742627 C10.3527167,14.5219013 10.9123174,15.6952586 12.0315356,16.69437 C13.1507538,17.6934813 14.5380972,18.5066993 16.1936075,19.1340483 C17.8491178,19.7613972 19.6445034,20.5513804 21.5798182,21.5040214 C23.515133,22.4566625 25.3105187,23.490611 26.9660289,24.6058981 C28.6215392,25.7211852 30.0088826,27.3360037 31.1281008,29.4504021 C32.247319,31.5648006 32.8069198,34.0393066 32.8069198,36.8739946 C32.8069198,41.7069053 31.2796761,45.4360905 28.2251431,48.0616622 C25.1706101,50.6872339 21.14848,52 16.1586321,52 C11.7283934,52 7.92777187,51.0938428 4.75665361,49.2815013 C1.58553535,47.4691598 0,45.4942019 0,43.3565684 Z M41.4608316,47.6085791 C41.4608316,47.5156385 41.507465,47.2832905 41.6007332,46.9115282 L55.1012353,3.06702413 C55.3810399,2.09114794 56.0688824,1.33601697 57.1647836,0.801608579 C58.2606847,0.267200188 59.508128,0 60.9071507,0 C62.3061735,0 63.5652751,0.267200188 64.6844933,0.801608579 C65.8037115,1.33601697 66.5032124,2.09114794 66.783017,3.06702413 L80.2835191,46.9115282 C80.3767873,47.2832905 80.4234207,47.5156385 80.4234207,47.6085791 C80.4234207,48.6309256 79.7938699,49.5138479 78.5347494,50.2573727 C77.2756289,51.0008974 75.9932106,51.3726542 74.6874561,51.3726542 C72.9619947,51.3726542 71.93606,50.7685494 71.6096214,49.5603217 L68.9514914,40.2895442 L52.9327609,40.2895442 L50.2746309,49.5603217 C49.9481923,50.7685494 48.9222576,51.3726542 47.1967962,51.3726542 C45.8444076,51.3726542 44.5503309,51.0125148 43.3145275,50.2922252 C42.078724,49.5719356 41.4608316,48.6773959 41.4608316,47.6085791 Z M54.8214322,33.1796247 L66.9928693,33.1796247 L60.9071507,11.7801609 L54.8214322,33.1796247 Z M91.245807,48.5147453 L91.245807,3.20643432 C91.245807,2.27702842 91.6888242,1.57998445 92.5748719,1.1152815 C93.4609197,0.650578552 94.5334877,0.418230563 95.7926082,0.418230563 C97.0517287,0.418230563 98.1242967,0.650578552 99.0103445,1.1152815 C99.8963922,1.57998445 100.339409,2.27702842 100.339409,3.20643432 L100.339409,43.4262735 L117.407402,43.4262735 C118.246815,43.4262735 118.911341,43.821265 119.400999,44.6112601 C119.890657,45.4012551 120.135483,46.330647 120.135483,47.3994638 C120.135483,48.4682806 119.890657,49.3976725 119.400999,50.1876676 C118.911341,50.9776626 118.246815,51.3726542 117.407402,51.3726542 L95.2330019,51.3726542 C94.1604178,51.3726542 93.2277499,51.1170714 92.4349704,50.6058981 C91.6421908,50.0947249 91.245807,49.3976809 91.245807,48.5147453 Z M120.954906,4.46112601 C120.954906,3.39230922 121.199731,2.45129987 121.689389,1.63806971 C122.179047,0.824839544 122.890207,0.418230563 123.822888,0.418230563 L153.412072,0.418230563 C154.344754,0.418230563 155.055913,0.824839544 155.545571,1.63806971 C156.035229,2.45129987 156.280054,3.39230922 156.280054,4.46112601 C156.280054,5.57641308 156.023571,6.54065724 155.510596,7.3538874 C154.997621,8.16711756 154.29812,8.57372654 153.412072,8.57372654 L143.199257,8.57372654 L143.199257,48.5147453 C143.199257,49.3976809 142.744581,50.0947249 141.835216,50.6058981 C140.925852,51.1170714 139.864942,51.3726542 138.652456,51.3726542 C137.393335,51.3726542 136.320767,51.1170714 135.434719,50.6058981 C134.548672,50.0947249 134.105654,49.3976809 134.105654,48.5147453 L134.105654,8.57372654 L123.822888,8.57372654 C122.936841,8.57372654 122.23734,8.17873496 121.724365,7.38873995 C121.21139,6.59874493 120.954906,5.62288338 120.954906,4.46112601 Z M167.242342,48.5147453 L167.242342,3.27613941 C167.242342,2.39320381 167.638726,1.69615984 168.431505,1.1849866 C169.224285,0.673813351 170.156953,0.418230563 171.229537,0.418230563 L196.132018,0.418230563 C197.0647,0.418230563 197.775859,0.813222145 198.265517,1.60321716 C198.755175,2.39321217 199,3.29936933 199,4.32171582 C199,5.4370029 198.743516,6.38962965 198.230541,7.17962466 C197.717566,7.96961968 197.018065,8.36461126 196.132018,8.36461126 L176.335945,8.36461126 L176.335945,22.30563 L186.968464,22.30563 C187.854512,22.30563 188.554013,22.6657694 189.066988,23.386059 C189.579963,24.1063486 189.836447,24.9544187 189.836447,25.9302949 C189.836447,26.8132305 189.591621,27.6148311 189.101963,28.3351206 C188.612305,29.0554102 187.901146,29.4155496 186.968464,29.4155496 L176.335945,29.4155496 L176.335945,43.4262735 L196.132018,43.4262735 C197.018065,43.4262735 197.717566,43.821265 198.230541,44.6112601 C198.743516,45.4012551 199,46.3538818 199,47.4691689 C199,48.4915154 198.755175,49.3976725 198.265517,50.1876676 C197.775859,50.9776626 197.0647,51.3726542 196.132018,51.3726542 L171.229537,51.3726542 C170.156953,51.3726542 169.224285,51.1170714 168.431505,50.6058981 C167.638726,50.0947249 167.242342,49.3976809 167.242342,48.5147453 Z"/>
    <path fill="#CA5454" fill-rule="nonzero" d="M214,35.9730821 L214,16.4468371 C214,10.9412017 215.478707,6.89368724 218.436166,4.30417227 C221.393625,1.71465731 225.270865,0.419919246 230.068003,0.419919246 C235.004864,0.419919246 239.021824,1.63300716 242.119005,4.05921938 C245.216187,6.4854316 246.764754,9.75143752 246.764754,13.8573351 C246.764754,15.5370205 246.40381,16.6801226 245.68191,17.2866756 C244.960011,17.8932287 243.807318,18.1965007 242.223797,18.1965007 C239.243051,18.1965007 237.729414,17.2400275 237.682839,15.3270525 C237.543117,13.2741037 236.960949,11.6061078 235.936317,10.3230148 C234.911686,9.0399218 233.072034,8.39838493 230.417308,8.39838493 C225.527021,8.39838493 223.081915,11.0811755 223.081915,16.4468371 L223.081915,35.9730821 C223.081915,41.3387437 225.503735,44.0215343 230.347447,44.0215343 C232.676154,44.0215343 234.480876,43.3450045 235.761665,41.9919246 C237.042454,40.6388447 237.682839,38.632584 237.682839,35.9730821 L237.682839,31.8438762 L232.024108,31.8438762 C231.139199,31.8438762 230.45224,31.493947 229.963212,30.7940781 C229.474183,30.0942092 229.229673,29.2543791 229.229673,28.2745626 C229.229673,27.341404 229.485827,26.5132383 229.998142,25.7900404 C230.510458,25.0668425 231.185773,24.705249 232.024108,24.705249 L243.900458,24.705249 C244.785367,24.705249 245.483969,24.9968567 245.996284,25.5800808 C246.5086,26.1633048 246.764754,26.851499 246.764754,27.6446837 L246.764754,35.9730821 C246.764754,41.5253755 245.274404,45.5845542 242.293658,48.1507402 C239.312912,50.7169262 235.330881,52 230.347447,52 C225.364012,52 221.393625,50.7169262 218.436166,48.1507402 C215.478707,45.5845542 214,41.5253755 214,35.9730821 Z M259.948501,48.7106326 L259.948501,3.21938089 C259.948501,2.28622234 260.390949,1.58636393 261.275858,1.11978466 C262.160767,0.653205384 263.231956,0.419919246 264.489458,0.419919246 C265.74696,0.419919246 266.81815,0.653205384 267.703059,1.11978466 C268.587968,1.58636393 269.030416,2.28622234 269.030416,3.21938089 L269.030416,48.7106326 C269.030416,49.5971332 268.576324,50.2969916 267.668128,50.8102288 C266.759932,51.323466 265.700386,51.5800808 264.489458,51.5800808 C263.231956,51.5800808 262.160767,51.323466 261.275858,50.8102288 C260.390949,50.2969916 259.948501,49.5971332 259.948501,48.7106326 Z M280.048475,4.47913863 C280.048475,3.4060063 280.292986,2.46119744 280.782014,1.64468371 C281.271043,0.828169987 281.981288,0.419919246 282.912771,0.419919246 L312.463925,0.419919246 C313.395408,0.419919246 314.105653,0.828169987 314.594682,1.64468371 C315.08371,2.46119744 315.328221,3.4060063 315.328221,4.47913863 C315.328221,5.59892888 315.072067,6.56706635 314.559751,7.38358008 C314.047435,8.20009381 313.348834,8.60834455 312.463925,8.60834455 L302.264236,8.60834455 L302.264236,48.7106326 C302.264236,49.5971332 301.810145,50.2969916 300.901949,50.8102288 C299.993752,51.323466 298.934206,51.5800808 297.723278,51.5800808 C296.465776,51.5800808 295.394587,51.323466 294.509678,50.8102288 C293.624769,50.2969916 293.182321,49.5971332 293.182321,48.7106326 L293.182321,8.60834455 L282.912771,8.60834455 C282.027862,8.60834455 281.32926,8.21175812 280.816945,7.41857335 C280.304629,6.62538859 280.048475,5.64558681 280.048475,4.47913863 Z M326.276419,48.7106326 L326.276419,3.21938089 C326.276419,2.28622234 326.718867,1.58636393 327.603776,1.11978466 C328.488685,0.653205384 329.559874,0.419919246 330.817377,0.419919246 C332.074879,0.419919246 333.146068,0.653205384 334.030977,1.11978466 C334.915886,1.58636393 335.358334,2.28622234 335.358334,3.21938089 L335.358334,43.6016151 L352.40439,43.6016151 C353.242724,43.6016151 353.906396,43.9982015 354.395425,44.7913863 C354.884453,45.584571 355.128964,46.5177156 355.128964,47.5908479 C355.128964,48.6639802 354.884453,49.5971248 354.395425,50.3903096 C353.906396,51.1834943 353.242724,51.5800808 352.40439,51.5800808 L330.25849,51.5800808 C329.187284,51.5800808 328.255815,51.323466 327.464054,50.8102288 C326.672294,50.2969916 326.276419,49.5971332 326.276419,48.7106326 Z M362.514257,47.8008075 C362.514257,47.7074917 362.560831,47.4742055 362.653979,47.1009421 L376.13713,3.07940781 C376.416574,2.09959133 377.103533,1.34141139 378.198026,0.804845222 C379.292518,0.268279058 380.538358,0 381.935583,0 C383.332807,0 384.590291,0.268279058 385.708071,0.804845222 C386.82585,1.34141139 387.524452,2.09959133 387.803897,3.07940781 L401.287047,47.1009421 C401.380196,47.4742055 401.426769,47.7074917 401.426769,47.8008075 C401.426769,48.8272819 400.798028,49.7137693 399.540525,50.4602961 C398.283023,51.2068229 397.002253,51.5800808 395.698177,51.5800808 C393.974933,51.5800808 392.950317,50.9735368 392.624298,49.7604307 L389.969584,40.4522207 L373.971442,40.4522207 L371.316729,49.7604307 C370.99071,50.9735368 369.966093,51.5800808 368.24285,51.5800808 C366.892199,51.5800808 365.599786,51.2184872 364.365571,50.4952894 C363.131356,49.7720915 362.514257,48.8739399 362.514257,47.8008075 Z M375.857686,33.3135935 L388.01348,33.3135935 L381.935583,11.8277254 L375.857686,33.3135935 Z M412.235246,48.7806191 L412.235246,3.28936743 C412.235246,2.40286681 412.63112,1.7030084 413.422881,1.1897712 C414.214641,0.676533997 415.146111,0.419919246 416.217316,0.419919246 L429.700467,0.419919246 C439.061872,0.419919246 443.742504,4.52575526 443.742504,12.7375505 C443.742504,18.4298176 441.763132,22.1390672 437.804329,23.8654105 C440.179611,24.798569 441.972689,26.1166357 443.183617,27.8196501 C444.394545,29.5226644 445,32.0071618 445,35.2732167 L445,36.7429341 C445,41.921964 443.742517,45.6895351 441.227512,48.0457604 C438.712508,50.4019858 435.312646,51.5800808 431.027823,51.5800808 L416.217316,51.5800808 C415.052962,51.5800808 414.098206,51.3001374 413.35302,50.7402423 C412.607833,50.1803471 412.235246,49.5271459 412.235246,48.7806191 Z M421.2473,43.6016151 L429.14158,43.6016151 C433.659273,43.6016151 435.918085,41.0587962 435.918085,35.9730821 L435.918085,34.8532974 C435.918085,32.2404535 435.34756,30.3508358 434.206494,29.1843876 C433.065427,28.0179394 431.377139,27.4347241 429.14158,27.4347241 L421.2473,27.4347241 L421.2473,43.6016151 Z M421.2473,20.2960969 L429.071719,20.2960969 C430.888111,20.2960969 432.273671,19.7595388 433.228441,18.6864065 C434.183211,17.6132741 434.660589,16.1435715 434.660589,14.2772544 C434.660589,12.4575952 434.159925,11.0228855 433.15858,9.9730821 C432.157236,8.92327873 430.771676,8.39838493 429.001858,8.39838493 L421.2473,8.39838493 L421.2473,20.2960969 Z"/>
  </g>
</svg>
