<svg xmlns="http://www.w3.org/2000/svg" width="470" height="53" viewBox="0 0 470 53">
  <g fill="none" fill-rule="evenodd">
    <path fill="#242424" fill-rule="nonzero" d="M17.1586321,53 C22.148455,53 26.1706254,51.6872207 29.2251431,49.0616622 C32.2796609,46.4361037 33.8069198,42.7068811 33.8069198,37.8739946 C33.8069198,35.0393208 33.2473134,32.56479 32.1281008,30.4504021 C31.0088882,28.3360143 29.6215309,26.7211796 27.9660289,25.6058981 C26.3105269,24.4906166 24.5151234,23.4566577 22.5798182,22.5040214 C20.6445131,21.5513852 18.8491095,20.7613941 17.1936075,20.1340483 C15.5381055,19.5067024 14.1507482,18.6934763 13.0315356,17.69437 C11.912323,16.6952636 11.3527167,15.5218945 11.3527167,14.1742627 C11.3527167,12.5013405 12.0405661,11.1885612 13.4162649,10.2359249 C14.7919638,9.28328865 16.7389274,8.80697051 19.2571558,8.80697051 C21.5422149,8.80697051 23.6174216,9.2484361 25.4827759,10.1313673 C27.3481303,11.0142985 28.4906598,11.4557641 28.9103646,11.4557641 C30.0295772,11.4557641 30.9156205,10.9097408 31.5684945,9.81769437 C32.2213686,8.7256479 32.5478056,7.66845398 32.5478056,6.6461126 C32.5478056,5.57730116 32.0698085,4.64789991 31.1138144,3.85790885 C30.1578203,3.06791778 28.922023,2.487042 27.4064226,2.1152815 C25.8908222,1.743521 24.456831,1.47631814 23.1044491,1.31367292 C21.7520672,1.1510277 20.4696361,1.06970509 19.2571558,1.06970509 C17.1119983,1.06970509 15.0834254,1.31367292 13.1714372,1.80160858 C11.259449,2.28954424 9.4640454,3.05630027 7.78522647,4.10187668 C6.10640755,5.14745308 4.76568411,6.61126005 3.76305614,8.49329759 C2.76042817,10.3753351 2.25911419,12.5478105 2.25911419,15.0107239 C2.25911419,17.2412869 2.66716046,19.227882 3.48325299,20.9705094 C4.29934552,22.7131367 5.37192427,24.1072386 6.70098925,25.152815 C8.03005423,26.1983914 9.49902079,27.1394102 11.1078889,27.9758713 C12.7167571,28.8123324 14.3139667,29.567471 15.8995179,30.2412869 C17.4850691,30.9151028 18.9423772,31.6121537 20.2714422,32.3324397 C21.6005072,33.0527256 22.6730859,33.9588919 23.4891785,35.0509383 C24.305271,36.1429848 24.7133173,37.386059 24.7133173,38.7801609 C24.7133173,40.7783735 23.9671755,42.2886506 22.474892,43.310992 C20.9826086,44.3333333 19.1172542,44.844504 16.878829,44.844504 C15.2466439,44.844504 13.7543604,44.5656836 12.4019785,44.0080429 C11.0495966,43.4504021 10.0119932,42.8346738 9.28916842,42.1608579 C8.56634361,41.487042 7.82020187,40.8713137 7.0507432,40.3136729 C6.28128452,39.7560322 5.5934351,39.4772118 4.98719494,39.4772118 C3.96125004,39.4772118 3.04023133,40.023235 2.2241388,41.1152815 C1.40804627,42.207328 1,43.2877569 1,44.3565684 C1,46.4941912 2.5855512,48.4691689 5.75665361,50.2815013 C8.92775602,52.0938338 12.7284155,53 17.1586321,53 Z M75.6874561,52.3726542 C76.9932041,52.3726542 78.2756352,52.0008937 79.5347494,51.2573727 C80.7938636,50.5138517 81.4234207,49.6309205 81.4234207,48.6085791 C81.4234207,48.515639 81.3767869,48.2832887 81.2835191,47.9115282 L81.2835191,47.9115282 L67.783017,4.06702413 C67.5032138,3.09115282 66.8037059,2.3360143 65.6844933,1.80160858 C64.5652807,1.26720286 63.3061665,1 61.9071507,1 C60.508135,1 59.2606793,1.26720286 58.1647836,1.80160858 C57.0688879,2.3360143 56.3810385,3.09115282 56.1012353,4.06702413 L56.1012353,4.06702413 L42.6007332,47.9115282 C42.5074654,48.2832887 42.4608316,48.515639 42.4608316,48.6085791 C42.4608316,49.6773905 43.0787302,50.5719392 44.3145275,51.2922252 C45.5503247,52.0125112 46.8444143,52.3726542 48.1967962,52.3726542 C49.922249,52.3726542 50.9481939,51.7685433 51.2746309,50.5603217 L51.2746309,50.5603217 L53.9327609,41.2895442 L69.9514914,41.2895442 L72.6096214,50.5603217 C72.9360584,51.7685433 73.9620033,52.3726542 75.6874561,52.3726542 Z M67.9928693,34.1796247 L55.8214322,34.1796247 L61.9071507,12.7801609 L67.9928693,34.1796247 Z M118.407402,52.3726542 C119.246811,52.3726542 119.911344,51.9776586 120.400999,51.1876676 C120.890655,50.3976765 121.135483,49.4682752 121.135483,48.3994638 C121.135483,47.3306524 120.890655,46.4012511 120.400999,45.6112601 C119.911344,44.821269 119.246811,44.4262735 118.407402,44.4262735 L118.407402,44.4262735 L101.339409,44.4262735 L101.339409,4.20643432 C101.339409,3.27703307 100.896388,2.57998213 100.010344,2.1152815 C99.1243012,1.65058088 98.0517224,1.41823056 96.7926082,1.41823056 C95.533494,1.41823056 94.4609153,1.65058088 93.5748719,2.1152815 C92.6888286,2.57998213 92.245807,3.27703307 92.245807,4.20643432 L92.245807,4.20643432 L92.245807,49.5147453 C92.245807,50.3976765 92.6421948,51.0947274 93.4349704,51.6058981 C94.227746,52.1170688 95.1604232,52.3726542 96.2330019,52.3726542 L96.2330019,52.3726542 L118.407402,52.3726542 Z M139.652456,52.3726542 C140.864936,52.3726542 141.925856,52.1170688 142.835216,51.6058981 C143.744577,51.0947274 144.199257,50.3976765 144.199257,49.5147453 L144.199257,49.5147453 L144.199257,9.57372654 L154.412072,9.57372654 C155.298115,9.57372654 155.997623,9.16711349 156.510596,8.3538874 C157.023568,7.5406613 157.280054,6.57640751 157.280054,5.46112601 C157.280054,4.39231457 157.035226,3.4512958 156.545571,2.63806971 C156.055915,1.82484361 155.344749,1.41823056 154.412072,1.41823056 L154.412072,1.41823056 L124.822888,1.41823056 C123.890211,1.41823056 123.179045,1.82484361 122.689389,2.63806971 C122.199734,3.4512958 121.954906,4.39231457 121.954906,5.46112601 C121.954906,6.62287757 122.211392,7.59874888 122.724365,8.38873995 C123.237337,9.17873101 123.936845,9.57372654 124.822888,9.57372654 L124.822888,9.57372654 L135.105654,9.57372654 L135.105654,49.5147453 C135.105654,50.3976765 135.548676,51.0947274 136.434719,51.6058981 C137.320763,52.1170688 138.393341,52.3726542 139.652456,52.3726542 Z M197.132018,52.3726542 C198.064695,52.3726542 198.775861,51.9776586 199.265517,51.1876676 C199.755172,50.3976765 200,49.4915103 200,48.4691689 C200,47.3538874 199.743514,46.4012511 199.230541,45.6112601 C198.717569,44.821269 198.018061,44.4262735 197.132018,44.4262735 L197.132018,44.4262735 L177.335945,44.4262735 L177.335945,30.4155496 L187.968464,30.4155496 C188.901142,30.4155496 189.612308,30.0554066 190.101963,29.3351206 C190.591619,28.6148347 190.836447,27.8132261 190.836447,26.9302949 C190.836447,25.9544236 190.57996,25.106345 190.066988,24.386059 C189.554016,23.665773 188.854508,23.30563 187.968464,23.30563 L187.968464,23.30563 L177.335945,23.30563 L177.335945,9.36461126 L197.132018,9.36461126 C198.018061,9.36461126 198.717569,8.96961573 199.230541,8.17962466 C199.743514,7.3896336 200,6.43699732 200,5.32171582 C200,4.29937444 199.755172,3.39320822 199.265517,2.60321716 C198.775861,1.81322609 198.064695,1.41823056 197.132018,1.41823056 L197.132018,1.41823056 L172.229537,1.41823056 C171.156958,1.41823056 170.224281,1.67381591 169.431505,2.1849866 C168.63873,2.69615728 168.242342,3.39320822 168.242342,4.27613941 L168.242342,4.27613941 L168.242342,49.5147453 C168.242342,50.3976765 168.63873,51.0947274 169.431505,51.6058981 C170.224281,52.1170688 171.156958,52.3726542 172.229537,52.3726542 L172.229537,52.3726542 L197.132018,52.3726542 Z"/>
    <path fill="#CA5454" fill-rule="nonzero" d="M231.363316,53 C236.351563,53 240.337499,51.7064677 243.321124,49.119403 C246.304748,46.5323383 247.79656,42.4400724 247.79656,36.8426052 L247.79656,36.8426052 L247.79656,28.4464043 C247.79656,27.6467662 247.540155,26.9529625 247.027345,26.3649932 C246.514534,25.777024 245.815247,25.4830393 244.929484,25.4830393 L244.929484,25.4830393 L233.041605,25.4830393 C232.20246,25.4830393 231.526483,25.8475803 231.013672,26.5766621 C230.500862,27.305744 230.244457,28.1406603 230.244457,29.0814111 C230.244457,30.0691995 230.489207,30.9158752 230.978708,31.6214383 C231.468209,32.3270014 232.155841,32.6797829 233.041605,32.6797829 L233.041605,32.6797829 L238.705829,32.6797829 L238.705829,36.8426052 C238.705829,39.5237449 238.064816,41.5463591 236.78279,42.9104478 C235.500764,44.2745364 233.694273,44.9565807 231.363316,44.9565807 C226.514926,44.9565807 224.090731,42.2519222 224.090731,36.8426052 L224.090731,36.8426052 L224.090731,17.1573948 C224.090731,11.7480778 226.538236,9.04341927 231.433245,9.04341927 C234.090535,9.04341927 235.931991,9.69018544 236.957612,10.9837178 C237.983233,12.2772501 238.565972,13.9588422 238.705829,16.0284939 C238.752448,17.957033 240.26757,18.9213026 243.251195,18.9213026 C244.836245,18.9213026 245.990069,18.6155586 246.712666,18.0040706 C247.435262,17.3925825 247.79656,16.2401628 247.79656,14.5468114 C247.79656,10.4075079 246.246474,7.11488014 243.146302,4.66892809 C240.046129,2.22297603 236.025229,1 231.083601,1 C226.28183,1 222.400787,2.30529172 219.440472,4.91587517 C216.480157,7.52645862 215,11.6069652 215,17.1573948 L215,17.1573948 L215,36.8426052 C215,42.4400724 216.480157,46.5323383 219.440472,49.119403 C222.400787,51.7064677 226.375069,53 231.363316,53 Z M276.796991,53 C281.785239,53 285.771174,51.7064677 288.754799,49.119403 C291.738424,46.5323383 293.230236,42.4400724 293.230236,36.8426052 L293.230236,36.8426052 L293.230236,17.1573948 C293.230236,11.5599276 291.738424,7.46766169 288.754799,4.88059701 C285.771174,2.29353234 281.785239,1 276.796991,1 C271.808744,1 267.834463,2.29353234 264.874148,4.88059701 C261.913833,7.46766169 260.433675,11.5599276 260.433675,17.1573948 L260.433675,17.1573948 L260.433675,36.8426052 C260.433675,42.4400724 261.913833,46.5323383 264.874148,49.119403 C267.834463,51.7064677 271.808744,53 276.796991,53 Z M276.796991,44.9565807 C271.948601,44.9565807 269.524406,42.2519222 269.524406,36.8426052 L269.524406,36.8426052 L269.524406,17.1573948 C269.524406,11.7480778 271.948601,9.04341927 276.796991,9.04341927 C281.692,9.04341927 284.139505,11.7480778 284.139505,17.1573948 L284.139505,17.1573948 L284.139505,36.8426052 C284.139505,42.2519222 281.692,44.9565807 276.796991,44.9565807 Z M322.790096,53 C327.778344,53 331.76428,51.7064677 334.747904,49.119403 C337.731529,46.5323383 339.223341,42.4400724 339.223341,36.8426052 L339.223341,36.8426052 L339.223341,17.1573948 C339.223341,11.5599276 337.731529,7.46766169 334.747904,4.88059701 C331.76428,2.29353234 327.778344,1 322.790096,1 C317.801849,1 313.827568,2.29353234 310.867253,4.88059701 C307.906938,7.46766169 306.426781,11.5599276 306.426781,17.1573948 L306.426781,17.1573948 L306.426781,36.8426052 C306.426781,42.4400724 307.906938,46.5323383 310.867253,49.119403 C313.827568,51.7064677 317.801849,53 322.790096,53 Z M322.790096,44.9565807 C317.941706,44.9565807 315.517512,42.2519222 315.517512,36.8426052 L315.517512,36.8426052 L315.517512,17.1573948 C315.517512,11.7480778 317.941706,9.04341927 322.790096,9.04341927 C327.685105,9.04341927 330.13261,11.7480778 330.13261,17.1573948 L330.13261,17.1573948 L330.13261,36.8426052 C330.13261,42.2519222 327.685105,44.9565807 322.790096,44.9565807 Z M368.783201,53 C373.771449,53 377.757385,51.7064677 380.741009,49.119403 C383.724634,46.5323383 385.216446,42.4400724 385.216446,36.8426052 L385.216446,36.8426052 L385.216446,28.4464043 C385.216446,27.6467662 384.960041,26.9529625 384.44723,26.3649932 C383.93442,25.777024 383.235133,25.4830393 382.349369,25.4830393 L382.349369,25.4830393 L370.46149,25.4830393 C369.622346,25.4830393 368.946368,25.8475803 368.433558,26.5766621 C367.920747,27.305744 367.664342,28.1406603 367.664342,29.0814111 C367.664342,30.0691995 367.909093,30.9158752 368.398594,31.6214383 C368.888094,32.3270014 369.575727,32.6797829 370.46149,32.6797829 L370.46149,32.6797829 L376.125715,32.6797829 L376.125715,36.8426052 C376.125715,39.5237449 375.484702,41.5463591 374.202676,42.9104478 C372.92065,44.2745364 371.114158,44.9565807 368.783201,44.9565807 C363.934812,44.9565807 361.510617,42.2519222 361.510617,36.8426052 L361.510617,36.8426052 L361.510617,17.1573948 C361.510617,11.7480778 363.958121,9.04341927 368.85313,9.04341927 C371.510421,9.04341927 373.351877,9.69018544 374.377497,10.9837178 C375.403118,12.2772501 375.985858,13.9588422 376.125715,16.0284939 C376.172334,17.957033 377.687456,18.9213026 380.67108,18.9213026 C382.256131,18.9213026 383.409955,18.6155586 384.132551,18.0040706 C384.855148,17.3925825 385.216446,16.2401628 385.216446,14.5468114 C385.216446,10.4075079 383.66636,7.11488014 380.566187,4.66892809 C377.466015,2.22297603 373.445115,1 368.503487,1 C363.701716,1 359.820673,2.30529172 356.860358,4.91587517 C353.900043,7.52645862 352.419886,11.6069652 352.419886,17.1573948 L352.419886,17.1573948 L352.419886,36.8426052 C352.419886,42.4400724 353.900043,46.5323383 356.860358,49.119403 C359.820673,51.7064677 363.794954,53 368.783201,53 Z M424.566325,52.5766621 C425.405469,52.5766621 426.069792,52.1768431 426.559292,51.3772049 C427.048793,50.5775667 427.293544,49.6368159 427.293544,48.5549525 C427.293544,47.4730891 427.048793,46.5323383 426.559292,45.7327001 C426.069792,44.933062 425.405469,44.5332429 424.566325,44.5332429 L424.566325,44.5332429 L407.503722,44.5332429 L407.503722,3.82225237 C407.503722,2.88150158 407.06084,2.17593849 406.175076,1.70556309 C405.289313,1.2351877 404.217073,1 402.958356,1 C401.69964,1 400.6274,1.2351877 399.741636,1.70556309 C398.855872,2.17593849 398.412991,2.88150158 398.412991,3.82225237 L398.412991,3.82225237 L398.412991,49.6838535 C398.412991,50.5775667 398.809253,51.2831298 399.601779,51.8005427 C400.394304,52.3179557 401.326687,52.5766621 402.398927,52.5766621 L402.398927,52.5766621 L424.566325,52.5766621 Z M467.132923,52.5766621 C468.065306,52.5766621 468.776248,52.1768431 469.265749,51.3772049 C469.75525,50.5775667 470,49.6603347 470,48.6255088 C470,47.4966079 469.743595,46.5323383 469.230784,45.7327001 C468.717974,44.933062 468.018687,44.5332429 467.132923,44.5332429 L467.132923,44.5332429 L447.343101,44.5332429 L447.343101,30.3514247 L457.972264,30.3514247 C458.904646,30.3514247 459.615588,29.9868838 460.105089,29.2578019 C460.59459,28.52872 460.83934,27.7173225 460.83934,26.8236092 C460.83934,25.8358209 460.582935,24.9773858 460.070125,24.2483039 C459.557314,23.5192221 458.858027,23.1546811 457.972264,23.1546811 L457.972264,23.1546811 L447.343101,23.1546811 L447.343101,9.04341927 L467.132923,9.04341927 C468.018687,9.04341927 468.717974,8.64360018 469.230784,7.84396201 C469.743595,7.04432384 470,6.08005427 470,4.95115332 C470,3.91632745 469.75525,2.99909543 469.265749,2.19945726 C468.776248,1.39981909 468.065306,1 467.132923,1 L467.132923,1 L442.238306,1 C441.166066,1 440.233683,1.25870647 439.441158,1.7761194 C438.648633,2.29353234 438.25237,2.99909543 438.25237,3.89280868 L438.25237,3.89280868 L438.25237,49.6838535 C438.25237,50.5775667 438.648633,51.2831298 439.441158,51.8005427 C440.233683,52.3179557 441.166066,52.5766621 442.238306,52.5766621 L442.238306,52.5766621 L467.132923,52.5766621 Z"/>
  </g>
</svg>
