<svg xmlns="http://www.w3.org/2000/svg" width="469" height="53" viewBox="0 0 469 53">
  <g fill="none" fill-rule="evenodd">
    <path fill="#242424" fill-rule="nonzero" d="M0,43.3565684 C0,42.2877516 0.408042185,41.2073334 1.2241388,40.1152815 C2.04023541,39.0232296 2.96124491,38.4772118 3.98719494,38.4772118 C4.59343814,38.4772118 5.28128068,38.7560294 6.0507432,39.3136729 C6.82020572,39.8713165 7.56634,40.4870386 8.28916842,41.1608579 C9.01199685,41.8346772 10.0495898,42.4503994 11.4019785,43.0080429 C12.7543672,43.5656864 14.2466357,43.844504 15.878829,43.844504 C18.1172654,43.844504 19.9826011,43.3333384 21.474892,42.310992 C22.967183,41.2886455 23.7133173,39.7783835 23.7133173,37.7801609 C23.7133173,36.386052 23.3052751,35.1429903 22.4891785,34.0509383 C21.6730819,32.9588864 20.6005138,32.0527292 19.2714422,31.3324397 C17.9423706,30.6121501 16.4850771,29.9151061 14.8995179,29.2412869 C13.3139588,28.5674676 11.7167651,27.8123366 10.1078889,26.9758713 C8.49901275,26.139406 7.03006088,25.1983966 5.70098925,24.152815 C4.37191763,23.1072334 3.2993496,21.7131454 2.48325299,19.9705094 C1.66715638,18.2278733 1.25911419,16.241298 1.25911419,14.0107239 C1.25911419,11.5477982 1.76042316,9.37534453 2.76305614,7.49329759 C3.76568912,5.61125064 5.10639916,4.14745831 6.78522647,3.10187668 C8.46405379,2.05629504 10.2594394,1.28954668 12.1714372,0.801608579 C14.083435,0.313670483 16.1119875,0.0697050938 18.2571558,0.0697050938 C19.4696422,0.0697050938 20.7520605,0.15102689 22.1044491,0.313672922 C23.4568378,0.476318954 24.8908146,0.743519142 26.4064226,1.1152815 C27.9220306,1.48704386 29.1578155,2.06791383 30.1138144,2.85790885 C31.0698133,3.64790386 31.5478056,4.57729582 31.5478056,5.6461126 C31.5478056,6.66845909 31.2213718,7.72564244 30.5684945,8.81769437 C29.9156172,9.9097463 29.0295828,10.4557641 27.9103646,10.4557641 C27.4906577,10.4557641 26.3481396,10.0143029 24.4827759,9.13136729 C22.6174123,8.24843169 20.5422263,7.80697051 18.2571558,7.80697051 C15.7389148,7.80697051 13.7919707,8.28328389 12.4162649,9.23592493 C11.0405592,10.188566 10.3527167,11.5013321 10.3527167,13.1742627 C10.3527167,14.5219013 10.9123174,15.6952586 12.0315356,16.69437 C13.1507538,17.6934813 14.5380972,18.5066993 16.1936075,19.1340483 C17.8491178,19.7613972 19.6445034,20.5513804 21.5798182,21.5040214 C23.515133,22.4566625 25.3105187,23.490611 26.9660289,24.6058981 C28.6215392,25.7211852 30.0088826,27.3360037 31.1281008,29.4504021 C32.247319,31.5648006 32.8069198,34.0393066 32.8069198,36.8739946 C32.8069198,41.7069053 31.2796761,45.4360905 28.2251431,48.0616622 C25.1706101,50.6872339 21.14848,52 16.1586321,52 C11.7283934,52 7.92777187,51.0938428 4.75665361,49.2815013 C1.58553535,47.4691598 0,45.4942019 0,43.3565684 Z M41.4608316,47.6085791 C41.4608316,47.5156385 41.507465,47.2832905 41.6007332,46.9115282 L55.1012353,3.06702413 C55.3810399,2.09114794 56.0688824,1.33601697 57.1647836,0.801608579 C58.2606847,0.267200188 59.508128,0 60.9071507,0 C62.3061735,0 63.5652751,0.267200188 64.6844933,0.801608579 C65.8037115,1.33601697 66.5032124,2.09114794 66.783017,3.06702413 L80.2835191,46.9115282 C80.3767873,47.2832905 80.4234207,47.5156385 80.4234207,47.6085791 C80.4234207,48.6309256 79.7938699,49.5138479 78.5347494,50.2573727 C77.2756289,51.0008974 75.9932106,51.3726542 74.6874561,51.3726542 C72.9619947,51.3726542 71.93606,50.7685494 71.6096214,49.5603217 L68.9514914,40.2895442 L52.9327609,40.2895442 L50.2746309,49.5603217 C49.9481923,50.7685494 48.9222576,51.3726542 47.1967962,51.3726542 C45.8444076,51.3726542 44.5503309,51.0125148 43.3145275,50.2922252 C42.078724,49.5719356 41.4608316,48.6773959 41.4608316,47.6085791 Z M54.8214322,33.1796247 L66.9928693,33.1796247 L60.9071507,11.7801609 L54.8214322,33.1796247 Z M91.245807,48.5147453 L91.245807,3.20643432 C91.245807,2.27702842 91.6888242,1.57998445 92.5748719,1.1152815 C93.4609197,0.650578552 94.5334877,0.418230563 95.7926082,0.418230563 C97.0517287,0.418230563 98.1242967,0.650578552 99.0103445,1.1152815 C99.8963922,1.57998445 100.339409,2.27702842 100.339409,3.20643432 L100.339409,43.4262735 L117.407402,43.4262735 C118.246815,43.4262735 118.911341,43.821265 119.400999,44.6112601 C119.890657,45.4012551 120.135483,46.330647 120.135483,47.3994638 C120.135483,48.4682806 119.890657,49.3976725 119.400999,50.1876676 C118.911341,50.9776626 118.246815,51.3726542 117.407402,51.3726542 L95.2330019,51.3726542 C94.1604178,51.3726542 93.2277499,51.1170714 92.4349704,50.6058981 C91.6421908,50.0947249 91.245807,49.3976809 91.245807,48.5147453 Z M120.954906,4.46112601 C120.954906,3.39230922 121.199731,2.45129987 121.689389,1.63806971 C122.179047,0.824839544 122.890207,0.418230563 123.822888,0.418230563 L153.412072,0.418230563 C154.344754,0.418230563 155.055913,0.824839544 155.545571,1.63806971 C156.035229,2.45129987 156.280054,3.39230922 156.280054,4.46112601 C156.280054,5.57641308 156.023571,6.54065724 155.510596,7.3538874 C154.997621,8.16711756 154.29812,8.57372654 153.412072,8.57372654 L143.199257,8.57372654 L143.199257,48.5147453 C143.199257,49.3976809 142.744581,50.0947249 141.835216,50.6058981 C140.925852,51.1170714 139.864942,51.3726542 138.652456,51.3726542 C137.393335,51.3726542 136.320767,51.1170714 135.434719,50.6058981 C134.548672,50.0947249 134.105654,49.3976809 134.105654,48.5147453 L134.105654,8.57372654 L123.822888,8.57372654 C122.936841,8.57372654 122.23734,8.17873496 121.724365,7.38873995 C121.21139,6.59874493 120.954906,5.62288338 120.954906,4.46112601 Z M167.242342,48.5147453 L167.242342,3.27613941 C167.242342,2.39320381 167.638726,1.69615984 168.431505,1.1849866 C169.224285,0.673813351 170.156953,0.418230563 171.229537,0.418230563 L196.132018,0.418230563 C197.0647,0.418230563 197.775859,0.813222145 198.265517,1.60321716 C198.755175,2.39321217 199,3.29936933 199,4.32171582 C199,5.4370029 198.743516,6.38962965 198.230541,7.17962466 C197.717566,7.96961968 197.018065,8.36461126 196.132018,8.36461126 L176.335945,8.36461126 L176.335945,22.30563 L186.968464,22.30563 C187.854512,22.30563 188.554013,22.6657694 189.066988,23.386059 C189.579963,24.1063486 189.836447,24.9544187 189.836447,25.9302949 C189.836447,26.8132305 189.591621,27.6148311 189.101963,28.3351206 C188.612305,29.0554102 187.901146,29.4155496 186.968464,29.4155496 L176.335945,29.4155496 L176.335945,43.4262735 L196.132018,43.4262735 C197.018065,43.4262735 197.717566,43.821265 198.230541,44.6112601 C198.743516,45.4012551 199,46.3538818 199,47.4691689 C199,48.4915154 198.755175,49.3976725 198.265517,50.1876676 C197.775859,50.9776626 197.0647,51.3726542 196.132018,51.3726542 L171.229537,51.3726542 C170.156953,51.3726542 169.224285,51.1170714 168.431505,50.6058981 C167.638726,50.0947249 167.242342,49.3976809 167.242342,48.5147453 Z"/>
    <path fill="#CA5454" fill-rule="nonzero" d="M214,35.8426052 L214,16.1573948 C214,10.6069374 215.480143,6.52647167 218.440472,3.91587517 C221.400802,1.30527867 225.281806,0 230.083601,0 C235.025254,0 239.046114,1.2229638 242.146302,3.66892809 C245.24649,6.11489237 246.79656,9.40748722 246.79656,13.5468114 C246.79656,15.2401713 246.435266,16.3925795 245.712666,17.0040706 C244.990065,17.6155616 243.836253,17.9213026 242.251195,17.9213026 C239.267555,17.9213026 237.752449,16.9570427 237.705829,15.0284939 C237.565971,12.9588318 236.983238,11.2772566 235.957612,9.98371777 C234.931986,8.69017897 233.090548,8.04341927 230.433245,8.04341927 C225.538211,8.04341927 223.090731,10.7480507 223.090731,16.1573948 L223.090731,35.8426052 C223.090731,41.2519493 225.514902,43.9565807 230.363316,43.9565807 C232.694284,43.9565807 234.500758,43.2745432 235.78279,41.9104478 C237.064823,40.5463523 237.705829,38.5237583 237.705829,35.8426052 L237.705829,31.6797829 L232.041605,31.6797829 C231.155837,31.6797829 230.468211,31.3270049 229.978708,30.6214383 C229.489205,29.9158716 229.244457,29.0692044 229.244457,28.0814111 C229.244457,27.1406556 229.500859,26.3057477 230.013672,25.5766621 C230.526485,24.8475766 231.202456,24.4830393 232.041605,24.4830393 L243.929484,24.4830393 C244.815252,24.4830393 245.514532,24.777021 246.027345,25.3649932 C246.540158,25.9529654 246.79656,26.6467622 246.79656,27.4464043 L246.79656,35.8426052 C246.79656,41.4401004 245.304763,45.5323254 242.321124,48.119403 C239.337484,50.7064806 235.351588,52 230.363316,52 C225.375044,52 221.400802,50.7064806 218.440472,48.119403 C215.480143,45.5323254 214,41.4401004 214,35.8426052 Z M259.433675,35.8426052 L259.433675,16.1573948 C259.433675,10.5598996 260.913818,6.46767463 263.874148,3.88059701 C266.834478,1.2935194 270.808719,0 275.796991,0 C280.785264,0 284.77116,1.2935194 287.754799,3.88059701 C290.738438,6.46767463 292.230236,10.5598996 292.230236,16.1573948 L292.230236,35.8426052 C292.230236,41.4401004 290.738438,45.5323254 287.754799,48.119403 C284.77116,50.7064806 280.785264,52 275.796991,52 C270.808719,52 266.834478,50.7064806 263.874148,48.119403 C260.913818,45.5323254 259.433675,41.4401004 259.433675,35.8426052 Z M268.524406,35.8426052 C268.524406,41.2519493 270.948577,43.9565807 275.796991,43.9565807 C280.692025,43.9565807 283.139505,41.2519493 283.139505,35.8426052 L283.139505,16.1573948 C283.139505,10.7480507 280.692025,8.04341927 275.796991,8.04341927 C270.948577,8.04341927 268.524406,10.7480507 268.524406,16.1573948 L268.524406,35.8426052 Z M305.426781,35.8426052 L305.426781,16.1573948 C305.426781,10.5598996 306.906923,6.46767463 309.867253,3.88059701 C312.827583,1.2935194 316.801824,0 321.790096,0 C326.778369,0 330.764265,1.2935194 333.747904,3.88059701 C336.731544,6.46767463 338.223341,10.5598996 338.223341,16.1573948 L338.223341,35.8426052 C338.223341,41.4401004 336.731544,45.5323254 333.747904,48.119403 C330.764265,50.7064806 326.778369,52 321.790096,52 C316.801824,52 312.827583,50.7064806 309.867253,48.119403 C306.906923,45.5323254 305.426781,41.4401004 305.426781,35.8426052 Z M314.517512,35.8426052 C314.517512,41.2519493 316.941682,43.9565807 321.790096,43.9565807 C326.68513,43.9565807 329.13261,41.2519493 329.13261,35.8426052 L329.13261,16.1573948 C329.13261,10.7480507 326.68513,8.04341927 321.790096,8.04341927 C316.941682,8.04341927 314.517512,10.7480507 314.517512,16.1573948 L314.517512,35.8426052 Z M351.419886,35.8426052 L351.419886,16.1573948 C351.419886,10.6069374 352.900028,6.52647167 355.860358,3.91587517 C358.820688,1.30527867 362.701692,0 367.503487,0 C372.445139,0 376.466,1.2229638 379.566187,3.66892809 C382.666375,6.11489237 384.216446,9.40748722 384.216446,13.5468114 C384.216446,15.2401713 383.855151,16.3925795 383.132551,17.0040706 C382.409951,17.6155616 381.256139,17.9213026 379.67108,17.9213026 C376.687441,17.9213026 375.172334,16.9570427 375.125715,15.0284939 C374.985857,12.9588318 374.403124,11.2772566 373.377497,9.98371777 C372.351871,8.69017897 370.510434,8.04341927 367.85313,8.04341927 C362.958097,8.04341927 360.510617,10.7480507 360.510617,16.1573948 L360.510617,35.8426052 C360.510617,41.2519493 362.934787,43.9565807 367.783201,43.9565807 C370.11417,43.9565807 371.920643,43.2745432 373.202676,41.9104478 C374.484708,40.5463523 375.125715,38.5237583 375.125715,35.8426052 L375.125715,31.6797829 L369.46149,31.6797829 C368.575722,31.6797829 367.888097,31.3270049 367.398594,30.6214383 C366.90909,29.9158716 366.664342,29.0692044 366.664342,28.0814111 C366.664342,27.1406556 366.920745,26.3057477 367.433558,25.5766621 C367.946371,24.8475766 368.622342,24.4830393 369.46149,24.4830393 L381.349369,24.4830393 C382.235137,24.4830393 382.934417,24.777021 383.44723,25.3649932 C383.960043,25.9529654 384.216446,26.6467622 384.216446,27.4464043 L384.216446,35.8426052 C384.216446,41.4401004 382.724649,45.5323254 379.741009,48.119403 C376.75737,50.7064806 372.771474,52 367.783201,52 C362.794929,52 358.820688,50.7064806 355.860358,48.119403 C352.900028,45.5323254 351.419886,41.4401004 351.419886,35.8426052 Z M397.412991,48.6838535 L397.412991,2.82225237 C397.412991,1.88149688 397.855868,1.17594084 398.741636,0.705563094 C399.627404,0.235185346 400.699633,0 401.958356,0 C403.217079,0 404.289308,0.235185346 405.175076,0.705563094 C406.060844,1.17594084 406.503722,1.88149688 406.503722,2.82225237 L406.503722,43.5332429 L423.566325,43.5332429 C424.405473,43.5332429 425.069789,43.933058 425.559292,44.7327001 C426.048796,45.5323423 426.293544,46.4730837 426.293544,47.5549525 C426.293544,48.6368213 426.048796,49.5775627 425.559292,50.3772049 C425.069789,51.1768471 424.405473,51.5766621 423.566325,51.5766621 L401.398927,51.5766621 C400.326681,51.5766621 399.394308,51.3179583 398.601779,50.8005427 C397.809249,50.2831272 397.412991,49.5775712 397.412991,48.6838535 Z M437.25237,48.6838535 L437.25237,2.89280868 C437.25237,1.99909096 437.648629,1.29353493 438.441158,0.776119403 C439.233687,0.258703881 440.166061,0 441.238306,0 L466.132923,0 C467.065311,0 467.776245,0.399815088 468.265749,1.19945726 C468.755252,1.99909943 469,2.91632228 469,3.95115332 C469,5.08005992 468.743597,6.04431984 468.230784,6.84396201 C467.717971,7.64360418 467.018691,8.04341927 466.132923,8.04341927 L446.343101,8.04341927 L446.343101,22.1546811 L456.972264,22.1546811 C457.858032,22.1546811 458.557312,22.5192184 459.070125,23.2483039 C459.582938,23.9773894 459.83934,24.835816 459.83934,25.8236092 C459.83934,26.7173269 459.594592,27.5287164 459.105089,28.2578019 C458.615586,28.9868874 457.904651,29.3514247 456.972264,29.3514247 L446.343101,29.3514247 L446.343101,43.5332429 L466.132923,43.5332429 C467.018691,43.5332429 467.717971,43.933058 468.230784,44.7327001 C468.743597,45.5323423 469,46.4966022 469,47.6255088 C469,48.6603399 468.755252,49.5775627 468.265749,50.3772049 C467.776245,51.1768471 467.065311,51.5766621 466.132923,51.5766621 L441.238306,51.5766621 C440.166061,51.5766621 439.233687,51.3179583 438.441158,50.8005427 C437.648629,50.2831272 437.25237,49.5775712 437.25237,48.6838535 Z"/>
  </g>
</svg>
