<svg xmlns="http://www.w3.org/2000/svg" width="460" height="53" viewBox="0 0 460 53">
  <g fill="none" fill-rule="evenodd">
    <path fill="#242424" d="M0,44.54 C0,43.4666613 0.40832925,42.3816721 1.225,41.285 C2.04167075,40.1883279 2.9633282,39.64 3.99,39.64 C4.5966697,39.64 5.28499615,39.9199972 6.055,40.48 C6.82500385,41.0400028 7.57166305,41.65833 8.295,42.335 C9.01833695,43.0116701 10.0566599,43.6299972 11.41,44.19 C12.7633401,44.7500028 14.2566585,45.03 15.89,45.03 C18.1300112,45.03 19.9966592,44.5166718 21.49,43.49 C22.9833408,42.4633282 23.73,40.9466767 23.73,38.94 C23.73,37.539993 23.3216708,36.2916722 22.505,35.195 C21.6883293,34.0983279 20.6150067,33.188337 19.285,32.465 C17.9549934,31.741663 16.4966746,31.0416701 14.91,30.365 C13.3233254,29.6883299 11.7250081,28.9300042 10.115,28.09 C8.50499195,27.2499958 7.03500665,26.3050053 5.705,25.255 C4.37499335,24.2049948 3.30167075,22.8050087 2.485,21.055 C1.66832925,19.3049913 1.26,17.3100112 1.26,15.07 C1.26,12.5966543 1.76166165,10.4150094 2.765,8.525 C3.76833835,6.63499055 5.1099916,5.16500525 6.79,4.115 C8.4700084,3.06499475 10.2666571,2.29500245 12.18,1.805 C14.0933429,1.31499755 16.1233226,1.07 18.27,1.07 C19.4833394,1.07 20.7666599,1.15166585 22.12,1.315 C23.4733401,1.47833415 24.9083258,1.7466648 26.425,2.12 C27.9416743,2.4933352 29.1783286,3.0766627 30.135,3.87 C31.0916714,4.6633373 31.57,5.5966613 31.57,6.67 C31.57,7.6966718 31.2433366,8.75832785 30.59,9.855 C29.9366634,10.9516722 29.0500056,11.5 27.93,11.5 C27.5099979,11.5 26.366676,11.0566711 24.5,10.17 C22.633324,9.2833289 20.5566781,8.84 18.27,8.84 C15.7499874,8.84 13.8016736,9.31832855 12.425,10.275 C11.0483265,11.2316715 10.36,12.5499916 10.36,14.23 C10.36,15.5833401 10.9199944,16.7616617 12.04,17.765 C13.1600056,18.7683384 14.5483251,19.5849969 16.205,20.215 C17.861675,20.8450031 19.6583236,21.6383285 21.595,22.595 C23.5316764,23.5516715 25.3283251,24.5899944 26.985,25.71 C28.641675,26.8300056 30.0299944,28.4516561 31.15,30.575 C32.2700056,32.698344 32.83,35.1833191 32.83,38.03 C32.83,42.8833576 31.301682,46.6283202 28.245,49.265 C25.1883181,51.9016799 21.1633583,53.22 16.17,53.22 C11.7366445,53.22 7.9333492,52.3100091 4.76,50.49 C1.5866508,48.6699909 0,46.6866774 0,44.54 Z M41.49,48.81 C41.49,48.7166662 41.5366662,48.4833352 41.63,48.11 L55.14,4.08 C55.4200014,3.0999951 56.1083279,2.34166935 57.205,1.805 C58.3016722,1.26833065 59.549993,1 60.95,1 C62.350007,1 63.6099944,1.26833065 64.73,1.805 C65.8500056,2.34166935 66.5499986,3.0999951 66.83,4.08 L80.34,48.11 C80.4333338,48.4833352 80.48,48.7166662 80.48,48.81 C80.48,49.8366718 79.8500063,50.7233296 78.59,51.47 C77.3299937,52.2166704 76.0466732,52.59 74.74,52.59 C73.0133247,52.59 71.9866683,51.9833394 71.66,50.77 L69,41.46 L52.97,41.46 L50.31,50.77 C49.9833317,51.9833394 48.9566753,52.59 47.23,52.59 C45.8766599,52.59 44.5816729,52.228337 43.345,51.505 C42.1083272,50.7816631 41.49,49.8833387 41.49,48.81 Z M54.86,34.32 L67.04,34.32 L60.95,12.83 L54.86,34.32 Z M91.31,49.72 L91.31,4.22 C91.31,3.286662 91.7533289,2.586669 92.64,2.12 C93.5266711,1.653331 94.5999937,1.42 95.86,1.42 C97.1200063,1.42 98.1933289,1.653331 99.08,2.12 C99.9666711,2.586669 100.41,3.286662 100.41,4.22 L100.41,44.61 L117.49,44.61 C118.330004,44.61 118.994998,45.0066627 119.485,45.8 C119.975002,46.5933373 120.22,47.5266613 120.22,48.6 C120.22,49.6733387 119.975002,50.6066627 119.485,51.4 C118.994998,52.1933373 118.330004,52.59 117.49,52.59 L95.3,52.59 C94.2266613,52.59 93.2933373,52.3333359 92.5,51.82 C91.7066627,51.3066641 91.31,50.6066711 91.31,49.72 Z M121.04,5.48 C121.04,4.4066613 121.284998,3.46167075 121.775,2.645 C122.265002,1.82832925 122.976662,1.42 123.91,1.42 L153.52,1.42 C154.453338,1.42 155.164998,1.82832925 155.655,2.645 C156.145002,3.46167075 156.39,4.4066613 156.39,5.48 C156.39,6.6000056 156.133336,7.56832925 155.62,8.385 C155.106664,9.20167075 154.406671,9.61 153.52,9.61 L143.3,9.61 L143.3,49.72 C143.3,50.6066711 142.845005,51.3066641 141.935,51.82 C141.024995,52.3333359 139.963339,52.59 138.75,52.59 C137.489994,52.59 136.416671,52.3333359 135.53,51.82 C134.643329,51.3066641 134.2,50.6066711 134.2,49.72 L134.2,9.61 L123.91,9.61 C123.023329,9.61 122.323336,9.2133373 121.81,8.42 C121.296664,7.6266627 121.04,6.6466725 121.04,5.48 Z M167.36,49.72 L167.36,4.29 C167.36,3.4033289 167.756663,2.7033359 168.55,2.19 C169.343337,1.6766641 170.276661,1.42 171.35,1.42 L196.27,1.42 C197.203338,1.42 197.914998,1.8166627 198.405,2.61 C198.895002,3.4033373 199.14,4.3133282 199.14,5.34 C199.14,6.4600056 198.883336,7.4166627 198.37,8.21 C197.856664,9.0033373 197.156671,9.4 196.27,9.4 L176.46,9.4 L176.46,23.4 L187.1,23.4 C187.986671,23.4 188.686664,23.7616631 189.2,24.485 C189.713336,25.208337 189.97,26.0599951 189.97,27.04 C189.97,27.9266711 189.725002,28.7316631 189.235,29.455 C188.744998,30.178337 188.033338,30.54 187.1,30.54 L176.46,30.54 L176.46,44.61 L196.27,44.61 C197.156671,44.61 197.856664,45.0066627 198.37,45.8 C198.883336,46.5933373 199.14,47.5499944 199.14,48.67 C199.14,49.6966718 198.895002,50.6066627 198.405,51.4 C197.914998,52.1933373 197.203338,52.59 196.27,52.59 L171.35,52.59 C170.276661,52.59 169.343337,52.3333359 168.55,51.82 C167.756663,51.3066641 167.36,50.6066711 167.36,49.72 Z"/>
    <path fill="#812525" d="M216,49.72 L216,4.22 C216,3.286662 216.443329,2.586669 217.33,2.12 C218.216671,1.653331 219.289994,1.42 220.55,1.42 C221.810006,1.42 222.883329,1.653331 223.77,2.12 C224.656671,2.586669 225.1,3.286662 225.1,4.22 L225.1,49.72 C225.1,50.6066711 224.645005,51.3066641 223.735,51.82 C222.824995,52.3333359 221.763339,52.59 220.55,52.59 C219.289994,52.59 218.216671,52.3333359 217.33,51.82 C216.443329,51.3066641 216,50.6066711 216,49.72 Z M239.5,49.72 L239.5,4.29 C239.5,3.4033289 239.896663,2.7033359 240.69,2.19 C241.483337,1.6766641 242.416661,1.42 243.49,1.42 L267.92,1.42 C268.853338,1.42 269.553331,1.80499615 270.02,2.575 C270.486669,3.34500385 270.72,4.2666613 270.72,5.34 C270.72,6.4600056 270.475002,7.4166627 269.985,8.21 C269.494998,9.0033373 268.806671,9.4 267.92,9.4 L248.6,9.4 L248.6,23.4 L259.31,23.4 C260.196671,23.4 260.884998,23.7499965 261.375,24.45 C261.865002,25.1500035 262.11,26.0133282 262.11,27.04 C262.11,27.973338 261.865002,28.7899965 261.375,29.49 C260.884998,30.1900035 260.196671,30.54 259.31,30.54 L248.6,30.54 L248.6,49.72 C248.6,50.6066711 248.145005,51.3066641 247.235,51.82 C246.324995,52.3333359 245.263339,52.59 244.05,52.59 C242.789994,52.59 241.716671,52.3333359 240.83,51.82 C239.943329,51.3066641 239.5,50.6066711 239.5,49.72 Z M281.06,49.72 L281.06,4.22 C281.06,3.4733296 281.339997,2.8200028 281.9,2.26 C282.460003,1.6999972 283.159996,1.42 284,1.42 L297.86,1.42 C308.920055,1.42 314.45,6.2966179 314.45,16.05 C314.45,19.8766858 313.621675,22.956655 311.965,25.29 C310.308325,27.623345 308.080014,29.2099958 305.28,30.05 L314.45,47.06 C314.683335,47.3400014 314.8,47.713331 314.8,48.18 C314.8,49.3466725 314.193339,50.4316617 312.98,51.435 C311.766661,52.4383384 310.48334,52.94 309.13,52.94 C307.77666,52.94 306.72667,52.2166739 305.98,50.77 L296.04,31.45 L290.16,31.45 L290.16,49.72 C290.16,50.6066711 289.716671,51.3066641 288.83,51.82 C287.943329,52.3333359 286.870006,52.59 285.61,52.59 C284.396661,52.59 283.335005,52.3333359 282.425,51.82 C281.514995,51.3066641 281.06,50.6066711 281.06,49.72 Z M290.16,24.31 L297.86,24.31 C302.853358,24.31 305.35,21.8366914 305.35,16.89 C305.35,11.8966417 302.853358,9.4 297.86,9.4 L290.16,9.4 L290.16,24.31 Z M323.39,48.81 C323.39,48.7166662 323.436666,48.4833352 323.53,48.11 L337.04,4.08 C337.320001,3.0999951 338.008328,2.34166935 339.105,1.805 C340.201672,1.26833065 341.449993,1 342.85,1 C344.250007,1 345.509994,1.26833065 346.63,1.805 C347.750006,2.34166935 348.449999,3.0999951 348.73,4.08 L362.24,48.11 C362.333334,48.4833352 362.38,48.7166662 362.38,48.81 C362.38,49.8366718 361.750006,50.7233296 360.49,51.47 C359.229994,52.2166704 357.946673,52.59 356.64,52.59 C354.913325,52.59 353.886668,51.9833394 353.56,50.77 L350.9,41.46 L334.87,41.46 L332.21,50.77 C331.883332,51.9833394 330.856675,52.59 329.13,52.59 C327.77666,52.59 326.481673,52.228337 325.245,51.505 C324.008327,50.7816631 323.39,49.8833387 323.39,48.81 Z M336.76,34.32 L348.94,34.32 L342.85,12.83 L336.76,34.32 Z M373.21,49.72 L373.21,5.97 C373.21,4.4299923 373.641662,3.2866704 374.505,2.54 C375.368338,1.7933296 376.453327,1.42 377.76,1.42 C379.486675,1.42 380.816662,1.7233303 381.75,2.33 C382.683338,2.9366697 383.709994,4.2433233 384.83,6.25 L393.44,21.93 L402.05,6.25 C403.170006,4.2433233 404.208329,2.9366697 405.165,2.33 C406.121671,1.7233303 407.463325,1.42 409.19,1.42 C410.496673,1.42 411.581662,1.7933296 412.445,2.54 C413.308338,3.2866704 413.74,4.4299923 413.74,5.97 L413.74,49.72 C413.74,50.6066711 413.285005,51.3066641 412.375,51.82 C411.464995,52.3333359 410.403339,52.59 409.19,52.59 C407.929994,52.59 406.856671,52.3333359 405.97,51.82 C405.083329,51.3066641 404.64,50.6066711 404.64,49.72 L404.64,19.62 L396.45,34.18 C395.796663,35.3933394 394.770007,36 393.37,36 C392.01666,36 391.013337,35.3933394 390.36,34.18 L382.31,19.06 L382.31,49.72 C382.31,50.6066711 381.855005,51.3066641 380.945,51.82 C380.034995,52.3333359 378.973339,52.59 377.76,52.59 C376.499994,52.59 375.426671,52.3333359 374.54,51.82 C373.653329,51.3066641 373.21,50.6066711 373.21,49.72 Z M428.14,49.72 L428.14,4.29 C428.14,3.4033289 428.536663,2.7033359 429.33,2.19 C430.123337,1.6766641 431.056661,1.42 432.13,1.42 L457.05,1.42 C457.983338,1.42 458.694998,1.8166627 459.185,2.61 C459.675002,3.4033373 459.92,4.3133282 459.92,5.34 C459.92,6.4600056 459.663336,7.4166627 459.15,8.21 C458.636664,9.0033373 457.936671,9.4 457.05,9.4 L437.24,9.4 L437.24,23.4 L447.88,23.4 C448.766671,23.4 449.466664,23.7616631 449.98,24.485 C450.493336,25.208337 450.75,26.0599951 450.75,27.04 C450.75,27.9266711 450.505002,28.7316631 450.015,29.455 C449.524998,30.178337 448.813338,30.54 447.88,30.54 L437.24,30.54 L437.24,44.61 L457.05,44.61 C457.936671,44.61 458.636664,45.0066627 459.15,45.8 C459.663336,46.5933373 459.92,47.5499944 459.92,48.67 C459.92,49.6966718 459.675002,50.6066627 459.185,51.4 C458.694998,52.1933373 457.983338,52.59 457.05,52.59 L432.13,52.59 C431.056661,52.59 430.123337,52.3333359 429.33,51.82 C428.536663,51.3066641 428.14,50.6066711 428.14,49.72 Z"/>
  </g>
</svg>
