<svg xmlns="http://www.w3.org/2000/svg" width="423" height="53" viewBox="0 0 423 53">
  <g fill="none" fill-rule="evenodd">
    <path fill="#242424" d="M0,44.54 C0,43.4666613 0.40832925,42.3816722 1.225,41.285 C2.04167075,40.1883279 2.9633282,39.64 3.99,39.64 C4.5966697,39.64 5.28499615,39.9199972 6.055,40.48 C6.82500385,41.0400028 7.57166305,41.65833 8.295,42.335 C9.01833695,43.0116701 10.0566599,43.6299972 11.41,44.19 C12.7633401,44.7500028 14.2566585,45.03 15.89,45.03 C18.1300112,45.03 19.9966592,44.5166718 21.49,43.49 C22.9833408,42.4633282 23.73,40.9466767 23.73,38.94 C23.73,37.539993 23.3216708,36.2916722 22.505,35.195 C21.6883293,34.0983279 20.6150067,33.188337 19.285,32.465 C17.9549934,31.7416631 16.4966746,31.0416701 14.91,30.365 C13.3233254,29.68833 11.7250081,28.9300042 10.115,28.09 C8.50499195,27.2499958 7.03500665,26.3050053 5.705,25.255 C4.37499335,24.2049948 3.30167075,22.8050088 2.485,21.055 C1.66832925,19.3049913 1.26,17.3100112 1.26,15.07 C1.26,12.5966543 1.76166165,10.4150094 2.765,8.525 C3.76833835,6.63499055 5.1099916,5.16500525 6.79,4.115 C8.4700084,3.06499475 10.2666571,2.29500245 12.18,1.805 C14.0933429,1.31499755 16.1233226,1.07 18.27,1.07 C19.4833394,1.07 20.7666599,1.15166585 22.12,1.315 C23.4733401,1.47833415 24.9083258,1.7466648 26.425,2.12 C27.9416743,2.4933352 29.1783286,3.0766627 30.135,3.87 C31.0916715,4.6633373 31.57,5.5966613 31.57,6.67 C31.57,7.6966718 31.2433366,8.75832785 30.59,9.855 C29.9366634,10.9516722 29.0500056,11.5 27.93,11.5 C27.5099979,11.5 26.366676,11.0566711 24.5,10.17 C22.633324,9.2833289 20.5566781,8.84 18.27,8.84 C15.7499874,8.84 13.8016736,9.31832855 12.425,10.275 C11.0483265,11.2316715 10.36,12.5499916 10.36,14.23 C10.36,15.5833401 10.9199944,16.7616617 12.04,17.765 C13.1600056,18.7683384 14.5483251,19.5849969 16.205,20.215 C17.861675,20.8450032 19.6583237,21.6383286 21.595,22.595 C23.5316764,23.5516715 25.3283251,24.5899944 26.985,25.71 C28.641675,26.8300056 30.0299944,28.4516561 31.15,30.575 C32.2700056,32.698344 32.83,35.1833191 32.83,38.03 C32.83,42.8833576 31.301682,46.6283202 28.245,49.265 C25.1883181,51.9016799 21.1633583,53.22 16.17,53.22 C11.7366445,53.22 7.9333492,52.3100091 4.76,50.49 C1.5866508,48.6699909 0,46.6866774 0,44.54 Z M41.49,48.81 C41.49,48.7166662 41.5366662,48.4833352 41.63,48.11 L55.14,4.08 C55.4200014,3.0999951 56.1083279,2.34166935 57.205,1.805 C58.3016722,1.26833065 59.549993,1 60.95,1 C62.350007,1 63.6099944,1.26833065 64.73,1.805 C65.8500056,2.34166935 66.5499986,3.0999951 66.83,4.08 L80.34,48.11 C80.4333338,48.4833352 80.48,48.7166662 80.48,48.81 C80.48,49.8366718 79.8500063,50.7233296 78.59,51.47 C77.3299937,52.2166704 76.0466732,52.59 74.74,52.59 C73.0133247,52.59 71.9866683,51.9833394 71.66,50.77 L69,41.46 L52.97,41.46 L50.31,50.77 C49.9833317,51.9833394 48.9566753,52.59 47.23,52.59 C45.8766599,52.59 44.5816729,52.228337 43.345,51.505 C42.1083272,50.7816631 41.49,49.8833387 41.49,48.81 Z M54.86,34.32 L67.04,34.32 L60.95,12.83 L54.86,34.32 Z M91.31,49.72 L91.31,4.22 C91.31,3.286662 91.7533289,2.586669 92.64,2.12 C93.5266711,1.653331 94.5999937,1.42 95.86,1.42 C97.1200063,1.42 98.1933289,1.653331 99.08,2.12 C99.9666711,2.586669 100.41,3.286662 100.41,4.22 L100.41,44.61 L117.49,44.61 C118.330004,44.61 118.994998,45.0066627 119.485,45.8 C119.975002,46.5933373 120.22,47.5266613 120.22,48.6 C120.22,49.6733387 119.975002,50.6066627 119.485,51.4 C118.994998,52.1933373 118.330004,52.59 117.49,52.59 L95.3,52.59 C94.2266613,52.59 93.2933373,52.3333359 92.5,51.82 C91.7066627,51.3066641 91.31,50.6066711 91.31,49.72 Z M121.04,5.48 C121.04,4.4066613 121.284998,3.46167075 121.775,2.645 C122.265002,1.82832925 122.976662,1.42 123.91,1.42 L153.52,1.42 C154.453338,1.42 155.164998,1.82832925 155.655,2.645 C156.145002,3.46167075 156.39,4.4066613 156.39,5.48 C156.39,6.6000056 156.133336,7.56832925 155.62,8.385 C155.106664,9.20167075 154.406671,9.61 153.52,9.61 L143.3,9.61 L143.3,49.72 C143.3,50.6066711 142.845005,51.3066641 141.935,51.82 C141.024995,52.3333359 139.963339,52.59 138.75,52.59 C137.489994,52.59 136.416671,52.3333359 135.53,51.82 C134.643329,51.3066641 134.2,50.6066711 134.2,49.72 L134.2,9.61 L123.91,9.61 C123.023329,9.61 122.323336,9.2133373 121.81,8.42 C121.296664,7.6266627 121.04,6.6466725 121.04,5.48 Z M167.36,49.72 L167.36,4.29 C167.36,3.4033289 167.756663,2.7033359 168.55,2.19 C169.343337,1.6766641 170.276661,1.42 171.35,1.42 L196.27,1.42 C197.203338,1.42 197.914998,1.8166627 198.405,2.61 C198.895002,3.4033373 199.14,4.3133282 199.14,5.34 C199.14,6.4600056 198.883336,7.4166627 198.37,8.21 C197.856664,9.0033373 197.156671,9.4 196.27,9.4 L176.46,9.4 L176.46,23.4 L187.1,23.4 C187.986671,23.4 188.686664,23.7616631 189.2,24.485 C189.713336,25.208337 189.97,26.0599951 189.97,27.04 C189.97,27.9266711 189.725002,28.7316631 189.235,29.455 C188.744998,30.178337 188.033338,30.54 187.1,30.54 L176.46,30.54 L176.46,44.61 L196.27,44.61 C197.156671,44.61 197.856664,45.0066627 198.37,45.8 C198.883336,46.5933373 199.14,47.5499944 199.14,48.67 C199.14,49.6966718 198.895002,50.6066627 198.405,51.4 C197.914998,52.1933373 197.203338,52.59 196.27,52.59 L171.35,52.59 C170.276661,52.59 169.343337,52.3333359 168.55,51.82 C167.756663,51.3066641 167.36,50.6066711 167.36,49.72 Z"/>
    <path fill="#CA5454" d="M216,49.65 L216,4.15 C216,3.216662 216.443329,2.516669 217.33,2.05 C218.216671,1.583331 219.289994,1.35 220.55,1.35 C221.810006,1.35 222.883329,1.583331 223.77,2.05 C224.656671,2.516669 225.1,3.216662 225.1,4.15 L225.1,44.54 L242.18,44.54 C243.020004,44.54 243.684998,44.9366627 244.175,45.73 C244.665002,46.5233373 244.91,47.4566613 244.91,48.53 C244.91,49.6033387 244.665002,50.5366627 244.175,51.33 C243.684998,52.1233373 243.020004,52.52 242.18,52.52 L219.99,52.52 C218.916661,52.52 217.983337,52.2633359 217.19,51.75 C216.396663,51.2366641 216,50.5366711 216,49.65 Z M254.48,36.91 L254.48,17.38 C254.48,11.8266389 255.961652,7.7666795 258.925,5.2 C261.888348,2.6333205 265.866642,1.35 270.86,1.35 C275.853358,1.35 279.843318,2.6333205 282.83,5.2 C285.816682,7.7666795 287.31,11.8266389 287.31,17.38 L287.31,36.91 C287.31,42.4633611 285.816682,46.5233205 282.83,49.09 C279.843318,51.6566795 275.853358,52.94 270.86,52.94 C265.866642,52.94 261.888348,51.6566795 258.925,49.09 C255.961652,46.5233205 254.48,42.4633611 254.48,36.91 Z M263.58,36.91 C263.58,42.2766935 266.006642,44.96 270.86,44.96 C275.760024,44.96 278.21,42.2766935 278.21,36.91 L278.21,17.38 C278.21,12.0133065 275.760024,9.33 270.86,9.33 C266.006642,9.33 263.58,12.0133065 263.58,17.38 L263.58,36.91 Z M300.52,36.91 L300.52,17.38 C300.52,11.8733058 302.001652,7.82501295 304.965,5.235 C307.928348,2.64498705 311.813309,1.35 316.62,1.35 C321.566691,1.35 325.591651,2.5633212 328.695,4.99 C331.798349,7.4166788 333.35,10.6833128 333.35,14.79 C333.35,16.4700084 332.988337,17.6133303 332.265,18.22 C331.541663,18.8266697 330.386675,19.13 328.8,19.13 C325.813318,19.13 324.296667,18.1733429 324.25,16.26 C324.109999,14.2066564 323.526672,12.5383397 322.5,11.255 C321.473328,9.97166025 319.630013,9.33 316.97,9.33 C312.069976,9.33 309.62,12.0133065 309.62,17.38 L309.62,36.91 C309.62,42.2766935 312.046642,44.96 316.9,44.96 C319.233345,44.96 321.04166,44.2833401 322.325,42.93 C323.60834,41.5766599 324.25,39.5700133 324.25,36.91 L324.25,32.78 L318.58,32.78 C317.693329,32.78 317.005002,32.4300035 316.515,31.73 C316.024998,31.0299965 315.78,30.1900049 315.78,29.21 C315.78,28.276662 316.036664,27.448337 316.55,26.725 C317.063336,26.0016631 317.739996,25.64 318.58,25.64 L330.48,25.64 C331.366671,25.64 332.066664,25.9316638 332.58,26.515 C333.093336,27.0983363 333.35,27.7866627 333.35,28.58 L333.35,36.91 C333.35,42.4633611 331.856682,46.5233205 328.87,49.09 C325.883318,51.6566795 321.893358,52.94 316.9,52.94 C311.906642,52.94 307.928348,51.6566795 304.965,49.09 C302.001652,46.5233205 300.52,42.4633611 300.52,36.91 Z M346,36.91 L346,17.38 C346,11.8266389 347.481652,7.7666795 350.445,5.2 C353.408348,2.6333205 357.386642,1.35 362.38,1.35 C367.373358,1.35 371.363318,2.6333205 374.35,5.2 C377.336682,7.7666795 378.83,11.8266389 378.83,17.38 L378.83,36.91 C378.83,42.4633611 377.336682,46.5233205 374.35,49.09 C371.363318,51.6566795 367.373358,52.94 362.38,52.94 C357.386642,52.94 353.408348,51.6566795 350.445,49.09 C347.481652,46.5233205 346,42.4633611 346,36.91 Z M355.1,36.91 C355.1,42.2766935 357.526642,44.96 362.38,44.96 C367.280025,44.96 369.73,42.2766935 369.73,36.91 L369.73,17.38 C369.73,12.0133065 367.280025,9.33 362.38,9.33 C357.526642,9.33 355.1,12.0133065 355.1,17.38 L355.1,36.91 Z M390.08,44.47 C390.08,43.3966613 390.488329,42.3116722 391.305,41.215 C392.121671,40.1183279 393.043328,39.57 394.07,39.57 C394.67667,39.57 395.364996,39.8499972 396.135,40.41 C396.905004,40.9700028 397.651663,41.58833 398.375,42.265 C399.098337,42.9416701 400.13666,43.5599972 401.49,44.12 C402.84334,44.6800028 404.336659,44.96 405.97,44.96 C408.210011,44.96 410.076659,44.4466718 411.57,43.42 C413.063341,42.3933282 413.81,40.8766767 413.81,38.87 C413.81,37.469993 413.401671,36.2216722 412.585,35.125 C411.768329,34.0283279 410.695007,33.118337 409.365,32.395 C408.034993,31.6716631 406.576675,30.9716701 404.99,30.295 C403.403325,29.61833 401.805008,28.8600042 400.195,28.02 C398.584992,27.1799958 397.115007,26.2350053 395.785,25.185 C394.454993,24.1349948 393.381671,22.7350088 392.565,20.985 C391.748329,19.2349913 391.34,17.2400112 391.34,15 C391.34,12.5266543 391.841662,10.3450094 392.845,8.455 C393.848338,6.56499055 395.189992,5.09500525 396.87,4.045 C398.550008,2.99499475 400.346657,2.22500245 402.26,1.735 C404.173343,1.24499755 406.203323,1 408.35,1 C409.563339,1 410.84666,1.08166585 412.2,1.245 C413.55334,1.40833415 414.988326,1.6766648 416.505,2.05 C418.021674,2.4233352 419.258329,3.0066627 420.215,3.8 C421.171671,4.5933373 421.65,5.5266613 421.65,6.6 C421.65,7.6266718 421.323337,8.68832785 420.67,9.785 C420.016663,10.8816722 419.130006,11.43 418.01,11.43 C417.589998,11.43 416.446676,10.9866711 414.58,10.1 C412.713324,9.2133289 410.636678,8.77 408.35,8.77 C405.829987,8.77 403.881674,9.24832855 402.505,10.205 C401.128326,11.1616715 400.44,12.4799916 400.44,14.16 C400.44,15.5133401 400.999994,16.6916617 402.12,17.695 C403.240006,18.6983384 404.628325,19.5149969 406.285,20.145 C407.941675,20.7750031 409.738324,21.5683286 411.675,22.525 C413.611676,23.4816715 415.408325,24.5199944 417.065,25.64 C418.721675,26.7600056 420.109994,28.3816561 421.23,30.505 C422.350006,32.628344 422.91,35.1133191 422.91,37.96 C422.91,42.8133576 421.381682,46.5583202 418.325,49.195 C415.268318,51.8316799 411.243358,53.15 406.25,53.15 C401.816645,53.15 398.013349,52.2400091 394.84,50.42 C391.666651,48.5999909 390.08,46.6166774 390.08,44.47 Z"/>
  </g>
</svg>
