<svg xmlns="http://www.w3.org/2000/svg" width="380" height="53" viewBox="0 0 380 53">
  <g fill="none" fill-rule="evenodd">
    <path fill="#242424" fill-rule="nonzero" d="M0,43.3565684 C0,42.2877516 0.408042185,41.2073334 1.2241388,40.1152815 C2.04023541,39.0232296 2.96124491,38.4772118 3.98719494,38.4772118 C4.59343814,38.4772118 5.28128068,38.7560294 6.0507432,39.3136729 C6.82020572,39.8713165 7.56634,40.4870386 8.28916842,41.1608579 C9.01199685,41.8346772 10.0495898,42.4503994 11.4019785,43.0080429 C12.7543672,43.5656864 14.2466357,43.844504 15.878829,43.844504 C18.1172654,43.844504 19.9826011,43.3333384 21.474892,42.310992 C22.967183,41.2886455 23.7133173,39.7783835 23.7133173,37.7801609 C23.7133173,36.386052 23.3052751,35.1429903 22.4891785,34.0509383 C21.6730819,32.9588864 20.6005138,32.0527292 19.2714422,31.3324397 C17.9423706,30.6121501 16.4850771,29.9151061 14.8995179,29.2412869 C13.3139588,28.5674676 11.7167651,27.8123366 10.1078889,26.9758713 C8.49901275,26.139406 7.03006088,25.1983966 5.70098925,24.152815 C4.37191763,23.1072334 3.2993496,21.7131454 2.48325299,19.9705094 C1.66715638,18.2278733 1.25911419,16.241298 1.25911419,14.0107239 C1.25911419,11.5477982 1.76042316,9.37534453 2.76305614,7.49329759 C3.76568912,5.61125064 5.10639916,4.14745831 6.78522647,3.10187668 C8.46405379,2.05629504 10.2594394,1.28954668 12.1714372,0.801608579 C14.083435,0.313670483 16.1119875,0.0697050938 18.2571558,0.0697050938 C19.4696422,0.0697050938 20.7520605,0.15102689 22.1044491,0.313672922 C23.4568378,0.476318954 24.8908146,0.743519142 26.4064226,1.1152815 C27.9220306,1.48704386 29.1578155,2.06791383 30.1138144,2.85790885 C31.0698133,3.64790386 31.5478056,4.57729582 31.5478056,5.6461126 C31.5478056,6.66845909 31.2213718,7.72564244 30.5684945,8.81769437 C29.9156172,9.9097463 29.0295828,10.4557641 27.9103646,10.4557641 C27.4906577,10.4557641 26.3481396,10.0143029 24.4827759,9.13136729 C22.6174123,8.24843169 20.5422263,7.80697051 18.2571558,7.80697051 C15.7389148,7.80697051 13.7919707,8.28328389 12.4162649,9.23592493 C11.0405592,10.188566 10.3527167,11.5013321 10.3527167,13.1742627 C10.3527167,14.5219013 10.9123174,15.6952586 12.0315356,16.69437 C13.1507538,17.6934813 14.5380972,18.5066993 16.1936075,19.1340483 C17.8491178,19.7613972 19.6445034,20.5513804 21.5798182,21.5040214 C23.515133,22.4566625 25.3105187,23.490611 26.9660289,24.6058981 C28.6215392,25.7211852 30.0088826,27.3360037 31.1281008,29.4504021 C32.247319,31.5648006 32.8069198,34.0393066 32.8069198,36.8739946 C32.8069198,41.7069053 31.2796761,45.4360905 28.2251431,48.0616622 C25.1706101,50.6872339 21.14848,52 16.1586321,52 C11.7283934,52 7.92777187,51.0938428 4.75665361,49.2815013 C1.58553535,47.4691598 0,45.4942019 0,43.3565684 Z M41.4608316,47.6085791 C41.4608316,47.5156385 41.507465,47.2832905 41.6007332,46.9115282 L55.1012353,3.06702413 C55.3810399,2.09114794 56.0688824,1.33601697 57.1647836,0.801608579 C58.2606847,0.267200188 59.508128,0 60.9071507,0 C62.3061735,0 63.5652751,0.267200188 64.6844933,0.801608579 C65.8037115,1.33601697 66.5032124,2.09114794 66.783017,3.06702413 L80.2835191,46.9115282 C80.3767873,47.2832905 80.4234207,47.5156385 80.4234207,47.6085791 C80.4234207,48.6309256 79.7938699,49.5138479 78.5347494,50.2573727 C77.2756289,51.0008974 75.9932106,51.3726542 74.6874561,51.3726542 C72.9619947,51.3726542 71.93606,50.7685494 71.6096214,49.5603217 L68.9514914,40.2895442 L52.9327609,40.2895442 L50.2746309,49.5603217 C49.9481923,50.7685494 48.9222576,51.3726542 47.1967962,51.3726542 C45.8444076,51.3726542 44.5503309,51.0125148 43.3145275,50.2922252 C42.078724,49.5719356 41.4608316,48.6773959 41.4608316,47.6085791 Z M54.8214322,33.1796247 L66.9928693,33.1796247 L60.9071507,11.7801609 L54.8214322,33.1796247 Z M91.245807,48.5147453 L91.245807,3.20643432 C91.245807,2.27702842 91.6888242,1.57998445 92.5748719,1.1152815 C93.4609197,0.650578552 94.5334877,0.418230563 95.7926082,0.418230563 C97.0517287,0.418230563 98.1242967,0.650578552 99.0103445,1.1152815 C99.8963922,1.57998445 100.339409,2.27702842 100.339409,3.20643432 L100.339409,43.4262735 L117.407402,43.4262735 C118.246815,43.4262735 118.911341,43.821265 119.400999,44.6112601 C119.890657,45.4012551 120.135483,46.330647 120.135483,47.3994638 C120.135483,48.4682806 119.890657,49.3976725 119.400999,50.1876676 C118.911341,50.9776626 118.246815,51.3726542 117.407402,51.3726542 L95.2330019,51.3726542 C94.1604178,51.3726542 93.2277499,51.1170714 92.4349704,50.6058981 C91.6421908,50.0947249 91.245807,49.3976809 91.245807,48.5147453 Z M120.954906,4.46112601 C120.954906,3.39230922 121.199731,2.45129987 121.689389,1.63806971 C122.179047,0.824839544 122.890207,0.418230563 123.822888,0.418230563 L153.412072,0.418230563 C154.344754,0.418230563 155.055913,0.824839544 155.545571,1.63806971 C156.035229,2.45129987 156.280054,3.39230922 156.280054,4.46112601 C156.280054,5.57641308 156.023571,6.54065724 155.510596,7.3538874 C154.997621,8.16711756 154.29812,8.57372654 153.412072,8.57372654 L143.199257,8.57372654 L143.199257,48.5147453 C143.199257,49.3976809 142.744581,50.0947249 141.835216,50.6058981 C140.925852,51.1170714 139.864942,51.3726542 138.652456,51.3726542 C137.393335,51.3726542 136.320767,51.1170714 135.434719,50.6058981 C134.548672,50.0947249 134.105654,49.3976809 134.105654,48.5147453 L134.105654,8.57372654 L123.822888,8.57372654 C122.936841,8.57372654 122.23734,8.17873496 121.724365,7.38873995 C121.21139,6.59874493 120.954906,5.62288338 120.954906,4.46112601 Z M167.242342,48.5147453 L167.242342,3.27613941 C167.242342,2.39320381 167.638726,1.69615984 168.431505,1.1849866 C169.224285,0.673813351 170.156953,0.418230563 171.229537,0.418230563 L196.132018,0.418230563 C197.0647,0.418230563 197.775859,0.813222145 198.265517,1.60321716 C198.755175,2.39321217 199,3.29936933 199,4.32171582 C199,5.4370029 198.743516,6.38962965 198.230541,7.17962466 C197.717566,7.96961968 197.018065,8.36461126 196.132018,8.36461126 L176.335945,8.36461126 L176.335945,22.30563 L186.968464,22.30563 C187.854512,22.30563 188.554013,22.6657694 189.066988,23.386059 C189.579963,24.1063486 189.836447,24.9544187 189.836447,25.9302949 C189.836447,26.8132305 189.591621,27.6148311 189.101963,28.3351206 C188.612305,29.0554102 187.901146,29.4155496 186.968464,29.4155496 L176.335945,29.4155496 L176.335945,43.4262735 L196.132018,43.4262735 C197.018065,43.4262735 197.717566,43.821265 198.230541,44.6112601 C198.743516,45.4012551 199,46.3538818 199,47.4691689 C199,48.4915154 198.755175,49.3976725 198.265517,50.1876676 C197.775859,50.9776626 197.0647,51.3726542 196.132018,51.3726542 L171.229537,51.3726542 C170.156953,51.3726542 169.224285,51.1170714 168.431505,50.6058981 C167.638726,50.0947249 167.242342,49.3976809 167.242342,48.5147453 Z"/>
    <path fill="#CA5454" fill-rule="nonzero" d="M214,35.9730821 L214,16.4468371 C214,10.8945438 215.48559,6.83536501 218.456813,4.269179 C221.428037,1.702993 225.416903,0.419919246 230.423532,0.419919246 C235.430161,0.419919246 239.430725,1.702993 242.425344,4.269179 C245.419963,6.83536501 246.917251,10.8945438 246.917251,16.4468371 L246.917251,35.9730821 C246.917251,41.5253755 245.419963,45.5845542 242.425344,48.1507402 C239.430725,50.7169262 235.430161,52 230.423532,52 C225.416903,52 221.428037,50.7169262 218.456813,48.1507402 C215.48559,45.5845542 214,41.5253755 214,35.9730821 Z M223.124185,35.9730821 C223.124185,41.3387437 225.557276,44.0215343 230.423532,44.0215343 C235.336579,44.0215343 237.793066,41.3387437 237.793066,35.9730821 L237.793066,16.4468371 C237.793066,11.0811755 235.336579,8.39838493 230.423532,8.39838493 C225.557276,8.39838493 223.124185,11.0811755 223.124185,16.4468371 L223.124185,35.9730821 Z M260.723846,48.7106326 L260.723846,3.21938089 C260.723846,2.28622234 261.168353,1.58636393 262.057381,1.11978466 C262.946409,0.653205384 264.022584,0.419919246 265.285939,0.419919246 C266.549294,0.419919246 267.625469,0.653205384 268.514496,1.11978466 C269.403524,1.58636393 269.848031,2.28622234 269.848031,3.21938089 L269.848031,22.3257066 L285.008215,1.74966353 C285.663287,0.863162907 286.505511,0.419919246 287.534912,0.419919246 C288.704685,0.419919246 289.87444,0.921484441 291.044214,1.92462988 C292.213987,2.92777532 292.798864,3.98922724 292.798864,5.1090175 C292.798864,5.80888641 292.611704,6.39210175 292.237376,6.85868102 L279.674076,22.5356662 L294.974632,45.7711978 C295.302168,46.2377771 295.465934,46.7743352 295.465934,47.3808883 C295.465934,48.5006785 294.892754,49.5388019 293.746376,50.4952894 C292.599998,51.4517769 291.34836,51.9300135 289.991423,51.9300135 C288.587695,51.9300135 287.534915,51.3467981 286.833051,50.1803499 L273.638077,30.2341857 L269.848031,34.9932705 L269.848031,48.7106326 C269.848031,49.5971332 269.391826,50.2969916 268.479403,50.8102288 C267.56698,51.323466 266.502503,51.5800808 265.285939,51.5800808 C264.022584,51.5800808 262.946409,51.323466 262.057381,50.8102288 C261.168353,50.2969916 260.723846,49.5971332 260.723846,48.7106326 Z M302.113554,4.47913863 C302.113554,3.4060063 302.359203,2.46119744 302.850507,1.64468371 C303.341812,0.828169987 304.055363,0.419919246 304.991181,0.419919246 L334.679874,0.419919246 C335.615693,0.419919246 336.329244,0.828169987 336.820548,1.64468371 C337.311853,2.46119744 337.557502,3.4060063 337.557502,4.47913863 C337.557502,5.59892888 337.300156,6.56706635 336.785455,7.38358008 C336.270755,8.20009381 335.568902,8.60834455 334.679874,8.60834455 L324.432713,8.60834455 L324.432713,48.7106326 C324.432713,49.5971332 323.976509,50.2969916 323.064086,50.8102288 C322.151663,51.323466 321.087185,51.5800808 319.870621,51.5800808 C318.607266,51.5800808 317.531091,51.323466 316.642063,50.8102288 C315.753036,50.2969916 315.308529,49.5971332 315.308529,48.7106326 L315.308529,8.60834455 L304.991181,8.60834455 C304.102154,8.60834455 303.400301,8.21175812 302.8856,7.41857335 C302.3709,6.62538859 302.113554,5.64558681 302.113554,4.47913863 Z M340.906378,47.8008075 C340.906378,47.7074917 340.953169,47.4742055 341.04675,47.1009421 L354.592655,3.07940781 C354.873401,2.09959133 355.563557,1.34141139 356.663143,0.804845222 C357.76273,0.268279058 359.014368,0 360.418096,0 C361.821824,0 363.08516,0.268279058 364.208142,0.804845222 C365.331124,1.34141139 366.032978,2.09959133 366.313723,3.07940781 L379.859628,47.1009421 C379.95321,47.4742055 380,47.7074917 380,47.8008075 C380,48.8272819 379.368332,49.7137693 378.104977,50.4602961 C376.841622,51.2068229 375.554891,51.5800808 374.244745,51.5800808 C372.513481,51.5800808 371.484096,50.9735368 371.15656,49.7604307 L368.48949,40.4522207 L352.416888,40.4522207 L349.749819,49.7604307 C349.422282,50.9735368 348.392897,51.5800808 346.661633,51.5800808 C345.304696,51.5800808 344.006268,51.2184872 342.766308,50.4952894 C341.526349,49.7720915 340.906378,48.8739399 340.906378,47.8008075 Z M354.311911,33.3135935 L366.524281,33.3135935 L360.418096,11.8277254 L354.311911,33.3135935 Z"/>
  </g>
</svg>
