<svg xmlns="http://www.w3.org/2000/svg" width="433" height="53" viewBox="0 0 433 53">
  <g fill="none" fill-rule="evenodd">
    <path fill="#242424" d="M0,44.54 C0,43.4666613 0.40832925,42.3816722 1.225,41.285 C2.04167075,40.1883279 2.9633282,39.64 3.99,39.64 C4.5966697,39.64 5.28499615,39.9199972 6.055,40.48 C6.82500385,41.0400028 7.57166305,41.65833 8.295,42.335 C9.01833695,43.0116701 10.0566599,43.6299972 11.41,44.19 C12.7633401,44.7500028 14.2566585,45.03 15.89,45.03 C18.1300112,45.03 19.9966592,44.5166718 21.49,43.49 C22.9833408,42.4633282 23.73,40.9466767 23.73,38.94 C23.73,37.539993 23.3216708,36.2916722 22.505,35.195 C21.6883293,34.0983279 20.6150067,33.188337 19.285,32.465 C17.9549934,31.7416631 16.4966746,31.0416701 14.91,30.365 C13.3233254,29.68833 11.7250081,28.9300042 10.115,28.09 C8.50499195,27.2499958 7.03500665,26.3050053 5.705,25.255 C4.37499335,24.2049948 3.30167075,22.8050088 2.485,21.055 C1.66832925,19.3049913 1.26,17.3100112 1.26,15.07 C1.26,12.5966543 1.76166165,10.4150094 2.765,8.525 C3.76833835,6.63499055 5.1099916,5.16500525 6.79,4.115 C8.4700084,3.06499475 10.2666571,2.29500245 12.18,1.805 C14.0933429,1.31499755 16.1233226,1.07 18.27,1.07 C19.4833394,1.07 20.7666599,1.15166585 22.12,1.315 C23.4733401,1.47833415 24.9083258,1.7466648 26.425,2.12 C27.9416743,2.4933352 29.1783286,3.0766627 30.135,3.87 C31.0916715,4.6633373 31.57,5.5966613 31.57,6.67 C31.57,7.6966718 31.2433366,8.75832785 30.59,9.855 C29.9366634,10.9516722 29.0500056,11.5 27.93,11.5 C27.5099979,11.5 26.366676,11.0566711 24.5,10.17 C22.633324,9.2833289 20.5566781,8.84 18.27,8.84 C15.7499874,8.84 13.8016736,9.31832855 12.425,10.275 C11.0483265,11.2316715 10.36,12.5499916 10.36,14.23 C10.36,15.5833401 10.9199944,16.7616617 12.04,17.765 C13.1600056,18.7683384 14.5483251,19.5849969 16.205,20.215 C17.861675,20.8450032 19.6583237,21.6383286 21.595,22.595 C23.5316764,23.5516715 25.3283251,24.5899944 26.985,25.71 C28.641675,26.8300056 30.0299944,28.4516561 31.15,30.575 C32.2700056,32.698344 32.83,35.1833191 32.83,38.03 C32.83,42.8833576 31.301682,46.6283202 28.245,49.265 C25.1883181,51.9016799 21.1633583,53.22 16.17,53.22 C11.7366445,53.22 7.9333492,52.3100091 4.76,50.49 C1.5866508,48.6699909 0,46.6866774 0,44.54 Z M41.49,48.81 C41.49,48.7166662 41.5366662,48.4833352 41.63,48.11 L55.14,4.08 C55.4200014,3.0999951 56.1083279,2.34166935 57.205,1.805 C58.3016722,1.26833065 59.549993,1 60.95,1 C62.350007,1 63.6099944,1.26833065 64.73,1.805 C65.8500056,2.34166935 66.5499986,3.0999951 66.83,4.08 L80.34,48.11 C80.4333338,48.4833352 80.48,48.7166662 80.48,48.81 C80.48,49.8366718 79.8500063,50.7233296 78.59,51.47 C77.3299937,52.2166704 76.0466732,52.59 74.74,52.59 C73.0133247,52.59 71.9866683,51.9833394 71.66,50.77 L69,41.46 L52.97,41.46 L50.31,50.77 C49.9833317,51.9833394 48.9566753,52.59 47.23,52.59 C45.8766599,52.59 44.5816729,52.228337 43.345,51.505 C42.1083272,50.7816631 41.49,49.8833387 41.49,48.81 Z M54.86,34.32 L67.04,34.32 L60.95,12.83 L54.86,34.32 Z M91.31,49.72 L91.31,4.22 C91.31,3.286662 91.7533289,2.586669 92.64,2.12 C93.5266711,1.653331 94.5999937,1.42 95.86,1.42 C97.1200063,1.42 98.1933289,1.653331 99.08,2.12 C99.9666711,2.586669 100.41,3.286662 100.41,4.22 L100.41,44.61 L117.49,44.61 C118.330004,44.61 118.994998,45.0066627 119.485,45.8 C119.975002,46.5933373 120.22,47.5266613 120.22,48.6 C120.22,49.6733387 119.975002,50.6066627 119.485,51.4 C118.994998,52.1933373 118.330004,52.59 117.49,52.59 L95.3,52.59 C94.2266613,52.59 93.2933373,52.3333359 92.5,51.82 C91.7066627,51.3066641 91.31,50.6066711 91.31,49.72 Z M121.04,5.48 C121.04,4.4066613 121.284998,3.46167075 121.775,2.645 C122.265002,1.82832925 122.976662,1.42 123.91,1.42 L153.52,1.42 C154.453338,1.42 155.164998,1.82832925 155.655,2.645 C156.145002,3.46167075 156.39,4.4066613 156.39,5.48 C156.39,6.6000056 156.133336,7.56832925 155.62,8.385 C155.106664,9.20167075 154.406671,9.61 153.52,9.61 L143.3,9.61 L143.3,49.72 C143.3,50.6066711 142.845005,51.3066641 141.935,51.82 C141.024995,52.3333359 139.963339,52.59 138.75,52.59 C137.489994,52.59 136.416671,52.3333359 135.53,51.82 C134.643329,51.3066641 134.2,50.6066711 134.2,49.72 L134.2,9.61 L123.91,9.61 C123.023329,9.61 122.323336,9.2133373 121.81,8.42 C121.296664,7.6266627 121.04,6.6466725 121.04,5.48 Z M167.36,49.72 L167.36,4.29 C167.36,3.4033289 167.756663,2.7033359 168.55,2.19 C169.343337,1.6766641 170.276661,1.42 171.35,1.42 L196.27,1.42 C197.203338,1.42 197.914998,1.8166627 198.405,2.61 C198.895002,3.4033373 199.14,4.3133282 199.14,5.34 C199.14,6.4600056 198.883336,7.4166627 198.37,8.21 C197.856664,9.0033373 197.156671,9.4 196.27,9.4 L176.46,9.4 L176.46,23.4 L187.1,23.4 C187.986671,23.4 188.686664,23.7616631 189.2,24.485 C189.713336,25.208337 189.97,26.0599951 189.97,27.04 C189.97,27.9266711 189.725002,28.7316631 189.235,29.455 C188.744998,30.178337 188.033338,30.54 187.1,30.54 L176.46,30.54 L176.46,44.61 L196.27,44.61 C197.156671,44.61 197.856664,45.0066627 198.37,45.8 C198.883336,46.5933373 199.14,47.5499944 199.14,48.67 C199.14,49.6966718 198.895002,50.6066627 198.405,51.4 C197.914998,52.1933373 197.203338,52.59 196.27,52.59 L171.35,52.59 C170.276661,52.59 169.343337,52.3333359 168.55,51.82 C167.756663,51.3066641 167.36,50.6066711 167.36,49.72 Z"/>
    <path fill="#CA5454" d="M216,49.3 L216,3.8 C216,3.0533296 216.314997,2.4000028 216.945,1.84 C217.575003,1.2799972 218.403328,1 219.43,1 L233.5,1 C238.306691,1 242.156652,2.27165395 245.05,4.815 C247.943348,7.35834605 249.39,11.3366396 249.39,16.75 L249.39,17.17 C249.39,22.6300273 247.885015,26.6433205 244.875,29.21 C241.864985,31.7766795 237.886691,33.06 232.94,33.06 L225.1,33.06 L225.1,49.3 C225.1,50.1866711 224.645005,50.8866641 223.735,51.4 C222.824995,51.9133359 221.763339,52.17 220.55,52.17 C219.289994,52.17 218.216671,51.9133359 217.33,51.4 C216.443329,50.8866641 216,50.1866711 216,49.3 Z M225.1,25.92 L232.94,25.92 C235.273345,25.92 237.08166,25.2433401 238.365,23.89 C239.64834,22.5366599 240.29,20.5300133 240.29,17.87 L240.29,17.03 C240.29,14.3699867 239.64834,12.3633401 238.365,11.01 C237.08166,9.6566599 235.273345,8.98 232.94,8.98 L225.1,8.98 L225.1,25.92 Z M260.43,36.56 L260.43,17.03 C260.43,11.4766389 261.911652,7.4166795 264.875,4.85 C267.838348,2.2833205 271.816642,1 276.81,1 C281.803358,1 285.793318,2.2833205 288.78,4.85 C291.766682,7.4166795 293.26,11.4766389 293.26,17.03 L293.26,36.56 C293.26,42.1133611 291.766682,46.1733205 288.78,48.74 C285.793318,51.3066795 281.803358,52.59 276.81,52.59 C271.816642,52.59 267.838348,51.3066795 264.875,48.74 C261.911652,46.1733205 260.43,42.1133611 260.43,36.56 Z M269.53,36.56 C269.53,41.9266935 271.956642,44.61 276.81,44.61 C281.710024,44.61 284.16,41.9266935 284.16,36.56 L284.16,17.03 C284.16,11.6633065 281.710024,8.98 276.81,8.98 C271.956642,8.98 269.53,11.6633065 269.53,17.03 L269.53,36.56 Z M307.03,49.3 L307.03,3.8 C307.03,3.0533296 307.344997,2.4000028 307.975,1.84 C308.605003,1.2799972 309.433328,1 310.46,1 L324.53,1 C329.336691,1 333.186652,2.27165395 336.08,4.815 C338.973348,7.35834605 340.42,11.3366396 340.42,16.75 L340.42,17.17 C340.42,22.6300273 338.915015,26.6433205 335.905,29.21 C332.894985,31.7766795 328.916691,33.06 323.97,33.06 L316.13,33.06 L316.13,49.3 C316.13,50.1866711 315.675005,50.8866641 314.765,51.4 C313.854995,51.9133359 312.793339,52.17 311.58,52.17 C310.319994,52.17 309.246671,51.9133359 308.36,51.4 C307.473329,50.8866641 307.03,50.1866711 307.03,49.3 Z M316.13,25.92 L323.97,25.92 C326.303345,25.92 328.11166,25.2433401 329.395,23.89 C330.67834,22.5366599 331.32,20.5300133 331.32,17.87 L331.32,17.03 C331.32,14.3699867 330.67834,12.3633401 329.395,11.01 C328.11166,9.6566599 326.303345,8.98 323.97,8.98 L316.13,8.98 L316.13,25.92 Z M351.81,36.56 L351.81,3.8 C351.81,2.866662 352.253329,2.166669 353.14,1.7 C354.026671,1.233331 355.099994,1 356.36,1 C357.620006,1 358.693329,1.233331 359.58,1.7 C360.466671,2.166669 360.91,2.866662 360.91,3.8 L360.91,36.56 C360.91,41.9266935 363.476641,44.61 368.61,44.61 C373.743359,44.61 376.31,41.9266935 376.31,36.56 L376.31,3.8 C376.31,2.866662 376.753329,2.166669 377.64,1.7 C378.526671,1.233331 379.599994,1 380.86,1 C382.120006,1 383.193329,1.233331 384.08,1.7 C384.966671,2.166669 385.41,2.866662 385.41,3.8 L385.41,36.56 C385.41,42.0666942 383.881682,46.1149871 380.825,48.705 C377.768318,51.295013 373.696692,52.59 368.61,52.59 C363.523308,52.59 359.451682,51.3066795 356.395,48.74 C353.338318,46.1733205 351.81,42.1133611 351.81,36.56 Z M399.6,49.3 L399.6,3.8 C399.6,3.0533296 399.914997,2.4000028 400.545,1.84 C401.175003,1.2799972 402.003328,1 403.03,1 L417.1,1 C421.906691,1 425.756652,2.27165395 428.65,4.815 C431.543348,7.35834605 432.99,11.3366396 432.99,16.75 L432.99,17.17 C432.99,22.6300273 431.485015,26.6433205 428.475,29.21 C425.464985,31.7766795 421.486691,33.06 416.54,33.06 L408.7,33.06 L408.7,49.3 C408.7,50.1866711 408.245005,50.8866641 407.335,51.4 C406.424995,51.9133359 405.363339,52.17 404.15,52.17 C402.889994,52.17 401.816671,51.9133359 400.93,51.4 C400.043329,50.8866641 399.6,50.1866711 399.6,49.3 Z M408.7,25.92 L416.54,25.92 C418.873345,25.92 420.68166,25.2433401 421.965,23.89 C423.24834,22.5366599 423.89,20.5300133 423.89,17.87 L423.89,17.03 C423.89,14.3699867 423.24834,12.3633401 421.965,11.01 C420.68166,9.6566599 418.873345,8.98 416.54,8.98 L408.7,8.98 L408.7,25.92 Z"/>
  </g>
</svg>
