<svg xmlns="http://www.w3.org/2000/svg" width="540" height="53" viewBox="0 0 540 53">
  <g fill="none" fill-rule="evenodd">
    <path fill="#242424" d="M0,44.54 C0,43.4666613 0.40832925,42.3816722 1.225,41.285 C2.04167075,40.1883279 2.9633282,39.64 3.99,39.64 C4.5966697,39.64 5.28499615,39.9199972 6.055,40.48 C6.82500385,41.0400028 7.57166305,41.65833 8.295,42.335 C9.01833695,43.0116701 10.0566599,43.6299972 11.41,44.19 C12.7633401,44.7500028 14.2566585,45.03 15.89,45.03 C18.1300112,45.03 19.9966592,44.5166718 21.49,43.49 C22.9833408,42.4633282 23.73,40.9466767 23.73,38.94 C23.73,37.539993 23.3216708,36.2916722 22.505,35.195 C21.6883293,34.0983279 20.6150067,33.188337 19.285,32.465 C17.9549934,31.7416631 16.4966746,31.0416701 14.91,30.365 C13.3233254,29.68833 11.7250081,28.9300042 10.115,28.09 C8.50499195,27.2499958 7.03500665,26.3050053 5.705,25.255 C4.37499335,24.2049948 3.30167075,22.8050088 2.485,21.055 C1.66832925,19.3049913 1.26,17.3100112 1.26,15.07 C1.26,12.5966543 1.76166165,10.4150094 2.765,8.525 C3.76833835,6.63499055 5.1099916,5.16500525 6.79,4.115 C8.4700084,3.06499475 10.2666571,2.29500245 12.18,1.805 C14.0933429,1.31499755 16.1233226,1.07 18.27,1.07 C19.4833394,1.07 20.7666599,1.15166585 22.12,1.315 C23.4733401,1.47833415 24.9083258,1.7466648 26.425,2.12 C27.9416743,2.4933352 29.1783286,3.0766627 30.135,3.87 C31.0916715,4.6633373 31.57,5.5966613 31.57,6.67 C31.57,7.6966718 31.2433366,8.75832785 30.59,9.855 C29.9366634,10.9516722 29.0500056,11.5 27.93,11.5 C27.5099979,11.5 26.366676,11.0566711 24.5,10.17 C22.633324,9.2833289 20.5566781,8.84 18.27,8.84 C15.7499874,8.84 13.8016736,9.31832855 12.425,10.275 C11.0483265,11.2316715 10.36,12.5499916 10.36,14.23 C10.36,15.5833401 10.9199944,16.7616617 12.04,17.765 C13.1600056,18.7683384 14.5483251,19.5849969 16.205,20.215 C17.861675,20.8450032 19.6583237,21.6383286 21.595,22.595 C23.5316764,23.5516715 25.3283251,24.5899944 26.985,25.71 C28.641675,26.8300056 30.0299944,28.4516561 31.15,30.575 C32.2700056,32.698344 32.83,35.1833191 32.83,38.03 C32.83,42.8833576 31.301682,46.6283202 28.245,49.265 C25.1883181,51.9016799 21.1633583,53.22 16.17,53.22 C11.7366445,53.22 7.9333492,52.3100091 4.76,50.49 C1.5866508,48.6699909 0,46.6866774 0,44.54 Z M41.49,48.81 C41.49,48.7166662 41.5366662,48.4833352 41.63,48.11 L55.14,4.08 C55.4200014,3.0999951 56.1083279,2.34166935 57.205,1.805 C58.3016722,1.26833065 59.549993,1 60.95,1 C62.350007,1 63.6099944,1.26833065 64.73,1.805 C65.8500056,2.34166935 66.5499986,3.0999951 66.83,4.08 L80.34,48.11 C80.4333338,48.4833352 80.48,48.7166662 80.48,48.81 C80.48,49.8366718 79.8500063,50.7233296 78.59,51.47 C77.3299937,52.2166704 76.0466732,52.59 74.74,52.59 C73.0133247,52.59 71.9866683,51.9833394 71.66,50.77 L69,41.46 L52.97,41.46 L50.31,50.77 C49.9833317,51.9833394 48.9566753,52.59 47.23,52.59 C45.8766599,52.59 44.5816729,52.228337 43.345,51.505 C42.1083272,50.7816631 41.49,49.8833387 41.49,48.81 Z M54.86,34.32 L67.04,34.32 L60.95,12.83 L54.86,34.32 Z M91.31,49.72 L91.31,4.22 C91.31,3.286662 91.7533289,2.586669 92.64,2.12 C93.5266711,1.653331 94.5999937,1.42 95.86,1.42 C97.1200063,1.42 98.1933289,1.653331 99.08,2.12 C99.9666711,2.586669 100.41,3.286662 100.41,4.22 L100.41,44.61 L117.49,44.61 C118.330004,44.61 118.994998,45.0066627 119.485,45.8 C119.975002,46.5933373 120.22,47.5266613 120.22,48.6 C120.22,49.6733387 119.975002,50.6066627 119.485,51.4 C118.994998,52.1933373 118.330004,52.59 117.49,52.59 L95.3,52.59 C94.2266613,52.59 93.2933373,52.3333359 92.5,51.82 C91.7066627,51.3066641 91.31,50.6066711 91.31,49.72 Z M121.04,5.48 C121.04,4.4066613 121.284998,3.46167075 121.775,2.645 C122.265002,1.82832925 122.976662,1.42 123.91,1.42 L153.52,1.42 C154.453338,1.42 155.164998,1.82832925 155.655,2.645 C156.145002,3.46167075 156.39,4.4066613 156.39,5.48 C156.39,6.6000056 156.133336,7.56832925 155.62,8.385 C155.106664,9.20167075 154.406671,9.61 153.52,9.61 L143.3,9.61 L143.3,49.72 C143.3,50.6066711 142.845005,51.3066641 141.935,51.82 C141.024995,52.3333359 139.963339,52.59 138.75,52.59 C137.489994,52.59 136.416671,52.3333359 135.53,51.82 C134.643329,51.3066641 134.2,50.6066711 134.2,49.72 L134.2,9.61 L123.91,9.61 C123.023329,9.61 122.323336,9.2133373 121.81,8.42 C121.296664,7.6266627 121.04,6.6466725 121.04,5.48 Z M167.36,49.72 L167.36,4.29 C167.36,3.4033289 167.756663,2.7033359 168.55,2.19 C169.343337,1.6766641 170.276661,1.42 171.35,1.42 L196.27,1.42 C197.203338,1.42 197.914998,1.8166627 198.405,2.61 C198.895002,3.4033373 199.14,4.3133282 199.14,5.34 C199.14,6.4600056 198.883336,7.4166627 198.37,8.21 C197.856664,9.0033373 197.156671,9.4 196.27,9.4 L176.46,9.4 L176.46,23.4 L187.1,23.4 C187.986671,23.4 188.686664,23.7616631 189.2,24.485 C189.713336,25.208337 189.97,26.0599951 189.97,27.04 C189.97,27.9266711 189.725002,28.7316631 189.235,29.455 C188.744998,30.178337 188.033338,30.54 187.1,30.54 L176.46,30.54 L176.46,44.61 L196.27,44.61 C197.156671,44.61 197.856664,45.0066627 198.37,45.8 C198.883336,46.5933373 199.14,47.5499944 199.14,48.67 C199.14,49.6966718 198.895002,50.6066627 198.405,51.4 C197.914998,52.1933373 197.203338,52.59 196.27,52.59 L171.35,52.59 C170.276661,52.59 169.343337,52.3333359 168.55,51.82 C167.756663,51.3066641 167.36,50.6066711 167.36,49.72 Z"/>
    <path fill="#812525" d="M216,49.3 L216,3.8 C216,3.0533296 216.279997,2.4000028 216.84,1.84 C217.400003,1.2799972 218.099996,1 218.94,1 L232.8,1 C243.860055,1 249.39,5.8766179 249.39,15.63 C249.39,19.4566858 248.561675,22.536655 246.905,24.87 C245.248325,27.203345 243.020014,28.7899958 240.22,29.63 L249.39,46.64 C249.623334,46.9200014 249.74,47.293331 249.74,47.76 C249.74,48.9266725 249.133339,50.0116617 247.92,51.015 C246.706661,52.0183384 245.42334,52.52 244.07,52.52 C242.71666,52.52 241.66667,51.7966739 240.92,50.35 L230.98,31.03 L225.1,31.03 L225.1,49.3 C225.1,50.1866711 224.656671,50.8866641 223.77,51.4 C222.883329,51.9133359 221.810006,52.17 220.55,52.17 C219.336661,52.17 218.275005,51.9133359 217.365,51.4 C216.454995,50.8866641 216,50.1866711 216,49.3 Z M225.1,23.89 L232.8,23.89 C237.793358,23.89 240.29,21.4166914 240.29,16.47 C240.29,11.4766417 237.793358,8.98 232.8,8.98 L225.1,8.98 L225.1,23.89 Z M261.9,49.3 L261.9,3.87 C261.9,2.9833289 262.296663,2.2833359 263.09,1.77 C263.883337,1.2566641 264.816661,1 265.89,1 L290.81,1 C291.743338,1 292.454998,1.3966627 292.945,2.19 C293.435002,2.9833373 293.68,3.8933282 293.68,4.92 C293.68,6.0400056 293.423336,6.9966627 292.91,7.79 C292.396664,8.5833373 291.696671,8.98 290.81,8.98 L271,8.98 L271,22.98 L281.64,22.98 C282.526671,22.98 283.226664,23.3416631 283.74,24.065 C284.253336,24.788337 284.51,25.6399951 284.51,26.62 C284.51,27.5066711 284.265002,28.311663 283.775,29.035 C283.284998,29.758337 282.573338,30.12 281.64,30.12 L271,30.12 L271,44.19 L290.81,44.19 C291.696671,44.19 292.396664,44.5866627 292.91,45.38 C293.423336,46.1733373 293.68,47.1299944 293.68,48.25 C293.68,49.2766718 293.435002,50.1866627 292.945,50.98 C292.454998,51.7733373 291.743338,52.17 290.81,52.17 L265.89,52.17 C264.816661,52.17 263.883337,51.9133359 263.09,51.4 C262.296663,50.8866641 261.9,50.1866711 261.9,49.3 Z M305,49.37 L305,3.8 C305,3.0533296 305.37333,2.4000028 306.12,1.84 C306.86667,1.2799972 307.823328,1 308.99,1 L321.38,1 C326.373358,1 330.363318,2.2833205 333.35,4.85 C336.336682,7.4166795 337.83,11.4766389 337.83,17.03 L337.83,36.14 C337.83,41.6933611 336.336682,45.7533205 333.35,48.32 C330.363318,50.8866795 326.373358,52.17 321.38,52.17 L308.99,52.17 C307.823328,52.17 306.86667,51.8900028 306.12,51.33 C305.37333,50.7699972 305,50.1166704 305,49.37 Z M314.1,44.19 L321.38,44.19 C326.280025,44.19 328.73,41.5066935 328.73,36.14 L328.73,17.03 C328.73,11.6633065 326.280025,8.98 321.38,8.98 L314.1,8.98 L314.1,44.19 Z M351.6,49.3 L351.6,3.8 C351.6,2.866662 352.043329,2.166669 352.93,1.7 C353.816671,1.233331 354.889994,1 356.15,1 C357.410006,1 358.483329,1.233331 359.37,1.7 C360.256671,2.166669 360.7,2.866662 360.7,3.8 L360.7,49.3 C360.7,50.1866711 360.245005,50.8866641 359.335,51.4 C358.424995,51.9133359 357.363339,52.17 356.15,52.17 C354.889994,52.17 353.816671,51.9133359 352.93,51.4 C352.043329,50.8866641 351.6,50.1866711 351.6,49.3 Z M375.1,49.3 L375.1,3.8 C375.1,3.0533296 375.379997,2.4000028 375.94,1.84 C376.500003,1.2799972 377.199996,1 378.04,1 L391.9,1 C402.960055,1 408.49,5.8766179 408.49,15.63 C408.49,19.4566858 407.661675,22.536655 406.005,24.87 C404.348325,27.203345 402.120014,28.7899958 399.32,29.63 L408.49,46.64 C408.723335,46.9200014 408.84,47.293331 408.84,47.76 C408.84,48.9266725 408.233339,50.0116617 407.02,51.015 C405.806661,52.0183384 404.52334,52.52 403.17,52.52 C401.81666,52.52 400.76667,51.7966739 400.02,50.35 L390.08,31.03 L384.2,31.03 L384.2,49.3 C384.2,50.1866711 383.756671,50.8866641 382.87,51.4 C381.983329,51.9133359 380.910006,52.17 379.65,52.17 C378.436661,52.17 377.375005,51.9133359 376.465,51.4 C375.554995,50.8866641 375.1,50.1866711 375.1,49.3 Z M384.2,23.89 L391.9,23.89 C396.893358,23.89 399.39,21.4166914 399.39,16.47 C399.39,11.4766417 396.893358,8.98 391.9,8.98 L384.2,8.98 L384.2,23.89 Z M421,49.3 L421,3.87 C421,2.9833289 421.396663,2.2833359 422.19,1.77 C422.983337,1.2566641 423.916661,1 424.99,1 L449.91,1 C450.843338,1 451.554998,1.3966627 452.045,2.19 C452.535002,2.9833373 452.78,3.8933282 452.78,4.92 C452.78,6.0400056 452.523336,6.9966627 452.01,7.79 C451.496664,8.5833373 450.796671,8.98 449.91,8.98 L430.1,8.98 L430.1,22.98 L440.74,22.98 C441.626671,22.98 442.326664,23.3416631 442.84,24.065 C443.353336,24.788337 443.61,25.6399951 443.61,26.62 C443.61,27.5066711 443.365002,28.311663 442.875,29.035 C442.384998,29.758337 441.673338,30.12 440.74,30.12 L430.1,30.12 L430.1,44.19 L449.91,44.19 C450.796671,44.19 451.496664,44.5866627 452.01,45.38 C452.523336,46.1733373 452.78,47.1299944 452.78,48.25 C452.78,49.2766718 452.535002,50.1866627 452.045,50.98 C451.554998,51.7733373 450.843338,52.17 449.91,52.17 L424.99,52.17 C423.916661,52.17 422.983337,51.9133359 422.19,51.4 C421.396663,50.8866641 421,50.1866711 421,49.3 Z M463.05,36.56 L463.05,17.03 C463.05,11.5233058 464.543318,7.47501295 467.53,4.885 C470.516682,2.29498705 474.413309,1 479.22,1 C484.120025,1 488.121651,2.2133212 491.225,4.64 C494.328349,7.0666788 495.88,10.2866466 495.88,14.3 C495.88,16.0266753 495.530003,17.2049969 494.83,17.835 C494.129996,18.4650032 492.963341,18.78 491.33,18.78 C488.343318,18.78 486.826667,17.8233429 486.78,15.91 C486.733333,15.3033303 486.675,14.7783355 486.605,14.335 C486.535,13.8916644 486.348335,13.3083369 486.045,12.585 C485.741665,11.8616631 485.356669,11.2550024 484.89,10.765 C484.423331,10.2749976 483.723338,9.85500175 482.79,9.505 C481.856662,9.15499825 480.760006,8.98 479.5,8.98 C474.599975,8.98 472.15,11.6633065 472.15,17.03 L472.15,36.56 C472.15,41.9266935 474.646642,44.61 479.64,44.61 C481.133341,44.61 482.381662,44.376669 483.385,43.91 C484.388338,43.443331 485.111664,42.7783376 485.555,41.915 C485.998336,41.0516624 486.301666,40.2816701 486.465,39.605 C486.628334,38.92833 486.733333,38.1000049 486.78,37.12 C486.920001,35.2066571 488.413319,34.25 491.26,34.25 C492.893341,34.25 494.071663,34.5649968 494.795,35.195 C495.518337,35.8250032 495.88,37.0033247 495.88,38.73 C495.88,42.930021 494.328349,46.2899874 491.225,48.81 C488.121651,51.3300126 484.096691,52.59 479.15,52.59 C474.343309,52.59 470.458348,51.295013 467.495,48.705 C464.531652,46.1149871 463.05,42.0666942 463.05,36.56 Z M504.68,5.06 C504.68,3.9866613 504.924998,3.04167075 505.415,2.225 C505.905002,1.40832925 506.616662,1 507.55,1 L537.16,1 C538.093338,1 538.804998,1.40832925 539.295,2.225 C539.785002,3.04167075 540.03,3.9866613 540.03,5.06 C540.03,6.1800056 539.773336,7.14832925 539.26,7.965 C538.746664,8.78167075 538.046671,9.19 537.16,9.19 L526.94,9.19 L526.94,49.3 C526.94,50.1866711 526.485005,50.8866641 525.575,51.4 C524.664995,51.9133359 523.603339,52.17 522.39,52.17 C521.129994,52.17 520.056671,51.9133359 519.17,51.4 C518.283329,50.8866641 517.84,50.1866711 517.84,49.3 L517.84,9.19 L507.55,9.19 C506.663329,9.19 505.963336,8.7933373 505.45,8 C504.936664,7.2066627 504.68,6.2266725 504.68,5.06 Z"/>
  </g>
</svg>
