<svg xmlns="http://www.w3.org/2000/svg" width="334" height="53" viewBox="0 0 334 53">
  <g fill="none" fill-rule="evenodd">
    <path fill="#242424" d="M0,44.54 C0,43.4666613 0.40832925,42.3816722 1.225,41.285 C2.04167075,40.1883279 2.9633282,39.64 3.99,39.64 C4.5966697,39.64 5.28499615,39.9199972 6.055,40.48 C6.82500385,41.0400028 7.57166305,41.65833 8.295,42.335 C9.01833695,43.0116701 10.0566599,43.6299972 11.41,44.19 C12.7633401,44.7500028 14.2566585,45.03 15.89,45.03 C18.1300112,45.03 19.9966592,44.5166718 21.49,43.49 C22.9833408,42.4633282 23.73,40.9466767 23.73,38.94 C23.73,37.539993 23.3216708,36.2916722 22.505,35.195 C21.6883293,34.0983279 20.6150067,33.188337 19.285,32.465 C17.9549934,31.7416631 16.4966746,31.0416701 14.91,30.365 C13.3233254,29.68833 11.7250081,28.9300042 10.115,28.09 C8.50499195,27.2499958 7.03500665,26.3050053 5.705,25.255 C4.37499335,24.2049948 3.30167075,22.8050088 2.485,21.055 C1.66832925,19.3049913 1.26,17.3100112 1.26,15.07 C1.26,12.5966543 1.76166165,10.4150094 2.765,8.525 C3.76833835,6.63499055 5.1099916,5.16500525 6.79,4.115 C8.4700084,3.06499475 10.2666571,2.29500245 12.18,1.805 C14.0933429,1.31499755 16.1233226,1.07 18.27,1.07 C19.4833394,1.07 20.7666599,1.15166585 22.12,1.315 C23.4733401,1.47833415 24.9083258,1.7466648 26.425,2.12 C27.9416743,2.4933352 29.1783286,3.0766627 30.135,3.87 C31.0916715,4.6633373 31.57,5.5966613 31.57,6.67 C31.57,7.6966718 31.2433366,8.75832785 30.59,9.855 C29.9366634,10.9516722 29.0500056,11.5 27.93,11.5 C27.5099979,11.5 26.366676,11.0566711 24.5,10.17 C22.633324,9.2833289 20.5566781,8.84 18.27,8.84 C15.7499874,8.84 13.8016736,9.31832855 12.425,10.275 C11.0483265,11.2316715 10.36,12.5499916 10.36,14.23 C10.36,15.5833401 10.9199944,16.7616617 12.04,17.765 C13.1600056,18.7683384 14.5483251,19.5849969 16.205,20.215 C17.861675,20.8450032 19.6583237,21.6383286 21.595,22.595 C23.5316764,23.5516715 25.3283251,24.5899944 26.985,25.71 C28.641675,26.8300056 30.0299944,28.4516561 31.15,30.575 C32.2700056,32.698344 32.83,35.1833191 32.83,38.03 C32.83,42.8833576 31.301682,46.6283202 28.245,49.265 C25.1883181,51.9016799 21.1633583,53.22 16.17,53.22 C11.7366445,53.22 7.9333492,52.3100091 4.76,50.49 C1.5866508,48.6699909 0,46.6866774 0,44.54 Z M41.49,48.81 C41.49,48.7166662 41.5366662,48.4833352 41.63,48.11 L55.14,4.08 C55.4200014,3.0999951 56.1083279,2.34166935 57.205,1.805 C58.3016722,1.26833065 59.549993,1 60.95,1 C62.350007,1 63.6099944,1.26833065 64.73,1.805 C65.8500056,2.34166935 66.5499986,3.0999951 66.83,4.08 L80.34,48.11 C80.4333338,48.4833352 80.48,48.7166662 80.48,48.81 C80.48,49.8366718 79.8500063,50.7233296 78.59,51.47 C77.3299937,52.2166704 76.0466732,52.59 74.74,52.59 C73.0133247,52.59 71.9866683,51.9833394 71.66,50.77 L69,41.46 L52.97,41.46 L50.31,50.77 C49.9833317,51.9833394 48.9566753,52.59 47.23,52.59 C45.8766599,52.59 44.5816729,52.228337 43.345,51.505 C42.1083272,50.7816631 41.49,49.8833387 41.49,48.81 Z M54.86,34.32 L67.04,34.32 L60.95,12.83 L54.86,34.32 Z M91.31,49.72 L91.31,4.22 C91.31,3.286662 91.7533289,2.586669 92.64,2.12 C93.5266711,1.653331 94.5999937,1.42 95.86,1.42 C97.1200063,1.42 98.1933289,1.653331 99.08,2.12 C99.9666711,2.586669 100.41,3.286662 100.41,4.22 L100.41,44.61 L117.49,44.61 C118.330004,44.61 118.994998,45.0066627 119.485,45.8 C119.975002,46.5933373 120.22,47.5266613 120.22,48.6 C120.22,49.6733387 119.975002,50.6066627 119.485,51.4 C118.994998,52.1933373 118.330004,52.59 117.49,52.59 L95.3,52.59 C94.2266613,52.59 93.2933373,52.3333359 92.5,51.82 C91.7066627,51.3066641 91.31,50.6066711 91.31,49.72 Z M121.04,5.48 C121.04,4.4066613 121.284998,3.46167075 121.775,2.645 C122.265002,1.82832925 122.976662,1.42 123.91,1.42 L153.52,1.42 C154.453338,1.42 155.164998,1.82832925 155.655,2.645 C156.145002,3.46167075 156.39,4.4066613 156.39,5.48 C156.39,6.6000056 156.133336,7.56832925 155.62,8.385 C155.106664,9.20167075 154.406671,9.61 153.52,9.61 L143.3,9.61 L143.3,49.72 C143.3,50.6066711 142.845005,51.3066641 141.935,51.82 C141.024995,52.3333359 139.963339,52.59 138.75,52.59 C137.489994,52.59 136.416671,52.3333359 135.53,51.82 C134.643329,51.3066641 134.2,50.6066711 134.2,49.72 L134.2,9.61 L123.91,9.61 C123.023329,9.61 122.323336,9.2133373 121.81,8.42 C121.296664,7.6266627 121.04,6.6466725 121.04,5.48 Z M167.36,49.72 L167.36,4.29 C167.36,3.4033289 167.756663,2.7033359 168.55,2.19 C169.343337,1.6766641 170.276661,1.42 171.35,1.42 L196.27,1.42 C197.203338,1.42 197.914998,1.8166627 198.405,2.61 C198.895002,3.4033373 199.14,4.3133282 199.14,5.34 C199.14,6.4600056 198.883336,7.4166627 198.37,8.21 C197.856664,9.0033373 197.156671,9.4 196.27,9.4 L176.46,9.4 L176.46,23.4 L187.1,23.4 C187.986671,23.4 188.686664,23.7616631 189.2,24.485 C189.713336,25.208337 189.97,26.0599951 189.97,27.04 C189.97,27.9266711 189.725002,28.7316631 189.235,29.455 C188.744998,30.178337 188.033338,30.54 187.1,30.54 L176.46,30.54 L176.46,44.61 L196.27,44.61 C197.156671,44.61 197.856664,45.0066627 198.37,45.8 C198.883336,46.5933373 199.14,47.5499944 199.14,48.67 C199.14,49.6966718 198.895002,50.6066627 198.405,51.4 C197.914998,52.1933373 197.203338,52.59 196.27,52.59 L171.35,52.59 C170.276661,52.59 169.343337,52.3333359 168.55,51.82 C167.756663,51.3066641 167.36,50.6066711 167.36,49.72 Z"/>
    <path fill="#CA5454" d="M213,5.48 C213,4.4066613 213.244998,3.46167075 213.735,2.645 C214.225002,1.82832925 214.936662,1.42 215.87,1.42 L245.48,1.42 C246.413338,1.42 247.124998,1.82832925 247.615,2.645 C248.105002,3.46167075 248.35,4.4066613 248.35,5.48 C248.35,6.6000056 248.093336,7.56832925 247.58,8.385 C247.066664,9.20167075 246.366671,9.61 245.48,9.61 L235.26,9.61 L235.26,49.72 C235.26,50.6066711 234.805005,51.3066641 233.895,51.82 C232.984995,52.3333359 231.923339,52.59 230.71,52.59 C229.449994,52.59 228.376671,52.3333359 227.49,51.82 C226.603329,51.3066641 226.16,50.6066711 226.16,49.72 L226.16,9.61 L215.87,9.61 C214.983329,9.61 214.283336,9.2133373 213.77,8.42 C213.256664,7.6266627 213,6.6466725 213,5.48 Z M251.69,48.81 C251.69,48.7166662 251.736666,48.4833352 251.83,48.11 L265.34,4.08 C265.620001,3.0999951 266.308328,2.34166935 267.405,1.805 C268.501672,1.26833065 269.749993,1 271.15,1 C272.550007,1 273.809994,1.26833065 274.93,1.805 C276.050006,2.34166935 276.749999,3.0999951 277.03,4.08 L290.54,48.11 C290.633334,48.4833352 290.68,48.7166662 290.68,48.81 C290.68,49.8366718 290.050006,50.7233296 288.79,51.47 C287.529994,52.2166704 286.246673,52.59 284.94,52.59 C283.213325,52.59 282.186668,51.9833394 281.86,50.77 L279.2,41.46 L263.17,41.46 L260.51,50.77 C260.183332,51.9833394 259.156675,52.59 257.43,52.59 C256.07666,52.59 254.781673,52.228337 253.545,51.505 C252.308327,50.7816631 251.69,49.8833387 251.69,48.81 Z M265.06,34.32 L277.24,34.32 L271.15,12.83 L265.06,34.32 Z M301.51,49.79 L301.51,4.29 C301.51,3.4033289 301.906663,2.7033359 302.7,2.19 C303.493337,1.6766641 304.426661,1.42 305.5,1.42 L319.01,1.42 C328.390047,1.42 333.08,5.5266256 333.08,13.74 C333.08,19.4333618 331.096686,23.1433247 327.13,24.87 C329.510012,25.803338 331.306661,27.1216581 332.52,28.825 C333.733339,30.5283419 334.34,33.013317 334.34,36.28 L334.34,37.75 C334.34,42.9300259 333.080013,46.6983216 330.56,49.055 C328.039987,51.4116785 324.633355,52.59 320.34,52.59 L305.5,52.59 C304.333327,52.59 303.37667,52.3100028 302.63,51.75 C301.88333,51.1899972 301.51,50.5366704 301.51,49.79 Z M310.54,44.61 L318.45,44.61 C322.976689,44.61 325.24,42.0666921 325.24,36.98 L325.24,35.86 C325.24,33.2466536 324.668339,31.3566725 323.525,30.19 C322.381661,29.0233275 320.690011,28.44 318.45,28.44 L310.54,28.44 L310.54,44.61 Z M310.54,21.3 L318.38,21.3 C320.200009,21.3 321.588329,20.7633387 322.545,19.69 C323.501671,18.6166613 323.98,17.146676 323.98,15.28 C323.98,13.4599909 323.478338,12.0250052 322.475,10.975 C321.471662,9.92499475 320.083342,9.4 318.31,9.4 L310.54,9.4 L310.54,21.3 Z"/>
  </g>
</svg>
