<svg xmlns="http://www.w3.org/2000/svg" width="400" height="53" viewBox="0 0 400 53">
  <g fill="none" fill-rule="evenodd">
    <path fill="#242424" fill-rule="nonzero" d="M0,43.3565684 C0,42.2877516 0.408042185,41.2073334 1.2241388,40.1152815 C2.04023541,39.0232296 2.96124491,38.4772118 3.98719494,38.4772118 C4.59343814,38.4772118 5.28128068,38.7560294 6.0507432,39.3136729 C6.82020572,39.8713165 7.56634,40.4870386 8.28916842,41.1608579 C9.01199685,41.8346772 10.0495898,42.4503994 11.4019785,43.0080429 C12.7543672,43.5656864 14.2466357,43.844504 15.878829,43.844504 C18.1172654,43.844504 19.9826011,43.3333384 21.474892,42.310992 C22.967183,41.2886455 23.7133173,39.7783835 23.7133173,37.7801609 C23.7133173,36.386052 23.3052751,35.1429903 22.4891785,34.0509383 C21.6730819,32.9588864 20.6005138,32.0527292 19.2714422,31.3324397 C17.9423706,30.6121501 16.4850771,29.9151061 14.8995179,29.2412869 C13.3139588,28.5674676 11.7167651,27.8123366 10.1078889,26.9758713 C8.49901275,26.139406 7.03006088,25.1983966 5.70098925,24.152815 C4.37191763,23.1072334 3.2993496,21.7131454 2.48325299,19.9705094 C1.66715638,18.2278733 1.25911419,16.241298 1.25911419,14.0107239 C1.25911419,11.5477982 1.76042316,9.37534453 2.76305614,7.49329759 C3.76568912,5.61125064 5.10639916,4.14745831 6.78522647,3.10187668 C8.46405379,2.05629504 10.2594394,1.28954668 12.1714372,0.801608579 C14.083435,0.313670483 16.1119875,0.0697050938 18.2571558,0.0697050938 C19.4696422,0.0697050938 20.7520605,0.15102689 22.1044491,0.313672922 C23.4568378,0.476318954 24.8908146,0.743519142 26.4064226,1.1152815 C27.9220306,1.48704386 29.1578155,2.06791383 30.1138144,2.85790885 C31.0698133,3.64790386 31.5478056,4.57729582 31.5478056,5.6461126 C31.5478056,6.66845909 31.2213718,7.72564244 30.5684945,8.81769437 C29.9156172,9.9097463 29.0295828,10.4557641 27.9103646,10.4557641 C27.4906577,10.4557641 26.3481396,10.0143029 24.4827759,9.13136729 C22.6174123,8.24843169 20.5422263,7.80697051 18.2571558,7.80697051 C15.7389148,7.80697051 13.7919707,8.28328389 12.4162649,9.23592493 C11.0405592,10.188566 10.3527167,11.5013321 10.3527167,13.1742627 C10.3527167,14.5219013 10.9123174,15.6952586 12.0315356,16.69437 C13.1507538,17.6934813 14.5380972,18.5066993 16.1936075,19.1340483 C17.8491178,19.7613972 19.6445034,20.5513804 21.5798182,21.5040214 C23.515133,22.4566625 25.3105187,23.490611 26.9660289,24.6058981 C28.6215392,25.7211852 30.0088826,27.3360037 31.1281008,29.4504021 C32.247319,31.5648006 32.8069198,34.0393066 32.8069198,36.8739946 C32.8069198,41.7069053 31.2796761,45.4360905 28.2251431,48.0616622 C25.1706101,50.6872339 21.14848,52 16.1586321,52 C11.7283934,52 7.92777187,51.0938428 4.75665361,49.2815013 C1.58553535,47.4691598 0,45.4942019 0,43.3565684 Z M41.4608316,47.6085791 C41.4608316,47.5156385 41.507465,47.2832905 41.6007332,46.9115282 L55.1012353,3.06702413 C55.3810399,2.09114794 56.0688824,1.33601697 57.1647836,0.801608579 C58.2606847,0.267200188 59.508128,0 60.9071507,0 C62.3061735,0 63.5652751,0.267200188 64.6844933,0.801608579 C65.8037115,1.33601697 66.5032124,2.09114794 66.783017,3.06702413 L80.2835191,46.9115282 C80.3767873,47.2832905 80.4234207,47.5156385 80.4234207,47.6085791 C80.4234207,48.6309256 79.7938699,49.5138479 78.5347494,50.2573727 C77.2756289,51.0008974 75.9932106,51.3726542 74.6874561,51.3726542 C72.9619947,51.3726542 71.93606,50.7685494 71.6096214,49.5603217 L68.9514914,40.2895442 L52.9327609,40.2895442 L50.2746309,49.5603217 C49.9481923,50.7685494 48.9222576,51.3726542 47.1967962,51.3726542 C45.8444076,51.3726542 44.5503309,51.0125148 43.3145275,50.2922252 C42.078724,49.5719356 41.4608316,48.6773959 41.4608316,47.6085791 Z M54.8214322,33.1796247 L66.9928693,33.1796247 L60.9071507,11.7801609 L54.8214322,33.1796247 Z M91.245807,48.5147453 L91.245807,3.20643432 C91.245807,2.27702842 91.6888242,1.57998445 92.5748719,1.1152815 C93.4609197,0.650578552 94.5334877,0.418230563 95.7926082,0.418230563 C97.0517287,0.418230563 98.1242967,0.650578552 99.0103445,1.1152815 C99.8963922,1.57998445 100.339409,2.27702842 100.339409,3.20643432 L100.339409,43.4262735 L117.407402,43.4262735 C118.246815,43.4262735 118.911341,43.821265 119.400999,44.6112601 C119.890657,45.4012551 120.135483,46.330647 120.135483,47.3994638 C120.135483,48.4682806 119.890657,49.3976725 119.400999,50.1876676 C118.911341,50.9776626 118.246815,51.3726542 117.407402,51.3726542 L95.2330019,51.3726542 C94.1604178,51.3726542 93.2277499,51.1170714 92.4349704,50.6058981 C91.6421908,50.0947249 91.245807,49.3976809 91.245807,48.5147453 Z M120.954906,4.46112601 C120.954906,3.39230922 121.199731,2.45129987 121.689389,1.63806971 C122.179047,0.824839544 122.890207,0.418230563 123.822888,0.418230563 L153.412072,0.418230563 C154.344754,0.418230563 155.055913,0.824839544 155.545571,1.63806971 C156.035229,2.45129987 156.280054,3.39230922 156.280054,4.46112601 C156.280054,5.57641308 156.023571,6.54065724 155.510596,7.3538874 C154.997621,8.16711756 154.29812,8.57372654 153.412072,8.57372654 L143.199257,8.57372654 L143.199257,48.5147453 C143.199257,49.3976809 142.744581,50.0947249 141.835216,50.6058981 C140.925852,51.1170714 139.864942,51.3726542 138.652456,51.3726542 C137.393335,51.3726542 136.320767,51.1170714 135.434719,50.6058981 C134.548672,50.0947249 134.105654,49.3976809 134.105654,48.5147453 L134.105654,8.57372654 L123.822888,8.57372654 C122.936841,8.57372654 122.23734,8.17873496 121.724365,7.38873995 C121.21139,6.59874493 120.954906,5.62288338 120.954906,4.46112601 Z M167.242342,48.5147453 L167.242342,3.27613941 C167.242342,2.39320381 167.638726,1.69615984 168.431505,1.1849866 C169.224285,0.673813351 170.156953,0.418230563 171.229537,0.418230563 L196.132018,0.418230563 C197.0647,0.418230563 197.775859,0.813222145 198.265517,1.60321716 C198.755175,2.39321217 199,3.29936933 199,4.32171582 C199,5.4370029 198.743516,6.38962965 198.230541,7.17962466 C197.717566,7.96961968 197.018065,8.36461126 196.132018,8.36461126 L176.335945,8.36461126 L176.335945,22.30563 L186.968464,22.30563 C187.854512,22.30563 188.554013,22.6657694 189.066988,23.386059 C189.579963,24.1063486 189.836447,24.9544187 189.836447,25.9302949 C189.836447,26.8132305 189.591621,27.6148311 189.101963,28.3351206 C188.612305,29.0554102 187.901146,29.4155496 186.968464,29.4155496 L176.335945,29.4155496 L176.335945,43.4262735 L196.132018,43.4262735 C197.018065,43.4262735 197.717566,43.821265 198.230541,44.6112601 C198.743516,45.4012551 199,46.3538818 199,47.4691689 C199,48.4915154 198.755175,49.3976725 198.265517,50.1876676 C197.775859,50.9776626 197.0647,51.3726542 196.132018,51.3726542 L171.229537,51.3726542 C170.156953,51.3726542 169.224285,51.1170714 168.431505,50.6058981 C167.638726,50.0947249 167.242342,49.3976809 167.242342,48.5147453 Z"/>
    <path fill="#CA5454" fill-rule="nonzero" d="M211,3.97852349 C211,3.0013374 211.628564,2.15212889 212.88571,1.43087248 C214.142856,0.709616081 215.446543,0.348993289 216.796811,0.348993289 C218.473006,0.348993289 219.474052,0.95390894 219.799979,2.16375839 L230.834873,39.9946309 L236.771367,15.704698 C237.190415,14.0295218 238.680344,13.1919463 241.241197,13.1919463 C243.75549,13.1919463 245.222138,14.0295218 245.641187,15.704698 L251.57768,39.9946309 L262.612575,2.16375839 C262.938501,0.95390894 263.939547,0.348993289 265.615742,0.348993289 C266.96601,0.348993289 268.269698,0.709616081 269.526844,1.43087248 C270.78399,2.15212889 271.412553,3.0013374 271.412553,3.97852349 C271.412553,4.25771952 271.365993,4.53691136 271.272871,4.81610738 L257.444333,48.7194631 C256.745918,50.7669006 254.767107,51.790604 251.507839,51.790604 C250.11101,51.790604 248.853883,51.5230452 247.73642,50.9879195 C246.618957,50.4527937 245.943833,49.6966492 245.711028,48.7194631 L241.241197,29.8738255 L236.701526,48.7194631 C236.468721,49.6966492 235.793597,50.4527937 234.676134,50.9879195 C233.55867,51.5230452 232.301543,51.790604 230.904714,51.790604 C229.461324,51.790604 228.180917,51.5230452 227.063454,50.9879195 C225.94599,50.4527937 225.247586,49.6966492 224.96822,48.7194631 L211.139682,4.81610738 C211.04656,4.53691136 211,4.25771952 211,3.97852349 Z M279.70369,43.3449664 C279.70369,42.274715 280.111092,41.1928466 280.925909,40.0993289 C281.740726,39.0058111 282.660292,38.4590604 283.684633,38.4590604 C284.289925,38.4590604 284.976689,38.7382522 285.744945,39.2966443 C286.513201,39.8550363 287.258166,40.471585 287.979861,41.1463087 C288.701556,41.8210325 289.737522,42.4375811 291.08779,42.9959732 C292.438058,43.5543652 293.927986,43.833557 295.55762,43.833557 C297.792547,43.833557 299.654957,43.3217053 301.144908,42.2979866 C302.634859,41.2742678 303.379824,39.7619787 303.379824,37.7610738 C303.379824,36.3650937 302.972421,35.1203634 302.157604,34.0268456 C301.342787,32.9333279 300.271901,32.0259544 298.944914,31.304698 C297.617926,30.5834416 296.162918,29.885462 294.579845,29.2107383 C292.996772,28.5360145 291.402083,27.77987 289.795729,26.9422819 C288.189376,26.1046938 286.722727,25.1624213 285.39574,24.1154362 C284.068752,23.0684511 282.997866,21.6724919 282.183049,19.9275168 C281.368232,18.1825416 280.96083,16.1932998 280.96083,13.9597315 C280.96083,11.4935 281.461353,9.31813023 282.462414,7.43355705 C283.463474,5.54898387 284.802082,4.08322671 286.478277,3.03624161 C288.154472,1.98925651 289.947042,1.22147895 291.856042,0.732885906 C293.765041,0.244292859 295.790413,0 297.932218,0 C299.142803,0 300.42321,0.081430953 301.773478,0.244295302 C303.123746,0.407159651 304.555475,0.674718497 306.068706,1.04697987 C307.581938,1.41924123 308.815785,2.0008909 309.770285,2.79194631 C310.724784,3.58300172 311.202027,4.51364118 311.202027,5.58389262 C311.202027,6.60761138 310.876105,7.66621377 310.224252,8.75973154 C309.572398,9.85324932 308.687753,10.4 307.57029,10.4 C307.151241,10.4 306.010515,9.95794626 304.148076,9.0738255 C302.285637,8.18970475 300.213705,7.74765101 297.932218,7.74765101 C295.417925,7.74765101 293.474034,8.22460373 292.100486,9.17852349 C290.726937,10.1324432 290.040173,11.4469715 290.040173,13.1221477 C290.040173,14.4715951 290.598896,15.6465274 291.71636,16.6469799 C292.833823,17.6474323 294.218991,18.4617418 295.871905,19.0899329 C297.52482,19.7181239 299.31739,20.5091675 301.24967,21.4630872 C303.18195,22.417007 304.974521,23.4523434 306.627435,24.5691275 C308.280349,25.6859116 309.665517,27.3028977 310.782981,29.4201342 C311.900444,31.5373708 312.459167,34.0151983 312.459167,36.8536913 C312.459167,41.6930891 310.934318,45.4272799 307.884575,48.0563758 C304.834831,50.6854718 300.819008,52 295.836985,52 C291.413693,52 287.619031,51.0926265 284.452885,49.2778523 C281.286739,47.4630782 279.70369,45.4854693 279.70369,43.3449664 Z M324.102676,35.8067114 L324.102676,16.3328859 C324.102676,10.795498 325.580965,6.74721638 328.537586,4.18791946 C331.494208,1.62862255 335.463471,0.348993289 340.445494,0.348993289 C345.427518,0.348993289 349.408421,1.62862255 352.388323,4.18791946 C355.368225,6.74721638 356.858153,10.795498 356.858153,16.3328859 L356.858153,35.8067114 C356.858153,41.3440993 355.368225,45.3923809 352.388323,47.9516779 C349.408421,50.5109748 345.427518,51.790604 340.445494,51.790604 C335.463471,51.790604 331.494208,50.5109748 328.537586,47.9516779 C325.580965,45.3923809 324.102676,41.3440993 324.102676,35.8067114 Z M333.18202,35.8067114 C333.18202,41.1579686 335.603154,43.833557 340.445494,43.833557 C345.334396,43.833557 347.77881,41.1579686 347.77881,35.8067114 L347.77881,16.3328859 C347.77881,10.9816287 345.334396,8.30604027 340.445494,8.30604027 C335.603154,8.30604027 333.18202,10.9816287 333.18202,16.3328859 L333.18202,35.8067114 Z M368.29214,48.5100671 L368.29214,41.7395973 C368.29214,39.6921598 369.060384,37.668019 370.596896,35.6671141 C372.133408,33.6662092 373.995819,31.8514623 376.184184,30.2228188 L382.88893,25.4067114 C385.077295,23.7780679 386.939706,22.0563849 388.476218,20.2416107 C390.01273,18.4268366 390.780975,16.6120896 390.780975,14.7973154 C390.780975,13.1686719 390.233891,11.7261808 389.139709,10.4697987 C388.045526,9.21341654 386.427557,8.5852349 384.285752,8.5852349 C382.469874,8.5852349 380.979946,9.0970866 379.815921,10.1208054 C378.651897,11.1445241 378.069894,12.6800792 378.069894,14.7275168 C378.069894,15.6116375 377.639211,16.3910481 376.777834,17.0657718 C375.916456,17.7404955 374.764089,18.0778523 373.320699,18.0778523 C370.573602,18.0778523 369.200074,16.4492333 369.200074,13.1919463 C369.200074,9.37626728 370.690003,6.28189106 373.669904,3.90872483 C376.649806,1.5355586 380.165107,0.348993289 384.215911,0.348993289 C388.452959,0.348993289 392.11958,1.64025554 395.215884,4.22281879 C398.312189,6.80538204 399.860318,10.2371151 399.860318,14.5181208 C399.860318,17.3100811 399.103713,19.9275046 397.590482,22.3704698 C396.077251,24.813435 394.22648,26.8841078 392.038114,28.5825503 C389.849749,30.2809928 387.673056,31.8514469 385.507971,33.2939597 C383.342886,34.7364725 381.503756,36.1789637 379.990524,37.6214765 C378.477293,39.0639893 377.720688,40.4366825 377.720688,41.7395973 L377.720688,43.4147651 L397.136515,43.4147651 C397.88149,43.4147651 398.544974,43.7986539 399.126986,44.566443 C399.708998,45.334232 400,46.2532385 400,47.3234899 C400,48.3937414 399.708998,49.3360138 399.126986,50.1503356 C398.544974,50.9646573 397.88149,51.3718121 397.136515,51.3718121 L372.273082,51.3718121 C371.388424,51.3718121 370.503779,51.0926202 369.619121,50.5342282 C368.734462,49.9758361 368.29214,49.3011225 368.29214,48.5100671 Z"/>
  </g>
</svg>
