<svg xmlns="http://www.w3.org/2000/svg" xmlns:xlink="http://www.w3.org/1999/xlink" width="726" height="160" viewBox="0 0 726 160">
  <defs>
    <path id="banner-a" d="M40.7594937,0 L99.2405063,0 C121.751353,-4.13517547e-15 140,18.2486469 140,40.7594937 L140,99.2405063 C140,121.751353 121.751353,140 99.2405063,140 L40.7594937,140 C18.2486469,140 2.75678364e-15,121.751353 0,99.2405063 L0,40.7594937 C-2.75678364e-15,18.2486469 18.2486469,4.13517547e-15 40.7594937,0 Z"/>
  </defs>
  <g fill="none" fill-rule="evenodd">
    <g transform="translate(10 10)">
      <mask id="banner-b" fill="#fff">
        <use xlink:href="#banner-a"/>
      </mask>
      <use fill="#CA5454" fill-rule="nonzero" xlink:href="#banner-a"/>
      <polygon fill="#000" fill-opacity=".2" fill-rule="nonzero" points="108.111 184.333 39.807 104.226 49.4 45.962 52.889 49.778 60.882 24.272 83.916 23.387 185.111 127.556" mask="url(#banner-b)"/>
      <g mask="url(#banner-b)">
        <g fill-rule="nonzero" transform="translate(37.333 17.111)">
          <path fill="#242424" d="M53.0332865,28.8506618 L55.1336146,28.8506618 C60.9335107,28.8506618 65.6352555,33.5978916 65.6352555,39.4538964 L65.6352555,80.2763499 C65.6352555,86.1323547 60.9335107,90.8795846 55.1336146,90.8795846 L10.5016409,90.8795846 C4.70174477,90.8795846 7.46186464e-15,86.1323547 0,80.2763499 L0,39.4538964 C0,33.5978916 4.70174477,28.8506618 10.5016409,28.8506618 L12.076887,28.8506618 L12.076887,29.6459044 C12.076887,33.0131071 14.7803903,35.7427643 18.1153305,35.7427643 C21.4502708,35.7427643 24.153774,33.0131071 24.153774,29.6459044 L24.153774,28.8506618 L40.9563994,28.8506618 L40.9563994,29.6459044 C40.9563994,33.0131071 43.6599027,35.7427643 46.9948429,35.7427643 C50.3297832,35.7427643 53.0332865,33.0131071 53.0332865,29.6459044 L53.0332865,28.8506618 Z M37.6308798,59.701054 C38.7170773,58.5885523 39.3811533,57.0988457 39.3811533,55.4617909 C39.3811533,52.0181026 36.4425628,49.2264416 32.8176278,49.2264416 C29.1926927,49.2264416 26.2541022,52.0181026 26.2541022,55.4617909 C26.2541022,57.0988457 26.9181782,58.5885523 28.0043757,59.701054 L28.0043757,69.5952493 C28.0043757,72.1206207 30.159342,74.1678387 32.8176278,74.1678387 C35.4759135,74.1678387 37.6308798,72.1206207 37.6308798,69.5952493 L37.6308798,59.701054 Z"/>
          <path fill="#DFDFDF" d="M22.3077438,30.1917667 L22.2991245,30.1917667 C22.1639185,32.2622948 20.4549151,33.8995276 18.3665374,33.8995276 C16.2781596,33.8995276 14.5691562,32.2622948 14.4339502,30.1917667 L14.4253309,30.1917667 L14.4253309,18.5388041 C14.4253309,8.30010533 22.6598427,0 32.8176278,0 C42.9754128,0 51.2099246,8.30010533 51.2099246,18.5388041 L51.2099246,30.1917667 L51.2013053,30.1917667 C51.0660993,32.2622948 49.3570959,33.8995276 47.2687182,33.8995276 C45.1803405,33.8995276 43.471337,32.2622948 43.336131,30.1917667 L43.3275117,30.1917667 L43.3275117,18.5388041 C43.3275117,12.6881191 38.6220764,7.94520177 32.8176278,7.94520177 C27.0131791,7.94520177 22.3077438,12.6881191 22.3077438,18.5388041 L22.3077438,30.1917667 Z"/>
        </g>
      </g>
    </g>
    <g transform="translate(190 45)">
      <path fill="#242424" d="M0,58.8264151 C0,57.4087979 0.535270986,55.9757934 1.60582902,54.5273585 C2.67638705,53.0789236 3.88457013,52.354717 5.23041451,52.354717 C6.02568619,52.354717 6.92800013,52.7245246 7.93738342,53.4641509 C8.9467667,54.2037773 9.92554794,55.0204358 10.8737565,55.9141509 C11.821965,56.8078661 13.1830827,57.6245246 14.9571503,58.3641509 C16.7312179,59.1037773 18.6887803,59.4735849 20.8298964,59.4735849 C23.7662841,59.4735849 26.2132372,58.7956043 28.170829,57.4396226 C30.1284208,56.083641 31.1072021,54.0805164 31.1072021,51.4301887 C31.1072021,49.5811228 30.5719311,47.9323972 29.5013731,46.4839623 C28.430815,45.0355273 27.023817,43.8336526 25.2803368,42.8783019 C23.5368566,41.9229512 21.6251745,40.9984321 19.5452332,40.104717 C17.4652918,39.2110018 15.3700883,38.2094395 13.2595596,37.1 C11.1490309,35.9905605 9.22205535,34.7424598 7.47857513,33.3556604 C5.73509491,31.968861 4.32809689,30.1198229 3.25753886,27.8084906 C2.18698083,25.4971583 1.65170984,22.8622789 1.65170984,19.9037736 C1.65170984,16.6370906 2.30932848,13.7556729 3.62458549,11.259434 C4.9398425,8.76319507 6.69859002,6.82170505 8.90088083,5.43490566 C11.1031716,4.04810627 13.458364,3.03113531 15.9665285,2.38396226 C18.474693,1.73678922 21.1357545,1.41320755 23.9497927,1.41320755 C25.5403361,1.41320755 27.2226163,1.5210681 28.9966839,1.73679245 C30.7707515,1.9525168 32.6518467,2.30691577 34.6400259,2.8 C36.6282051,3.29308423 38.2493115,4.06351677 39.5033938,5.11132075 C40.757476,6.15912474 41.3845078,7.39181681 41.3845078,8.80943396 C41.3845078,10.1654156 40.956291,11.5676028 40.0998446,13.0160377 C39.2433981,14.4644727 38.0810954,15.1886792 36.6129016,15.1886792 C36.0623289,15.1886792 34.5635701,14.6031505 32.1165803,13.4320755 C29.6695905,12.2610004 26.9473552,11.6754717 23.9497927,11.6754717 C20.6463565,11.6754717 18.0923493,12.3072264 16.2876943,13.5707547 C14.4830393,14.834283 13.5807254,16.5754606 13.5807254,18.7943396 C13.5807254,20.5817699 14.3148113,22.1380437 15.7830052,23.4632075 C17.2511991,24.7883714 19.0711204,25.866977 21.2428238,26.6990566 C23.4145273,27.5311362 25.7697196,28.5789245 28.3084715,29.8424528 C30.8472234,31.1059812 33.2024157,32.4773511 35.3741192,33.9566038 C37.5458226,35.4358565 39.365744,37.5776589 40.8339378,40.3820755 C42.3021317,43.186492 43.0362176,46.4685347 43.0362176,50.2283019 C43.0362176,56.6383968 41.0327748,61.5845738 37.025829,65.0669811 C33.0188832,68.5493885 27.7426407,70.290566 21.196943,70.290566 C15.3853423,70.290566 10.3996754,69.0886913 6.23979275,66.6849057 C2.07991012,64.2811201 0,61.6616494 0,58.8264151 Z M54.3884456,64.4660377 C54.3884456,64.3427667 54.4496194,64.0345937 54.5719689,63.5415094 L72.2819689,5.38867925 C72.6490174,4.09433315 73.5513313,3.09277084 74.9889378,2.38396226 C76.4265443,1.67515369 78.0629442,1.32075472 79.8981865,1.32075472 C81.7334289,1.32075472 83.3851222,1.67515369 84.8533161,2.38396226 C86.3215099,3.09277084 87.2391173,4.09433315 87.6061658,5.38867925 L105.316166,63.5415094 C105.438515,64.0345937 105.499689,64.3427667 105.499689,64.4660377 C105.499689,65.8220194 104.673842,66.9930768 103.022124,67.9792453 C101.370406,68.9654137 99.688126,69.4584906 97.9752332,69.4584906 C95.7117676,69.4584906 94.3659434,68.6572407 93.9377202,67.054717 L90.4507772,54.7584906 L69.4373575,54.7584906 L65.9504145,67.054717 C65.5221913,68.6572407 64.1763671,69.4584906 61.9129016,69.4584906 C60.138834,69.4584906 58.4412603,68.9808224 56.8201295,68.0254717 C55.1989988,67.070121 54.3884456,65.8836549 54.3884456,64.4660377 Z M71.9149223,45.3283019 L87.8814508,45.3283019 L79.8981865,16.945283 L71.9149223,45.3283019 Z M119.696528,65.6679245 L119.696528,5.57358491 C119.696528,4.34087434 120.27768,3.41635528 121.44,2.8 C122.60232,2.18364472 124.009318,1.8754717 125.661036,1.8754717 C127.312754,1.8754717 128.719752,2.18364472 129.882073,2.8 C131.044393,3.41635528 131.625544,4.34087434 131.625544,5.57358491 L131.625544,58.9188679 L154.015389,58.9188679 C155.116534,58.9188679 155.988261,59.4427621 156.630596,60.490566 C157.272931,61.53837 157.594093,62.7710621 157.594093,64.1886792 C157.594093,65.6062964 157.272931,66.8389885 156.630596,67.8867925 C155.988261,68.9345964 155.116534,69.4584906 154.015389,69.4584906 L124.926943,69.4584906 C123.519924,69.4584906 122.296447,69.1195002 121.256477,68.4415094 C120.216506,67.7635186 119.696528,66.8389996 119.696528,65.6679245 Z M158.669016,7.23773585 C158.669016,5.8201187 158.990178,4.57201797 159.632513,3.49339623 C160.274848,2.41477448 161.207749,1.8754717 162.431244,1.8754717 L201.246425,1.8754717 C202.46992,1.8754717 203.402821,2.41477448 204.045155,3.49339623 C204.68749,4.57201797 205.008653,5.8201187 205.008653,7.23773585 C205.008653,8.71698853 204.672197,9.99590656 203.999275,11.0745283 C203.326352,12.15315 202.408745,12.6924528 201.246425,12.6924528 L187.849223,12.6924528 L187.849223,65.6679245 C187.849223,66.8389996 187.252778,67.7635186 186.05987,68.4415094 C184.866963,69.1195002 183.475258,69.4584906 181.884715,69.4584906 C180.232997,69.4584906 178.825999,69.1195002 177.663679,68.4415094 C176.501359,67.7635186 175.920207,66.8389996 175.920207,65.6679245 L175.920207,12.6924528 L162.431244,12.6924528 C161.268923,12.6924528 160.351316,12.1685587 159.678394,11.1207547 C159.005472,10.0729507 158.669016,8.77862406 158.669016,7.23773585 Z M219.389016,65.6679245 L219.389016,5.66603774 C219.389016,4.4949627 219.908993,3.57044364 220.948964,2.89245283 C221.988934,2.21446202 223.212411,1.8754717 224.61943,1.8754717 L257.28658,1.8754717 C258.510075,1.8754717 259.442976,2.39936583 260.085311,3.44716981 C260.727646,4.49497379 261.048808,5.69684857 261.048808,7.05283019 C261.048808,8.53208287 260.712352,9.79559225 260.03943,10.8433962 C259.366508,11.8912002 258.4489,12.4150943 257.28658,12.4150943 L231.318031,12.4150943 L231.318031,30.9056604 L245.265803,30.9056604 C246.428123,30.9056604 247.345731,31.3833286 248.018653,32.3386792 C248.691575,33.2940299 249.028031,34.4188615 249.028031,35.7132075 C249.028031,36.8842826 248.706868,37.9474795 248.064534,38.9028302 C247.422199,39.8581809 246.489298,40.3358491 245.265803,40.3358491 L231.318031,40.3358491 L231.318031,58.9188679 L257.28658,58.9188679 C258.4489,58.9188679 259.366508,59.4427621 260.03943,60.490566 C260.712352,61.53837 261.048808,62.8018794 261.048808,64.2811321 C261.048808,65.6371137 260.727646,66.8389885 260.085311,67.8867925 C259.442976,68.9345964 258.510075,69.4584906 257.28658,69.4584906 L224.61943,69.4584906 C223.212411,69.4584906 221.988934,69.1195002 220.948964,68.4415094 C219.908993,67.7635186 219.389016,66.8389996 219.389016,65.6679245 Z"/>
      <path fill="#CA5454" d="M277.906736,64.4660377 C277.906736,64.3427667 277.96791,64.0345937 278.090259,63.5415094 L295.800259,5.38867925 C296.167308,4.09433315 297.069621,3.09277084 298.507228,2.38396226 C299.944834,1.67515369 301.581234,1.32075472 303.416477,1.32075472 C305.251719,1.32075472 306.903412,1.67515369 308.371606,2.38396226 C309.8398,3.09277084 310.757407,4.09433315 311.124456,5.38867925 L328.834456,63.5415094 C328.956805,64.0345937 329.017979,64.3427667 329.017979,64.4660377 C329.017979,65.8220194 328.192133,66.9930768 326.540415,67.9792453 C324.888696,68.9654137 323.206416,69.4584906 321.493523,69.4584906 C319.230058,69.4584906 317.884234,68.6572407 317.45601,67.054717 L313.969067,54.7584906 L292.955648,54.7584906 L289.468705,67.054717 C289.040481,68.6572407 287.694657,69.4584906 285.431192,69.4584906 C283.657124,69.4584906 281.95955,68.9808224 280.33842,68.0254717 C278.717289,67.070121 277.906736,65.8836549 277.906736,64.4660377 Z M295.433212,45.3283019 L311.399741,45.3283019 L303.416477,16.945283 L295.433212,45.3283019 Z M342.480725,48.8415094 L342.480725,5.57358491 C342.480725,4.34087434 343.061877,3.41635528 344.224197,2.8 C345.386517,2.18364472 346.793515,1.8754717 348.445233,1.8754717 C350.096951,1.8754717 351.503949,2.18364472 352.666269,2.8 C353.82859,3.41635528 354.409741,4.34087434 354.409741,5.57358491 L354.409741,48.8415094 C354.409741,55.9295952 357.774301,59.4735849 364.503523,59.4735849 C371.232745,59.4735849 374.597306,55.9295952 374.597306,48.8415094 L374.597306,5.57358491 C374.597306,4.34087434 375.178457,3.41635528 376.340777,2.8 C377.503097,2.18364472 378.910095,1.8754717 380.561813,1.8754717 C382.213532,1.8754717 383.62053,2.18364472 384.78285,2.8 C385.94517,3.41635528 386.526321,4.34087434 386.526321,5.57358491 L386.526321,48.8415094 C386.526321,56.1145018 384.522878,61.4613037 380.515933,64.8820755 C376.508987,68.3028473 371.17157,70.0132075 364.503523,70.0132075 C357.835476,70.0132075 352.49806,68.3182559 348.491114,64.9283019 C344.484168,61.5383478 342.480725,56.1761373 342.480725,48.8415094 Z M400.723161,7.23773585 C400.723161,5.8201187 401.044323,4.57201797 401.686658,3.49339623 C402.328993,2.41477448 403.261894,1.8754717 404.485389,1.8754717 L443.30057,1.8754717 C444.524065,1.8754717 445.456966,2.41477448 446.099301,3.49339623 C446.741635,4.57201797 447.062798,5.8201187 447.062798,7.23773585 C447.062798,8.71698853 446.726342,9.99590656 446.05342,11.0745283 C445.380497,12.15315 444.46289,12.6924528 443.30057,12.6924528 L429.903368,12.6924528 L429.903368,65.6679245 C429.903368,66.8389996 429.306923,67.7635186 428.114016,68.4415094 C426.921108,69.1195002 425.529403,69.4584906 423.93886,69.4584906 C422.287142,69.4584906 420.880144,69.1195002 419.717824,68.4415094 C418.555504,67.7635186 417.974352,66.8389996 417.974352,65.6679245 L417.974352,12.6924528 L404.485389,12.6924528 C403.323068,12.6924528 402.405461,12.1685587 401.732539,11.1207547 C401.059617,10.0729507 400.723161,8.77862406 400.723161,7.23773585 Z M461.443161,65.6679245 L461.443161,5.57358491 C461.443161,4.34087434 462.024312,3.41635528 463.186632,2.8 C464.348952,2.18364472 465.75595,1.8754717 467.407668,1.8754717 C469.059386,1.8754717 470.466385,2.18364472 471.628705,2.8 C472.791025,3.41635528 473.372176,4.34087434 473.372176,5.57358491 L473.372176,29.7037736 L494.018549,29.7037736 L494.018549,5.57358491 C494.018549,4.34087434 494.599701,3.41635528 495.762021,2.8 C496.924341,2.18364472 498.331339,1.8754717 499.983057,1.8754717 C501.634775,1.8754717 503.041773,2.18364472 504.204093,2.8 C505.366413,3.41635528 505.947565,4.34087434 505.947565,5.57358491 L505.947565,65.6679245 C505.947565,66.8389996 505.35112,67.7635186 504.158212,68.4415094 C502.965305,69.1195002 501.5736,69.4584906 499.983057,69.4584906 C498.331339,69.4584906 496.924341,69.1195002 495.762021,68.4415094 C494.599701,67.7635186 494.018549,66.8389996 494.018549,65.6679245 L494.018549,39.1339623 L473.372176,39.1339623 L473.372176,65.6679245 C473.372176,66.8389996 472.775731,67.7635186 471.582824,68.4415094 C470.389916,69.1195002 468.998212,69.4584906 467.407668,69.4584906 C465.75595,69.4584906 464.348952,69.1195002 463.186632,68.4415094 C462.024312,67.7635186 461.443161,66.8389996 461.443161,65.6679245 Z"/>
    </g>
  </g>
</svg>
