<svg xmlns="http://www.w3.org/2000/svg" width="300" height="300" viewBox="0 0 300 300">
  <g fill="none" fill-rule="evenodd">
    <path fill="#812525" fill-rule="nonzero" d="M150,23.08974 L40,86.5512785 L40,213.448722 L150,276.91026 L260,213.448722 L260,86.5512785 L150,23.08974 Z M150,0 L280,75 L280,225 L150,300 L20,225 L20,75 L150,0 Z"/>
    <polygon fill="#CA5454" fill-rule="nonzero" points="150 41 245 95.625 245 204.875 150 259.5 55 204.875 55 95.625"/>
    <g fill-rule="nonzero" transform="translate(100 81)">
      <path fill="#242424" d="M80.8,43.956044 L84,43.956044 C92.836556,43.956044 100,51.1887877 100,60.1108293 L100,122.306753 C100,131.228795 92.836556,138.461538 84,138.461538 L16,138.461538 C7.163444,138.461538 1.13686838e-14,131.228795 0,122.306753 L0,60.1108293 C0,51.1887877 7.163444,43.956044 16,43.956044 L18.4,43.956044 L18.4,45.1676529 C18.4,50.2978268 22.5189803,54.4566545 27.6,54.4566545 C32.6810197,54.4566545 36.8,50.2978268 36.8,45.1676529 L36.8,43.956044 L62.4,43.956044 L62.4,45.1676529 C62.4,50.2978268 66.5189803,54.4566545 71.6,54.4566545 C76.6810197,54.4566545 80.8,50.2978268 80.8,45.1676529 L80.8,43.956044 Z"/>
      <path fill="#DFDFDF" d="M33.9874411,45.9993132 L33.974309,45.9993132 C33.768313,49.1539105 31.1645242,51.6483516 27.9827316,51.6483516 C24.800939,51.6483516 22.1971501,49.1539105 21.9911541,45.9993132 L21.978022,45.9993132 L21.978022,28.2451923 C21.978022,12.6458033 34.5238889,0 50,0 C65.4761111,0 78.021978,12.6458033 78.021978,28.2451923 L78.021978,45.9993132 L78.0088459,45.9993132 C77.8028499,49.1539105 75.199061,51.6483516 72.0172684,51.6483516 C68.8354758,51.6483516 66.231687,49.1539105 66.025691,45.9993132 L66.0125589,45.9993132 L66.0125589,28.2451923 C66.0125589,19.3312558 58.8434921,12.1050824 50,12.1050824 C41.1565079,12.1050824 33.9874411,19.3312558 33.9874411,28.2451923 L33.9874411,45.9993132 Z"/>
    </g>
    <path fill="#CA5454" fill-rule="nonzero" d="M157.333333,171.95882 L157.333333,187.033333 C157.333333,190.880917 154.050088,194 150,194 C145.949912,194 142.666667,190.880917 142.666667,187.033333 L142.666667,171.95882 C141.011767,170.263844 140,167.99417 140,165.5 C140,160.253295 144.477153,156 150,156 C155.522847,156 160,160.253295 160,165.5 C160,167.99417 158.988233,170.263844 157.333333,171.95882 Z"/>
  </g>
</svg>
